<?xml version="1.0" encoding="utf-8"?>
<!-- Generator: Adobe Illustrator 23.1.1, SVG Export Plug-In . SVG Version: 6.00 Build 0)  -->
<svg version="1.1" id="Layer_1" xmlns="http://www.w3.org/2000/svg" xmlns:xlink="http://www.w3.org/1999/xlink" x="0px" y="0px"
	 viewBox="0 0 820.4 820.4" style="enable-background:new 0 0 820.4 820.4;" xml:space="preserve">
<style type="text/css">
	.st0{fill:#E6E7E8;}
	.st1{fill:#FF9A00;}
</style>
<title>2users</title>
<g id="Layer_3">
	<circle class="st0" cx="410.2" cy="410.2" r="410.2"/>
</g>
<g>
	<path class="st1" d="M558.7,404.8c49-44,53.1-119.4,9.1-168.4c-40.4-45-108.1-52.6-157.5-17.8c-53.8-38-128.3-25.1-166.2,28.8
		c-34.8,49.4-27.2,117,17.7,157.4c-55.9,29.4-90.7,87.5-90.5,150.6v51.2c0,9.4,7.6,17.1,17.1,17.1H632c9.4,0,17.1-7.6,17.1-17l0,0
		v-51.2C649.4,492.3,614.5,434.2,558.7,404.8z M478.4,231.1c47.1,0,85.3,38.1,85.3,85.1c0,33.6-19.6,64-50.2,77.8
		c-1.3,0.6-2.6,1.1-4,1.7c-4.2,1.7-8.6,3-13,4c-0.8,0.2-1.7,0.3-2.6,0.5c-4.9,0.9-10,1.5-15,1.5c-2.3,0-4.5-0.2-6.8-0.4
		c-0.9,0-1.7,0-2.6-0.2c-9.7-1.1-19.1-3.9-27.8-8.2c-0.3-0.2-0.7-0.1-1-0.3c-1.7-0.8-3.4-1.5-4.9-2.5c0.1-0.2,0.2-0.4,0.3-0.5
		c7.8-10.1,14-21.3,18.3-33.3l0.5-1.4c1.9-5.7,3.5-11.6,4.5-17.6c0.2-0.9,0.3-1.7,0.4-2.6c2.1-12.1,2.1-24.5,0-36.7
		c-0.1-0.9-0.3-1.7-0.4-2.6c-1.1-6-2.6-11.8-4.5-17.6l-0.5-1.4c-4.3-12-10.5-23.2-18.3-33.3c-0.1-0.2-0.2-0.4-0.3-0.5
		C448.7,235.1,463.5,231.1,478.4,231.1z M256.6,316.4c-0.1-47,37.9-85.2,84.9-85.3c22-0.1,43.2,8.4,59.1,23.7c1,1,2,1.9,2.9,2.9
		c2.9,3.1,5.6,6.3,8.1,9.8c0.8,1.1,1.4,2.2,2.1,3.3c2.4,3.7,4.5,7.5,6.3,11.5c0.4,1,0.8,2,1.1,2.9c1.8,4.4,3.2,9,4.2,13.6
		c0.1,0.5,0.2,1,0.3,1.5c2.2,10.6,2.2,21.5,0,32.1c-0.1,0.5-0.1,1-0.3,1.5c-1,4.7-2.4,9.3-4.2,13.7c-0.4,1-0.7,2-1.1,2.9
		c-1.8,4-3.9,7.8-6.3,11.5c-0.7,1.1-1.4,2.2-2.1,3.3c-2.5,3.5-5.2,6.7-8.1,9.8c-1,1-1.9,2-2.9,2.9c-6.9,6.6-14.9,12-23.6,15.9
		c-1.4,0.6-2.8,1.2-4.2,1.7c-4.1,1.6-8.4,2.9-12.7,3.9c-1.1,0.2-2.2,0.4-3.3,0.6c-4.6,0.9-9.3,1.3-14,1.4h-1.9
		c-4.7-0.1-9.4-0.6-14-1.4c-1.1-0.2-2.2-0.3-3.3-0.6c-4.3-1-8.6-2.3-12.7-3.9c-1.4-0.6-2.8-1.1-4.2-1.7
		C276.3,380.3,256.6,349.9,256.6,316.4z M478.4,589.5h-273v-34.1c-0.2-57.8,36.2-109.4,90.8-128.6c29.3,12.2,62.3,12.2,91.6,0
		c5.7,2.1,11.3,4.5,16.6,7.4c3.5,1.8,6.8,3.9,10.2,6c2.2,1.4,4.5,2.7,6.6,4.3c3.3,2.3,6.4,4.9,9.5,7.5c2,1.7,3.9,3.4,5.8,5.1
		c2.8,2.7,5.5,5.5,8,8.4c1.8,2.1,3.6,4.2,5.3,6.4c2.2,2.9,4.4,5.8,6.3,8.8c1.7,2.6,3.2,5.2,4.7,7.9c1.7,2.9,3.3,5.9,4.7,8.9
		s2.7,6.4,3.9,9.7c1.1,2.8,2.2,5.6,3.1,8.5c1.2,4,2,8.1,2.9,12.2c0.5,2.4,1.2,4.8,1.5,7.3c1,6.8,1.5,13.6,1.5,20.4L478.4,589.5
		L478.4,589.5z M615,589.5H512.6v-34.1c0-5.3-0.3-10.6-0.8-15.9c-0.1-1.5-0.4-3.1-0.5-4.6c-0.5-3.8-1-7.5-1.7-11.2
		c-0.3-1.6-0.6-3.2-1-4.8c-0.8-3.8-1.8-7.6-2.8-11.3c-0.4-1.2-0.7-2.5-1.1-3.7c-4.8-15.3-11.7-29.8-20.5-43.2l-0.7-1
		c-2.9-4.4-6.1-8.6-9.4-12.7l-0.1-0.2c-3.4-4.3-7.1-8.4-11-12.2h0.7c4.8,0.6,9.7,1,14.5,1h0.9c4.5,0,9-0.3,13.5-0.9
		c1.4-0.2,2.8-0.4,4.2-0.7c3.6-0.5,7.2-1.3,10.8-2.2c1-0.3,2-0.5,3.1-0.8c4.6-1.3,9.2-2.8,13.7-4.6c54.6,19.1,91.1,70.8,90.8,128.6
		L615,589.5L615,589.5z"/>
	<path class="st1" d="M735.8,339.1h-40.3c-1.3,0-2.4-1.1-2.4-2.4v-40.3c0.2-6.5-5-12-11.5-12.2s-12,5-12.2,11.5c0,0.2,0,0.5,0,0.7
		v40.3c0,1.3-1.1,2.4-2.4,2.4h-40.3c-6.5,0-11.8,5.3-11.8,11.8s5.3,11.8,11.8,11.8H667c1.3,0,2.4,1.1,2.4,2.4v40.3
		c-0.2,6.5,5,12,11.5,12.2s12-5,12.2-11.5c0-0.2,0-0.5,0-0.7v-40.3c0-1.3,1.1-2.3,2.4-2.3h40.3c6.5,0,11.8-5.3,11.8-11.8
		C747.6,344.4,742.3,339.1,735.8,339.1L735.8,339.1z"/>
</g>
</svg>
