<svg id="Layer_1" data-name="Layer 1" xmlns="http://www.w3.org/2000/svg" viewBox="0 0 867.3 628.15"><defs><style>.cls-1{fill:#ffd83b;}.cls-2{fill:#fff;}</style></defs><title>golang_banner</title><path class="cls-1" d="M81.54,720.27V615.6l-14.91,8.82V608.15l46.71-27.63V596.8l-14.69,8.68V710.15Z" transform="translate(-66.63 -266.04)"/><path class="cls-1" d="M114.84,700.57l18.73-132,18.27-10.81,18.73,109.86L154.73,677,151,651.25l-16.3,9.64-3.81,30.18Zm20.7,16.58V698.34l14.34-8.48v18.81Zm.92-71.32,12.72-7.52-6.36-47Z" transform="translate(-66.63 -266.04)"/><path class="cls-1" d="M204.34,649.29q-9.94,5.88-15.84,4.59t-8.44-8.75q-2.55-7.44-2.55-19.69V580.2a93.07,93.07,0,0,1,2.55-22.49,50.06,50.06,0,0,1,24.28-32.35q10.17-6,16-4.84c3.89.79,6.71,3.57,8.44,8.37s2.6,11.28,2.6,19.44v45.39a92.57,92.57,0,0,1-2.6,22.52A55.67,55.67,0,0,1,220.35,635,50.76,50.76,0,0,1,204.34,649.29Zm0-16.28a16.77,16.77,0,0,0,6.3-6.11,23.84,23.84,0,0,0,2.72-8.18,64,64,0,0,0,.69-9.52V553.51a47.31,47.31,0,0,0-.69-8.7c-.47-2.41-1.37-4-2.72-4.73s-3.45-.28-6.3,1.41a16.84,16.84,0,0,0-6.13,5.94,22.51,22.51,0,0,0-2.78,8,62.21,62.21,0,0,0-.69,9.52v55.69a52.61,52.61,0,0,0,.64,8.73c.42,2.54,1.33,4.2,2.71,5S201.56,634.66,204.34,633Z" transform="translate(-66.63 -266.04)"/><path class="cls-1" d="M281.92,601.76l-13.3-113.07L283,480.21l7.75,73.8,9.71-83.83,11.68-6.9,9.94,72.2,7.63-82.9,14.11-8.34L330.71,572.91l-13.87,8.2-10.41-74.92-10.29,87.16Z" transform="translate(-66.63 -266.04)"/><path class="cls-1" d="M354.19,559V438.09l39.31-23.25v15.53L371.3,443.5v34.78L388.76,468v15.38L371.3,493.66v40l22.43-13.27v15.23Z" transform="translate(-66.63 -266.04)"/><path class="cls-1" d="M403.67,529.76V408.82l23-13.61A51.23,51.23,0,0,1,438,390a13.63,13.63,0,0,1,8.67-.13c2.43.91,4.29,3,5.61,6.17s2,7.84,2,13.91a54.73,54.73,0,0,1-1.56,13.47,38.6,38.6,0,0,1-4.57,11,35.05,35.05,0,0,1-7.51,8.55q5.55-2.08,9.19-.44c2.43,1.11,4.24,3.34,5.43,6.72s1.8,8,1.8,13.72a75.78,75.78,0,0,1-1.68,16.3,56.82,56.82,0,0,1-5,14,49.86,49.86,0,0,1-8.21,11.5,53.37,53.37,0,0,1-11.51,9.05Zm17.12-81.64,5.78-3.42a27.34,27.34,0,0,0,7.86-6.59,21.19,21.19,0,0,0,3.87-8.26,47.68,47.68,0,0,0,1.1-10.8q0-6.42-1.67-8.94a4.4,4.4,0,0,0-5-1.8,30.13,30.13,0,0,0-8.56,3.79l-3.35,2Zm0,56,6.47-3.83q7.74-4.57,10.52-11.07t2.78-16.65q0-7.32-1.33-11.08c-.89-2.51-2.35-3.91-4.4-4.2s-4.76.58-8.15,2.58l-5.89,3.49Z" transform="translate(-66.63 -266.04)"/><path class="cls-1" d="M491.66,479.36q-8.45,5-14.1,4.09t-8.56-7.4q-2.89-6.51-3.24-18.25l14.69-12.41a60.25,60.25,0,0,0,1.33,11.6q1.1,4.72,3.35,6.31c1.5,1.05,3.49.85,5.95-.61A13.68,13.68,0,0,0,497,456a23.9,23.9,0,0,0,1.74-9.16q0-7.92-2.78-11.35a22.27,22.27,0,0,0-7.4-5.78l-11.79-6.46a19.33,19.33,0,0,1-7.92-7.64q-3-5-2.95-15.05a52.35,52.35,0,0,1,6.47-25.93A48,48,0,0,1,490,356.4q6.6-3.9,11-3.89a8.7,8.7,0,0,1,7,3.11,20,20,0,0,1,3.88,8.23,62.94,62.94,0,0,1,1.62,11.51L499,387.26a68.11,68.11,0,0,0-1-9.57q-.75-4-2.65-5.44t-5.61.78a14.46,14.46,0,0,0-5.84,6.66,21.76,21.76,0,0,0-2,9.18q0,6.13,2,8.92a16.09,16.09,0,0,0,5.67,4.79L501.14,409a25.83,25.83,0,0,1,9.89,8.86q4.11,6,4.1,17.95a51.84,51.84,0,0,1-2.94,17.12A55.42,55.42,0,0,1,504,468.27,42.73,42.73,0,0,1,491.66,479.36Z" transform="translate(-66.63 -266.04)"/><path class="cls-1" d="M524.73,458.17V337.23l16.88-10V448.18Z" transform="translate(-66.63 -266.04)"/><path class="cls-1" d="M565.43,434.1V329.43l-14.92,8.82V322l46.72-27.63v16.28l-14.69,8.68V424Z" transform="translate(-66.63 -266.04)"/><path class="cls-1" d="M605.78,410.23V289.29L645.1,266v15.53L622.9,294.7v34.79l17.46-10.33v15.38L622.9,344.87v40l22.43-13.26v15.23Z" transform="translate(-66.63 -266.04)"/><path class="cls-1" d="M100.27,894.19V773.25l23-13.61a51,51,0,0,1,11.28-5.17,13.63,13.63,0,0,1,8.67-.13c2.43.91,4.29,3,5.61,6.17s2,7.84,2,13.91a54.73,54.73,0,0,1-1.56,13.47,38.6,38.6,0,0,1-4.57,11,35.05,35.05,0,0,1-7.51,8.55q5.55-2.08,9.19-.44c2.43,1.11,4.24,3.34,5.43,6.72s1.8,7.95,1.8,13.72a75.62,75.62,0,0,1-1.68,16.29,56.35,56.35,0,0,1-5,14,49.86,49.86,0,0,1-8.21,11.5,53.37,53.37,0,0,1-11.51,9Zm17.12-81.64,5.78-3.42a27.34,27.34,0,0,0,7.86-6.59,21.19,21.19,0,0,0,3.87-8.26,47.68,47.68,0,0,0,1.1-10.8q0-6.42-1.67-8.94t-5-1.8a30.22,30.22,0,0,0-8.55,3.79l-3.35,2Zm0,56,6.47-3.83q7.74-4.58,10.52-11.07T137.16,837q0-7.32-1.33-11.08c-.89-2.51-2.35-3.91-4.4-4.2s-4.76.58-8.15,2.58l-5.89,3.49Z" transform="translate(-66.63 -266.04)"/><path class="cls-1" d="M159.82,859l18.73-132,18.27-10.81L215.55,826l-15.84,9.37L196,809.65l-16.3,9.64-3.82,30.18Zm28-145.4q-8.33,4.92-12.54,1.52T171,701.69l9-5.34c0,3.59.57,6,1.73,7.19s3.16,1,6-.72a13.9,13.9,0,0,0,5.9-6.4,22.61,22.61,0,0,0,1.73-9.16l9-5.33a40.36,40.36,0,0,1-4.22,18.39A31.56,31.56,0,0,1,187.8,713.57Zm-2.66-26.64-12.49-10.09,13.88-8.2,7.75,12.88Zm-3.7,117.3,12.72-7.52-6.36-47Z" transform="translate(-66.63 -266.04)"/><path class="cls-1" d="M224.45,820.75V699.81l11.91-7,22.78,55.51v-69L273.25,671V791.89l-11.33,6.7L239,739.87v72.26Z" transform="translate(-66.63 -266.04)"/><path class="cls-1" d="M310.94,771.24q-9.26,5.47-14.68,3.61t-7.81-9.79q-2.37-7.93-2.37-20.62V703.83a113.63,113.63,0,0,1,2.31-23.77,53.11,53.11,0,0,1,8.16-19.23,50.24,50.24,0,0,1,16.13-14.54q9.58-5.67,15.26-4.84t8.15,7.19q2.49,6.38,2.49,17.57v6.27l-16.31,9.64v-6.87a60.61,60.61,0,0,0-.63-9.62c-.43-2.54-1.27-4.15-2.55-4.84s-3.33-.2-6.18,1.49a16.34,16.34,0,0,0-6.54,6.7,25.93,25.93,0,0,0-2.54,9,99.1,99.1,0,0,0-.52,10.46V739a55.8,55.8,0,0,0,.81,10.42c.54,2.76,1.54,4.54,3,5.31s3.54.37,6.24-1.23a17,17,0,0,0,6.36-6.45,28.58,28.58,0,0,0,3.06-9.27,73.51,73.51,0,0,0,.87-11.86V714.6l-10.06,5.95V706.66l25.44-15V753l-11,6.5-1.27-11.19a47,47,0,0,1-5.61,13.09A29.42,29.42,0,0,1,310.94,771.24Z" transform="translate(-66.63 -266.04)"/><path class="cls-1" d="M390,722.83l-13.3-113.08,14.34-8.48,7.75,73.81,9.71-83.83,11.68-6.91,9.94,72.21,7.63-82.9,14.11-8.34L438.82,694,425,702.18l-10.41-74.92-10.29,87.16Z" transform="translate(-66.63 -266.04)"/><path class="cls-1" d="M487.39,666.89q-9.94,5.9-15.85,4.59t-8.44-8.74q-2.53-7.46-2.54-19.7V597.8a93.51,93.51,0,0,1,2.54-22.48A52.48,52.48,0,0,1,471.54,557a51.92,51.92,0,0,1,15.85-14q10.17-6,16-4.84t8.44,8.37q2.6,7.2,2.6,19.44v45.39a92.92,92.92,0,0,1-2.6,22.51,55.58,55.58,0,0,1-8.44,18.73A50.64,50.64,0,0,1,487.39,666.89Zm0-16.27a16.79,16.79,0,0,0,6.3-6.12,23.71,23.71,0,0,0,2.71-8.17,62.72,62.72,0,0,0,.7-9.52V571.12a46.29,46.29,0,0,0-.7-8.7c-.46-2.41-1.37-4-2.71-4.74s-3.45-.27-6.3,1.41a16.92,16.92,0,0,0-6.13,5.94,22.44,22.44,0,0,0-2.78,8,62.12,62.12,0,0,0-.69,9.52v55.69a53.89,53.89,0,0,0,.63,8.73c.43,2.54,1.33,4.19,2.72,5S484.61,652.26,487.39,650.62Z" transform="translate(-66.63 -266.04)"/><path class="cls-1" d="M527,641.8V520.86l22.43-13.27q9.48-5.59,16-6.56t9.94,4.05q3.42,5,3.41,17.1a85.52,85.52,0,0,1-1,13.75,48.54,48.54,0,0,1-3.52,12,39.27,39.27,0,0,1-6.88,10.41l13.06,51.85-17.11,10.12L552,571.64l-7.86,4.65v55.39Zm17.12-79.4,5.31-3.15a29.36,29.36,0,0,0,7.93-6.55,22,22,0,0,0,4.22-8.46A45.17,45.17,0,0,0,562.89,533q0-9.11-2.6-12.13c-1.74-2-5-1.58-9.89,1.3l-6.24,3.69Z" transform="translate(-66.63 -266.04)"/><path class="cls-1" d="M591.68,603.57V482.64l22.08-13.07q11.44-6.76,17.87-6.53t9.13,7q2.72,6.77,2.72,19.6v44.19a92.64,92.64,0,0,1-2.72,23.48,49.43,49.43,0,0,1-9,18.32,61.47,61.47,0,0,1-17.28,14.48Zm17.11-25.5L614,575q5.89-3.5,8.44-7.68a23.09,23.09,0,0,0,3.13-9.69,127.54,127.54,0,0,0,.57-13V498.39a61.56,61.56,0,0,0-.8-11.32c-.55-2.66-1.66-4.19-3.36-4.58s-4.43.53-8.21,2.76l-5,2.94Z" transform="translate(-66.63 -266.04)"/><path class="cls-1" d="M656.08,565.49V444.55l27.52-16.28q8.45-5,13.7-4.07c3.51.61,6.09,3,7.75,7.14s2.48,9.85,2.48,17.12a64.21,64.21,0,0,1-3.12,20.88A48,48,0,0,1,695.68,485a51.68,51.68,0,0,1-13.24,11.11l-9.25,5.48v53.75Zm17.11-79.4,6.48-3.83a26,26,0,0,0,7.22-6,18.54,18.54,0,0,0,3.59-7.65,50.67,50.67,0,0,0,1-10.81,54,54,0,0,0-.75-10.23c-.5-2.44-1.58-3.81-3.24-4.13s-4.26.58-7.8,2.68L673.19,450Z" transform="translate(-66.63 -266.04)"/><path class="cls-1" d="M716.55,529.72V408.79L739,395.52q9.48-5.61,16-6.56c4.35-.63,7.67.71,9.94,4.05s3.41,9,3.41,17.09a85.64,85.64,0,0,1-1,13.76,48.34,48.34,0,0,1-3.52,12,39.36,39.36,0,0,1-6.89,10.42L770,498.13l-17.11,10.12-11.33-48.69-7.87,4.65V519.6Zm17.11-79.39,5.32-3.15a29.15,29.15,0,0,0,7.92-6.55,22,22,0,0,0,4.22-8.47,44.67,44.67,0,0,0,1.28-11.28q0-9.11-2.61-12.12t-9.88,1.29l-6.25,3.7Z" transform="translate(-66.63 -266.04)"/><path class="cls-1" d="M781.19,491.5V370.56l39.31-23.25v15.53L798.3,376v34.79l17.46-10.33v15.38L798.3,426.13v40l22.43-13.27v15.23Z" transform="translate(-66.63 -266.04)"/><path class="cls-1" d="M854.26,449.93q-8.44,5-14.11,4.08c-3.77-.6-6.63-3.07-8.55-7.4s-3-10.42-3.24-18.25L843,416a61,61,0,0,0,1.34,11.6c.73,3.15,1.84,5.25,3.35,6.31s3.48.85,5.95-.61a13.73,13.73,0,0,0,5.9-6.7,23.86,23.86,0,0,0,1.73-9.16q0-7.92-2.77-11.35a22.27,22.27,0,0,0-7.4-5.78l-11.8-6.46a19.45,19.45,0,0,1-7.92-7.64q-2.94-5-2.94-15.05A52.25,52.25,0,0,1,835,345.18,47.94,47.94,0,0,1,852.64,327q6.6-3.9,11-3.89a8.75,8.75,0,0,1,7,3.11,20.09,20.09,0,0,1,3.88,8.23,63,63,0,0,1,1.61,11.51l-14.57,11.9a68.41,68.41,0,0,0-1-9.57q-.75-4-2.66-5.44t-5.61.78a14.44,14.44,0,0,0-5.83,6.66,21.76,21.76,0,0,0-2,9.18q0,6.13,2,8.92a16.14,16.14,0,0,0,5.66,4.79l11.68,6.38a25.83,25.83,0,0,1,9.89,8.86q4.1,6,4.1,17.95a51.56,51.56,0,0,1-3,17.12,55.09,55.09,0,0,1-8.21,15.39A42.71,42.71,0,0,1,854.26,449.93Z" transform="translate(-66.63 -266.04)"/><path class="cls-1" d="M910.45,416.69q-8.43,5-14.1,4.09t-8.56-7.41q-2.89-6.5-3.24-18.24l14.69-12.42a60.37,60.37,0,0,0,1.33,11.61q1.09,4.73,3.35,6.3c1.5,1.06,3.49.85,6-.61a13.64,13.64,0,0,0,5.89-6.69,23.92,23.92,0,0,0,1.74-9.17q0-7.9-2.78-11.35a22.38,22.38,0,0,0-7.4-5.77l-11.79-6.47a19.31,19.31,0,0,1-7.92-7.63q-3-5-3-15.05A52.22,52.22,0,0,1,891.15,312a47.79,47.79,0,0,1,17.69-18.22q6.58-3.9,11-3.89a8.74,8.74,0,0,1,7,3.11,20.15,20.15,0,0,1,3.87,8.23,62,62,0,0,1,1.62,11.51l-14.57,11.9a69.78,69.78,0,0,0-1-9.57c-.51-2.69-1.39-4.5-2.66-5.44s-3.14-.68-5.61.77a14.6,14.6,0,0,0-5.84,6.67,21.75,21.75,0,0,0-2,9.18c0,4.08.65,7.06,2,8.92a16,16,0,0,0,5.67,4.78l11.68,6.39a25.8,25.8,0,0,1,9.88,8.86q4.11,6,4.11,18A51.86,51.86,0,0,1,931,390.22a55.56,55.56,0,0,1-8.21,15.38A42.6,42.6,0,0,1,910.45,416.69Z" transform="translate(-66.63 -266.04)"/><path class="cls-2" d="M548.43,728.31c-3.29,1.94-5.86,2.63-7.73,2.06s-3.17-2.07-3.9-4.52a32.82,32.82,0,0,1-1.11-9.32V695.86a50.79,50.79,0,0,1,1.11-11,25,25,0,0,1,3.9-9,24.21,24.21,0,0,1,7.73-6.93c3.1-1.84,5.53-2.59,7.28-2.27s3,1.53,3.74,3.62a24.84,24.84,0,0,1,1.11,8.14v4.86L552.69,688v-5a42.65,42.65,0,0,0-.19-4.32,3.62,3.62,0,0,0-1-2.56q-.86-.67-3,.57a7.93,7.93,0,0,0-3.07,3.07,11.7,11.7,0,0,0-1.25,4.1,41.94,41.94,0,0,0-.27,4.92V713.9a24.54,24.54,0,0,0,.39,5,2.83,2.83,0,0,0,1.41,2.25,3.27,3.27,0,0,0,2.79-.62,7.13,7.13,0,0,0,2.91-3,11.57,11.57,0,0,0,1.08-4,47.27,47.27,0,0,0,.22-4.78v-5.22l7.87-4.65v4.65a43.6,43.6,0,0,1-1,9.74,24,24,0,0,1-3.69,8.4A23,23,0,0,1,548.43,728.31Z" transform="translate(-66.63 -266.04)"/><path class="cls-2" d="M566.38,716.91V659l8.14-4.82V678.4l9.14-5.4V648.75l8.2-4.85v57.94l-8.2,4.85V680.51l-9.14,5.4v26.18Z" transform="translate(-66.63 -266.04)"/><path class="cls-2" d="M602.94,633.56l-2.44-1.93a40.46,40.46,0,0,0,2.69-3.48,5.6,5.6,0,0,0,1.08-3.11c0-.95-.31-1.45-.92-1.49a4.26,4.26,0,0,0-2.35.78,15.88,15.88,0,0,0-1.58,1.08c-.54.41-1,.83-1.53,1.26V622.3a30,30,0,0,1,5.05-3.77,8.69,8.69,0,0,1,3.24-1.23,2.57,2.57,0,0,1,2.35.75,4.81,4.81,0,0,1,.89,3.3,11.35,11.35,0,0,1-.86,4.37,17.24,17.24,0,0,1-2.33,4Q604.76,631.62,602.94,633.56Zm-4,64.08V639.71l8.09-4.79v57.94Z" transform="translate(-66.63 -266.04)"/><path class="cls-2" d="M631.91,678.15V628l-7.15,4.23v-7.8l22.38-13.23V619l-7,4.16V673.3Z" transform="translate(-66.63 -266.04)"/><path class="cls-2" d="M651.24,666.72V608.78L662,602.43a22.5,22.5,0,0,1,7.68-3.15,4.54,4.54,0,0,1,4.76,1.94q1.64,2.4,1.63,8.19a40.37,40.37,0,0,1-.5,6.59,23.17,23.17,0,0,1-1.68,5.76,19.13,19.13,0,0,1-3.3,5l6.26,24.83-8.2,4.85-5.43-23.32-3.76,2.22v26.54Zm8.2-38,2.54-1.5a14.13,14.13,0,0,0,3.8-3.14,10.69,10.69,0,0,0,2-4.06,21.24,21.24,0,0,0,.61-5.4q0-4.37-1.25-5.81c-.83-1-2.41-.76-4.73.62l-3,1.77Z" transform="translate(-66.63 -266.04)"/><path class="cls-2" d="M694.28,642.05q-4.77,2.82-7.59,2.2t-4-4.19a29.68,29.68,0,0,1-1.22-9.43V609a44.26,44.26,0,0,1,1.22-10.77,25.06,25.06,0,0,1,4-8.79,24.79,24.79,0,0,1,7.59-6.71c3.25-1.92,5.8-2.69,7.67-2.32s3.21,1.72,4,4a28.23,28.23,0,0,1,1.25,9.32v21.74A44.54,44.54,0,0,1,706,626.22a26.7,26.7,0,0,1-4,9A24.35,24.35,0,0,1,694.28,642.05Zm0-7.79a8.19,8.19,0,0,0,3-2.93,11.47,11.47,0,0,0,1.3-3.92,30.78,30.78,0,0,0,.33-4.56V596.17a22.72,22.72,0,0,0-.33-4.17,3.1,3.1,0,0,0-1.3-2.27c-.65-.35-1.66-.13-3,.68a8,8,0,0,0-2.94,2.84,10.89,10.89,0,0,0-1.33,3.83,29.81,29.81,0,0,0-.33,4.56v26.68a24.76,24.76,0,0,0,.31,4.18,3.09,3.09,0,0,0,1.3,2.38C692,635.25,693,635,694.28,634.26Z" transform="translate(-66.63 -266.04)"/><path class="cls-2" d="M713.28,630V572.09l5.7-3.37,10.92,26.59v-33l6.75-4v57.94l-5.43,3.21-11-28.14V625.9Z" transform="translate(-66.63 -266.04)"/><path class="cls-2" d="M754.71,606.31c-3,1.75-5.3,2.33-7,1.73s-3-2.16-3.74-4.69a35.25,35.25,0,0,1-1.14-9.88V574a54.26,54.26,0,0,1,1.11-11.39,25.5,25.5,0,0,1,3.9-9.21,24.19,24.19,0,0,1,7.73-7c3.07-1.81,5.5-2.58,7.31-2.32a4.9,4.9,0,0,1,3.91,3.45A23.91,23.91,0,0,1,768,556v3l-7.81,4.62v-3.29a28.08,28.08,0,0,0-.31-4.62,3,3,0,0,0-1.21-2.31c-.61-.33-1.6-.1-3,.71a7.83,7.83,0,0,0-3.13,3.21,12.63,12.63,0,0,0-1.22,4.3,49.7,49.7,0,0,0-.25,5v24.25a26.55,26.55,0,0,0,.39,5,3.45,3.45,0,0,0,1.44,2.55c.7.37,1.7.17,3-.59a8.14,8.14,0,0,0,3-3.09,13.87,13.87,0,0,0,1.47-4.45,35,35,0,0,0,.41-5.68v-5.43L756,582v-6.66l12.19-7.2v29.39l-5.26,3.12-.61-5.37a22.65,22.65,0,0,1-2.69,6.28A14,14,0,0,1,754.71,606.31Z" transform="translate(-66.63 -266.04)"/><path class="cls-2" d="M798.64,580.33c-2.85,1.69-5.14,2.3-6.87,1.85s-3-1.78-3.71-4a27.43,27.43,0,0,1-1.11-8.54,31.54,31.54,0,0,1,.36-4.83,28.48,28.48,0,0,1,1.05-4.44,26.42,26.42,0,0,1,1.69-4,22.2,22.2,0,0,1,2.27-3.53,6,6,0,0,1-3.35-2.92c-.9-1.54-1.38-3.89-1.41-7.07a32.42,32.42,0,0,1,1.19-8.89,22.49,22.49,0,0,1,3.68-7.47,21.2,21.2,0,0,1,6.21-5.49q3.76-2.24,6.2-1.81a4.8,4.8,0,0,1,3.63,3.14,18.8,18.8,0,0,1,1.14,7.49,28.22,28.22,0,0,1-1.36,8.74,28.72,28.72,0,0,1-3.3,6.81,4.33,4.33,0,0,1,2.27.84,5.85,5.85,0,0,1,1.69,2,11.41,11.41,0,0,1,1.05,3.21,22.88,22.88,0,0,1,.37,4.4,40.15,40.15,0,0,1-1.08,9.83,25.3,25.3,0,0,1-3.72,8.38A21.38,21.38,0,0,1,798.64,580.33Zm0-7.51a6.72,6.72,0,0,0,2.74-3.05,14.22,14.22,0,0,0,1.19-4.31,40.66,40.66,0,0,0,.28-4.64,25.68,25.68,0,0,0-.28-4.52,5.23,5.23,0,0,0-1.25-2.95c-.61-.59-1.5-.54-2.68.16a6.53,6.53,0,0,0-2.63,3,15.91,15.91,0,0,0-1.28,4.4,33.66,33.66,0,0,0-.36,4.93,28.37,28.37,0,0,0,.31,4.33,4.66,4.66,0,0,0,1.24,2.88C796.55,573.59,797.46,573.52,798.64,572.82Zm0-27.68a6.15,6.15,0,0,0,2.19-2.54,13.68,13.68,0,0,0,1.13-3.93,34.21,34.21,0,0,0,.33-4.92,10.85,10.85,0,0,0-.83-4.87c-.55-1.06-1.49-1.19-2.82-.4a6.62,6.62,0,0,0-2.85,3.76,17.56,17.56,0,0,0-.92,5.83,24.81,24.81,0,0,0,.36,4.55,4.38,4.38,0,0,0,1.19,2.58A1.88,1.88,0,0,0,798.64,545.14Z" transform="translate(-66.63 -266.04)"/><path class="cls-2" d="M829.6,561.24V503.3l11-6.52a24.53,24.53,0,0,1,5.4-2.48,6.58,6.58,0,0,1,4.16-.06,4.87,4.87,0,0,1,2.69,2.95,18.57,18.57,0,0,1,.94,6.67,26.07,26.07,0,0,1-.75,6.45,18.44,18.44,0,0,1-2.19,5.26,16.52,16.52,0,0,1-3.6,4.1,5.68,5.68,0,0,1,4.4-.21,5.15,5.15,0,0,1,2.61,3.22,20.37,20.37,0,0,1,.86,6.57,36.06,36.06,0,0,1-.81,7.81,27,27,0,0,1-2.38,6.7,23.62,23.62,0,0,1-3.93,5.51,25.61,25.61,0,0,1-5.51,4.33Zm8.2-39.11,2.77-1.64a13.15,13.15,0,0,0,3.76-3.16,10.06,10.06,0,0,0,1.86-4,22.78,22.78,0,0,0,.53-5.17,8.2,8.2,0,0,0-.81-4.29,2.1,2.1,0,0,0-2.41-.86,14.49,14.49,0,0,0-4.09,1.82l-1.61.95Zm0,26.82,3.1-1.84a11.59,11.59,0,0,0,5-5.3,20.41,20.41,0,0,0,1.33-8,16.73,16.73,0,0,0-.64-5.31,2.64,2.64,0,0,0-2.1-2,6.62,6.62,0,0,0-3.91,1.24l-2.82,1.67Z" transform="translate(-66.63 -266.04)"/><path class="cls-2" d="M872.75,536.5c-3.32,2-5.91,2.71-7.75,2.23s-3.12-2-3.83-4.46a37.46,37.46,0,0,1-1-9.82v-39.2l8-4.72v40.41a39.17,39.17,0,0,0,.28,4.95,4.65,4.65,0,0,0,1.3,3.1c.68.57,1.71.45,3.07-.36a7.59,7.59,0,0,0,3.13-3.31,14.81,14.81,0,0,0,1.28-4.62,45.73,45.73,0,0,0,.3-5.29V475l7.92-4.68v39.2a53.76,53.76,0,0,1-1,11.06,24.69,24.69,0,0,1-3.79,9A24.06,24.06,0,0,1,872.75,536.5Z" transform="translate(-66.63 -266.04)"/><path class="cls-2" d="M904,518q-4.75,2.82-7.58,2.2c-1.89-.42-3.24-1.81-4-4.19a30,30,0,0,1-1.22-9.44V484.93a44.76,44.76,0,0,1,1.22-10.77A24,24,0,0,1,904,458.66c3.25-1.92,5.81-2.7,7.68-2.32s3.21,1.71,4,4a28.17,28.17,0,0,1,1.25,9.31v21.75a44.4,44.4,0,0,1-1.25,10.78,26.84,26.84,0,0,1-4,9A24.39,24.39,0,0,1,904,518Zm-8.36-58.36,5-14.46,6.76-4,5.1,8.5L907,453l-3-5.45-2.93,9ZM904,510.23a8,8,0,0,0,3-2.93,11.19,11.19,0,0,0,1.3-3.92,29.29,29.29,0,0,0,.34-4.56V472.14a21.62,21.62,0,0,0-.34-4.16,3,3,0,0,0-1.3-2.27c-.64-.36-1.65-.14-3,.67a8.11,8.11,0,0,0-2.93,2.85,10.64,10.64,0,0,0-1.33,3.82,29.81,29.81,0,0,0-.33,4.56v26.68a26.06,26.06,0,0,0,.3,4.19,3.14,3.14,0,0,0,1.3,2.38C901.67,511.23,902.66,511,904,510.23Zm9.14-67.13-2.21-1.91a29.45,29.45,0,0,0,1.69-2.93,6.08,6.08,0,0,0,.63-2.67c0-.95-.24-1.52-.74-1.7a2.21,2.21,0,0,0-1.86.38,10.08,10.08,0,0,0-1.47,1.05,11.84,11.84,0,0,0-1.24,1.2v-4.36a20,20,0,0,1,2.1-2,20.22,20.22,0,0,1,2.22-1.52c1.7-1,3.12-1.31,4.26-.91s1.72,1.74,1.72,4a12.14,12.14,0,0,1-1.5,6A35.59,35.59,0,0,1,913.13,443.1Z" transform="translate(-66.63 -266.04)"/><path class="cls-2" d="M923.21,505.87V447.93l8.09-4.78v57.94Z" transform="translate(-66.63 -266.04)"/><path class="cls-2" d="M523.22,829.05c-3.28,1.94-5.86,2.63-7.72,2.07s-3.17-2.08-3.91-4.53a32.77,32.77,0,0,1-1.11-9.32V796.6a50.79,50.79,0,0,1,1.11-11,25.08,25.08,0,0,1,3.91-9,24.17,24.17,0,0,1,7.72-6.93c3.11-1.83,5.53-2.59,7.29-2.27s3,1.53,3.74,3.62a24.87,24.87,0,0,1,1.1,8.14V784l-7.86,4.65v-5c0-1.62-.07-3.06-.19-4.32a3.62,3.62,0,0,0-1.06-2.56c-.57-.45-1.56-.26-3,.57a8,8,0,0,0-3.08,3.07,11.76,11.76,0,0,0-1.24,4.1,39.8,39.8,0,0,0-.28,4.92v25.18a24.72,24.72,0,0,0,.39,5,2.88,2.88,0,0,0,1.41,2.24,3.29,3.29,0,0,0,2.8-.62,7.19,7.19,0,0,0,2.91-3,11.74,11.74,0,0,0,1.08-4,47.27,47.27,0,0,0,.22-4.78v-5.22l7.86-4.65v4.65A43.6,43.6,0,0,1,534.3,814a24.17,24.17,0,0,1-3.68,8.4A23.09,23.09,0,0,1,523.22,829.05Z" transform="translate(-66.63 -266.04)"/><path class="cls-2" d="M538.79,819.06l9-63.25,8.75-5.18,9,52.64-7.59,4.48-1.77-12.32-7.81,4.62-1.83,14.45Zm10.36-26.23,6.09-3.6-3-22.52Z" transform="translate(-66.63 -266.04)"/><path class="cls-2" d="M569.86,800.68l.78-58.4,8.47-5,6.37,36.36,6.65-44.06,8.2-4.85.83,57.45-6.09,3.6-.67-39.87-6.37,44-4.93,2.92-6.48-36.58L576,797Z" transform="translate(-66.63 -266.04)"/><path class="cls-2" d="M620.94,770.47V712.54l8.19-4.85v25.46l8.87-30.7,7.81-4.62-8.59,31,9.47,26.44-8.14,4.82L631,738.12l-1.89,5.55v22Z" transform="translate(-66.63 -266.04)"/><path class="cls-2" d="M649.91,753.34V695.4l18.83-11.14v7.44L658.11,698v16.67l8.36-4.95v7.37L658.11,722V741.2l10.74-6.36v7.3Zm1.16-63.2,5-14.47,6.75-4,5.1,8.5-5.48,3.24-3-5.46-2.94,9Zm15.68-17.21,2.93-10.32,6-3.54L671,670.44Z" transform="translate(-66.63 -266.04)"/><path class="cls-2" d="M678.1,736.67V686.53L671,690.75V683l22.38-13.23v7.8l-7,4.16v50.14Z" transform="translate(-66.63 -266.04)"/><path class="cls-2" d="M722.19,711.38c-2.69,1.59-4.94,2.25-6.75,2a5.43,5.43,0,0,1-4.1-3.55,23.73,23.73,0,0,1-1.55-8.74l7-5.95a29.08,29.08,0,0,0,.64,5.56,4.9,4.9,0,0,0,1.6,3c.73.5,1.67.41,2.86-.29a6.55,6.55,0,0,0,2.82-3.21,11.36,11.36,0,0,0,.83-4.39q0-3.79-1.33-5.44a10.66,10.66,0,0,0-3.54-2.77l-5.65-3.09a9.35,9.35,0,0,1-3.8-3.66c-.94-1.61-1.41-4-1.41-7.21a25.1,25.1,0,0,1,3.1-12.42,23,23,0,0,1,8.48-8.73,10.83,10.83,0,0,1,5.26-1.86,4.18,4.18,0,0,1,3.35,1.48,9.75,9.75,0,0,1,1.86,3.95,30.24,30.24,0,0,1,.77,5.51l-7,5.7a32.41,32.41,0,0,0-.47-4.58,4.05,4.05,0,0,0-1.27-2.61c-.61-.45-1.51-.33-2.69.37a6.91,6.91,0,0,0-2.79,3.2,10.33,10.33,0,0,0-1,4.4,7.54,7.54,0,0,0,.94,4.27,7.66,7.66,0,0,0,2.71,2.29l5.6,3.06a12.36,12.36,0,0,1,4.73,4.24q2,2.88,2,8.6A24.87,24.87,0,0,1,732,698.7a26.58,26.58,0,0,1-3.94,7.36A20.24,20.24,0,0,1,722.19,711.38Z" transform="translate(-66.63 -266.04)"/><path class="cls-2" d="M735.77,702.56l9-63.24,8.75-5.18,9,52.63-7.59,4.49-1.78-12.32-7.81,4.61L743.46,698Zm13.35-69.62L746.68,631a38.29,38.29,0,0,0,2.68-3.48,5.62,5.62,0,0,0,1.08-3.11c0-.95-.3-1.45-.91-1.5a4.43,4.43,0,0,0-2.35.78,15.88,15.88,0,0,0-1.58,1.08c-.54.42-1.05.83-1.52,1.26v-4.36a29,29,0,0,1,5-3.77,8.73,8.73,0,0,1,3.24-1.24,2.6,2.6,0,0,1,2.35.76,4.79,4.79,0,0,1,.89,3.3,11.39,11.39,0,0,1-.86,4.37,17.24,17.24,0,0,1-2.33,4Q750.94,631,749.12,632.94Zm-3,43.4,6.1-3.6-3.05-22.52Z" transform="translate(-66.63 -266.04)"/><path class="cls-2" d="M766.73,684.25V626.31l5.71-3.37,10.91,26.59v-33l6.76-4v57.94l-5.43,3.21-11-28.14v34.63Z" transform="translate(-66.63 -266.04)"/><path class="cls-2" d="M810.38,658.44V600.5l13.18-7.8q4.05-2.38,6.57-2a5,5,0,0,1,3.71,3.42,22.83,22.83,0,0,1,1.19,8.2,30.67,30.67,0,0,1-1.5,10,22.82,22.82,0,0,1-4.18,7.51,24.73,24.73,0,0,1-6.34,5.33l-4.43,2.62v25.75Zm8.2-38,3.1-1.83a12.56,12.56,0,0,0,3.46-2.87,9,9,0,0,0,1.72-3.67,24.31,24.31,0,0,0,.47-5.17A25.91,25.91,0,0,0,827,602c-.24-1.16-.76-1.82-1.55-2s-2,.28-3.74,1.29l-3.1,1.83Z" transform="translate(-66.63 -266.04)"/><path class="cls-2" d="M839.46,641.24V583.3l8.14-4.81v24.24l9.14-5.4V573.08l8.2-4.85v57.94l-8.2,4.85V604.84l-9.14,5.4v26.18Z" transform="translate(-66.63 -266.04)"/><path class="cls-2" d="M869.54,623.45l9-63.24,8.75-5.18,9,52.63-7.59,4.49-1.77-12.33-7.81,4.62-1.83,14.46ZM874.47,558l5-14.47,6.76-4,5.1,8.5-5.48,3.24-3-5.45-2.93,9Zm5.43,39.21,6.09-3.61-3-22.52ZM892,541.45l-2.21-1.91a29.45,29.45,0,0,0,1.69-2.93,6.08,6.08,0,0,0,.63-2.67c0-1-.25-1.52-.74-1.7a2.18,2.18,0,0,0-1.86.38,10.08,10.08,0,0,0-1.47,1,11.84,11.84,0,0,0-1.24,1.2V530.5a20.91,20.91,0,0,1,2.1-2,20.22,20.22,0,0,1,2.22-1.52c1.7-1,3.12-1.31,4.26-.91s1.72,1.74,1.72,4a12.14,12.14,0,0,1-1.5,6A35.59,35.59,0,0,1,892,541.45Z" transform="translate(-66.63 -266.04)"/><path class="cls-2" d="M900.61,605.07l.78-58.39,8.47-5L916.24,578,922.88,534l8.2-4.85.83,57.44-6.09,3.61-.67-39.88-6.37,44-4.93,2.91-6.48-36.58-.61,40.78Z" transform="translate(-66.63 -266.04)"/></svg>