<svg id="Layer_4" data-name="Layer 4" xmlns="http://www.w3.org/2000/svg" viewBox="0 0 361.88 250.78"><defs><style>.cls-1{fill:#fff;}</style></defs><title>info</title><path class="cls-1" d="M686,597.4v-35l-5,3v-5.45l15.64-9.25v5.45l-4.92,2.9v35Z" transform="translate(-680.99 -346.62)"/><path class="cls-1" d="M699.5,589.41v-40.5l7.51-4.44a15.72,15.72,0,0,1,5.36-2.2,3.16,3.16,0,0,1,3.33,1.36c.76,1.12,1.14,3,1.14,5.72a29.2,29.2,0,0,1-.34,4.61,16.18,16.18,0,0,1-1.19,4,13,13,0,0,1-2.3,3.49l4.38,17.36-5.74,3.39-3.79-16.3-2.63,1.55V586Zm5.73-26.59,1.78-1.05a10,10,0,0,0,2.65-2.19,7.36,7.36,0,0,0,1.41-2.84,14.67,14.67,0,0,0,.43-3.78c0-2-.29-3.38-.87-4.06s-1.69-.53-3.31.44l-2.09,1.23Z" transform="translate(-680.99 -346.62)"/><path class="cls-1" d="M729.7,572.1q-3.48,2.05-5.42,1.56t-2.67-3.12a26.19,26.19,0,0,1-.74-6.87v-27.4l5.58-3.3v28.25a28.07,28.07,0,0,0,.19,3.46,3.26,3.26,0,0,0,.91,2.17c.48.4,1.19.32,2.15-.25a5.42,5.42,0,0,0,2.19-2.32,10.5,10.5,0,0,0,.89-3.23,31.74,31.74,0,0,0,.21-3.7V529.1l5.54-3.27v27.4a37.5,37.5,0,0,1-.74,7.73,17.06,17.06,0,0,1-2.65,6.27A16.86,16.86,0,0,1,729.7,572.1Zm-2.4,10.52v-6.3l4.8-2.84v6.3ZM735,531v-3l.39-.23a3.66,3.66,0,0,0,1.63-2,9.76,9.76,0,0,0,.46-3.28l3.84-2.27a12.07,12.07,0,0,1-1.59,6.22,11.85,11.85,0,0,1-4.3,4.31Z" transform="translate(-680.99 -346.62)"/><path class="cls-1" d="M751.46,559.23q-3.45,2-5.4,1.45a4.23,4.23,0,0,1-2.73-3.16,22.92,22.92,0,0,1-.78-6.52V536.55a35.29,35.29,0,0,1,.78-7.66,17.28,17.28,0,0,1,2.73-6.31,16.93,16.93,0,0,1,5.4-4.85q3.25-1.92,5.09-1.59a3.45,3.45,0,0,1,2.62,2.53,17.66,17.66,0,0,1,.77,5.7v3.4l-5.5,3.25v-3.5a30,30,0,0,0-.13-3,2.56,2.56,0,0,0-.74-1.79c-.4-.32-1.09-.18-2.07.4a5.52,5.52,0,0,0-2.15,2.14,8.23,8.23,0,0,0-.87,2.87,28.33,28.33,0,0,0-.2,3.44v17.6a17.18,17.18,0,0,0,.28,3.46c.18.85.5,1.37,1,1.57a2.29,2.29,0,0,0,2-.43,5,5,0,0,0,2-2.08,8.26,8.26,0,0,0,.76-2.77c.1-1,.15-2.14.15-3.34v-3.65l5.5-3.25v3.25a30.44,30.44,0,0,1-.74,6.81,17,17,0,0,1-2.57,5.87A16,16,0,0,1,751.46,559.23Z" transform="translate(-680.99 -346.62)"/><path class="cls-1" d="M776.47,543.89V508.84l-5,3v-5.45l15.64-9.25v5.45l-4.92,2.91V540.5Z" transform="translate(-680.99 -346.62)"/><path class="cls-1" d="M798.58,531.36q-3.48,2.07-5.42,1.56t-2.67-3.12a26.09,26.09,0,0,1-.74-6.87v-27.4l5.58-3.29v28.25a28.18,28.18,0,0,0,.19,3.46,3.3,3.3,0,0,0,.91,2.16c.48.4,1.2.32,2.15-.25a5.25,5.25,0,0,0,2.19-2.32,10.24,10.24,0,0,0,.89-3.22,32,32,0,0,0,.21-3.7V488.37l5.54-3.28v27.4a36.92,36.92,0,0,1-.74,7.74A17.2,17.2,0,0,1,804,526.5,17,17,0,0,1,798.58,531.36Z" transform="translate(-680.99 -346.62)"/><path class="cls-1" d="M816.28,520.35V504.9l-6.35-21.3,5.34-3.16,3.87,13.76,3.64-18.2,5.23-3.09-6.27,28.76v15.45Z" transform="translate(-680.99 -346.62)"/><path class="cls-1" d="M830.6,511.88v-40.5l13.17-7.79v5.2l-7.44,4.4v11.65l5.85-3.46v5.15L836.33,490v13.4l7.52-4.45V504Zm.82-44.19,3.48-10.11,4.73-2.79,3.56,5.94L839.36,463l-2.1-3.81-2,6.26Zm11-12,2-7.21,4.18-2.47-3.29,7.94Z" transform="translate(-680.99 -346.62)"/><path class="cls-1" d="M847.18,502.07v-40.5l4-2.36,7.63,18.59V454.7l4.73-2.79v40.5l-3.8,2.24L852.05,475v24.2Z" transform="translate(-680.99 -346.62)"/><path class="cls-1" d="M880.82,482.17v-35l-5,2.95v-5.45l15.64-9.25v5.45l-4.91,2.91v35.05Z" transform="translate(-680.99 -346.62)"/><path class="cls-1" d="M902.93,469.65q-3.48,2.06-5.42,1.56t-2.67-3.12a26.25,26.25,0,0,1-.73-6.87v-27.4l5.57-3.3v28.25a30.18,30.18,0,0,0,.19,3.46,3.31,3.31,0,0,0,.92,2.17c.47.4,1.19.31,2.14-.25a5.36,5.36,0,0,0,2.19-2.32,10.22,10.22,0,0,0,.89-3.23,31.84,31.84,0,0,0,.22-3.7V426.65l5.53-3.27v27.4a37.53,37.53,0,0,1-.73,7.73,17.23,17.23,0,0,1-2.65,6.27A16.9,16.9,0,0,1,902.93,469.65Zm5.27-41.11v-3.05l.39-.23a3.71,3.71,0,0,0,1.62-2,9.64,9.64,0,0,0,.47-3.27l3.83-2.27a12.07,12.07,0,0,1-1.59,6.22,11.9,11.9,0,0,1-4.29,4.31Z" transform="translate(-680.99 -346.62)"/><path class="cls-1" d="M924.77,456.73c-2.22,1.32-4,1.83-5.3,1.54a4,4,0,0,1-2.83-2.93,20.83,20.83,0,0,1-.85-6.59V433.6a31,31,0,0,1,.85-7.53,16.8,16.8,0,0,1,8.13-10.84q3.4-2,5.37-1.62a3.88,3.88,0,0,1,2.82,2.81,19.64,19.64,0,0,1,.87,6.5v15.21a31.13,31.13,0,0,1-.87,7.54,18.79,18.79,0,0,1-2.82,6.27A17.09,17.09,0,0,1,924.77,456.73Zm0-5.45a5.53,5.53,0,0,0,2.11-2,7.91,7.91,0,0,0,.91-2.74,20.73,20.73,0,0,0,.24-3.19V424.66a15.24,15.24,0,0,0-.24-2.91,2.14,2.14,0,0,0-.91-1.59c-.45-.25-1.15-.09-2.11.47a5.76,5.76,0,0,0-2,2,7.75,7.75,0,0,0-.93,2.68,21.23,21.23,0,0,0-.23,3.18v18.65a18.22,18.22,0,0,0,.21,2.93,2.18,2.18,0,0,0,.91,1.66C923.15,452,923.84,451.83,924.77,451.28Zm1.86-33.65v-3.05l.78-.45a3.69,3.69,0,0,0,1.62-2,9.74,9.74,0,0,0,.47-3.28l3.83-2.27a12.07,12.07,0,0,1-1.59,6.22,11.85,11.85,0,0,1-4.3,4.31Z" transform="translate(-680.99 -346.62)"/><path class="cls-1" d="M938.05,448.33v-40.5l4-2.36,7.63,18.59V401l4.72-2.79v40.5l-3.79,2.24-7.67-19.67v24.2Z" transform="translate(-680.99 -346.62)"/><path class="cls-1" d="M967,431.75c-2.07,1.22-3.71,1.63-4.92,1.21s-2.09-1.51-2.61-3.28a24.64,24.64,0,0,1-.8-6.9V409.17a38.36,38.36,0,0,1,.77-7.95,17.71,17.71,0,0,1,2.74-6.44,16.75,16.75,0,0,1,5.4-4.87q3.21-1.91,5.11-1.62a3.41,3.41,0,0,1,2.73,2.41,16.77,16.77,0,0,1,.83,5.88v2.1l-5.46,3.23v-2.3a20.49,20.49,0,0,0-.21-3.23,2.13,2.13,0,0,0-.85-1.62c-.43-.23-1.12-.06-2.08.5a5.52,5.52,0,0,0-2.18,2.25,8.78,8.78,0,0,0-.86,3c-.11,1.1-.17,2.27-.17,3.5V421a18.72,18.72,0,0,0,.27,3.49,2.39,2.39,0,0,0,1,1.78c.49.26,1.19.12,2.09-.41a5.66,5.66,0,0,0,2.13-2.16,9.73,9.73,0,0,0,1-3.11,25,25,0,0,0,.29-4v-3.8l-3.37,2v-4.64l8.52-5v20.55l-3.68,2.17-.43-3.75a15.74,15.74,0,0,1-1.88,4.39A9.84,9.84,0,0,1,967,431.75Z" transform="translate(-680.99 -346.62)"/><path class="cls-1" d="M993.35,415.63V380.58l-5,2.95v-5.45l15.64-9.25v5.45l-4.91,2.91v35.05Z" transform="translate(-680.99 -346.62)"/><path class="cls-1" d="M1004.5,409l6.27-44.21,6.12-3.62,6.27,36.79-5.3,3.13-1.24-8.61-5.46,3.23-1.28,10.1Zm7.24-18.34,4.26-2.52-2.13-15.74Zm.5-29.54,2.36-11.4,5.31-3.14-4.61,12.73Z" transform="translate(-680.99 -346.62)"/><path class="cls-1" d="M1034.39,391.91q-3.45,2-5.4,1.44a4.21,4.21,0,0,1-2.73-3.16,22.83,22.83,0,0,1-.78-6.52V369.22a35.2,35.2,0,0,1,.78-7.65,17.33,17.33,0,0,1,2.73-6.32,16.91,16.91,0,0,1,5.4-4.84c2.17-1.29,3.87-1.81,5.09-1.59a3.44,3.44,0,0,1,2.62,2.53,17.6,17.6,0,0,1,.77,5.69v3.4l-5.5,3.25v-3.5a30.16,30.16,0,0,0-.13-3,2.54,2.54,0,0,0-.74-1.79c-.4-.31-1.09-.18-2.07.4a5.54,5.54,0,0,0-2.15,2.15,8.24,8.24,0,0,0-.87,2.86,28.42,28.42,0,0,0-.19,3.44v17.6a17.42,17.42,0,0,0,.27,3.47,2,2,0,0,0,1,1.57,2.3,2.3,0,0,0,2-.44,5,5,0,0,0,2-2.07,8.32,8.32,0,0,0,.76-2.78c.1-1,.15-2.14.15-3.34v-3.65l5.5-3.25v3.25a30.44,30.44,0,0,1-.74,6.81,16.72,16.72,0,0,1-2.57,5.87A16.18,16.18,0,0,1,1034.39,391.91Z" transform="translate(-680.99 -346.62)"/><path class="cls-1" d="M884,540.3V499.8l5.69-3.37v16.95l6.39-3.78v-17l5.73-3.39v40.5l-5.73,3.39v-18.3l-6.39,3.78v18.3Z" transform="translate(-680.99 -346.62)"/><path class="cls-1" d="M915.13,522.44q-3.33,2-5.3,1.53A3.93,3.93,0,0,1,907,521a20.83,20.83,0,0,1-.85-6.59V499.3a31.16,31.16,0,0,1,.85-7.53,17.57,17.57,0,0,1,2.83-6.15,17.21,17.21,0,0,1,5.3-4.68q3.4-2,5.37-1.63a3.88,3.88,0,0,1,2.82,2.81,19.66,19.66,0,0,1,.87,6.51v15.2a31.13,31.13,0,0,1-.87,7.54,18.7,18.7,0,0,1-2.82,6.27A17.24,17.24,0,0,1,915.13,522.44Zm3.1-56.49a2.76,2.76,0,0,1-1.86.48l-1.55-.29a2.23,2.23,0,0,0-1.55.34,2.45,2.45,0,0,0-1.06,1.16,4.47,4.47,0,0,0-.29,1.7l-2.71,1.6a18.48,18.48,0,0,1,.29-3.4,8.63,8.63,0,0,1,1-2.85,5.5,5.5,0,0,1,2-2,2.65,2.65,0,0,1,1.74-.45l1.53.24a2.48,2.48,0,0,0,2.52-1.41,4.31,4.31,0,0,0,.29-1.67l2.55-1.51a25.08,25.08,0,0,1-.19,3.11,9.39,9.39,0,0,1-.83,2.89A4.69,4.69,0,0,1,918.23,466Zm-8.94,15.69,3.48-10.11,4.72-2.79,3.57,5.94L917.22,477l-2.09-3.82-2,6.27ZM915.13,517a5.53,5.53,0,0,0,2.11-2,7.91,7.91,0,0,0,.91-2.74,20.74,20.74,0,0,0,.23-3.19V490.36a15.32,15.32,0,0,0-.23-2.91,2.14,2.14,0,0,0-.91-1.59c-.45-.25-1.15-.09-2.11.48a5.58,5.58,0,0,0-2,2,7.82,7.82,0,0,0-.93,2.68,21.27,21.27,0,0,0-.23,3.19v18.65a18.09,18.09,0,0,0,.21,2.92,2.18,2.18,0,0,0,.91,1.66C913.51,517.68,914.2,517.53,915.13,517Z" transform="translate(-680.99 -346.62)"/><path class="cls-1" d="M941,506.61V471.56l-5,3v-5.45l15.65-9.26v5.45l-4.92,2.91v35.05Z" transform="translate(-680.99 -346.62)"/><path class="cls-1" d="M954.47,498.62v-40.5l7.51-4.44a15.63,15.63,0,0,1,5.37-2.2,3.18,3.18,0,0,1,3.33,1.36q1.14,1.67,1.14,5.72a29.16,29.16,0,0,1-.35,4.61,16.16,16.16,0,0,1-1.18,4,13.19,13.19,0,0,1-2.3,3.49L972.36,488l-5.73,3.39-3.8-16.31-2.63,1.56v18.55ZM960.2,472l1.78-1a9.92,9.92,0,0,0,2.66-2.2,7.53,7.53,0,0,0,1.41-2.83,15.21,15.21,0,0,0,.42-3.78c0-2-.29-3.38-.87-4.06s-1.68-.53-3.31.43l-2.09,1.24Z" transform="translate(-680.99 -346.62)"/><path class="cls-1" d="M984.56,481.38q-3.33,2-5.31,1.54a4,4,0,0,1-2.82-2.93,20.91,20.91,0,0,1-.86-6.6V458.24a31.14,31.14,0,0,1,.86-7.53,17.63,17.63,0,0,1,2.82-6.15,17.37,17.37,0,0,1,5.31-4.68q3.41-2,5.36-1.62a3.86,3.86,0,0,1,2.83,2.8,19.74,19.74,0,0,1,.87,6.51v15.2a31.13,31.13,0,0,1-.87,7.54,18.63,18.63,0,0,1-2.83,6.27A17,17,0,0,1,984.56,481.38Zm0-5.45a5.7,5.7,0,0,0,2.11-2.05,8,8,0,0,0,.91-2.74,22,22,0,0,0,.23-3.19V449.3a16.19,16.19,0,0,0-.23-2.91,2.17,2.17,0,0,0-.91-1.59c-.45-.24-1.16-.09-2.11.48a5.56,5.56,0,0,0-2.06,2,7.48,7.48,0,0,0-.92,2.67,20.07,20.07,0,0,0-.24,3.19v18.65a17,17,0,0,0,.22,2.92,2.14,2.14,0,0,0,.91,1.66C982.93,476.62,983.63,476.48,984.56,475.93Zm-2.36,15.95v-6.31l4.8-2.84V489Zm4.22-49.6v-3l.77-.46a3.71,3.71,0,0,0,1.63-2,9.72,9.72,0,0,0,.46-3.28l3.84-2.26a12.16,12.16,0,0,1-1.59,6.21,12,12,0,0,1-4.3,4.32Z" transform="translate(-680.99 -346.62)"/><path class="cls-1" d="M1010.73,465.35V432.5c-.15.19-.46.52-.91,1s-1,.95-1.49,1.45l-1.49,1.41c-.45.43-.77.75-1,1v-5.15c.36-.38.82-.88,1.36-1.5s1.11-1.3,1.72-2.05,1.17-1.5,1.7-2.28a18.52,18.52,0,0,0,1.3-2.21l4.11-2.43v40.5Z" transform="translate(-680.99 -346.62)"/><path class="cls-1" d="M1022.54,437.71V431l5-3v6.7Zm0,16.9v-6.7l5-3v6.7Z" transform="translate(-680.99 -346.62)"/><path class="cls-1" d="M1035.17,450.9V418.05c-.16.19-.46.52-.92,1s-.94.95-1.49,1.45l-1.49,1.41a12.54,12.54,0,0,0-.94,1v-5.15q.54-.57,1.35-1.5c.54-.62,1.12-1.3,1.72-2s1.18-1.5,1.71-2.28a17.12,17.12,0,0,0,1.29-2.21l4.11-2.43v40.5Z" transform="translate(-680.99 -346.62)"/></svg>