<?xml version="1.0" encoding="utf-8"?>
<!-- Generator: Adobe Illustrator 23.0.5, SVG Export Plug-In . SVG Version: 6.00 Build 0)  -->
<svg version="1.1" id="Layer_1" xmlns="http://www.w3.org/2000/svg" xmlns:xlink="http://www.w3.org/1999/xlink" x="0px" y="0px"
	 viewBox="0 0 512 512" style="enable-background:new 0 0 512 512;" xml:space="preserve">
<style type="text/css">
	.st0{fill:#Ff9a00;}
</style>
<path class="st0" d="M433.6,74.4C385.6,26.4,321.8,0,254,0C186.2,0,122.4,26.4,74.4,74.4S0,186.2,0,254
	c0,67.8,26.4,131.6,74.4,179.6S186.2,508,254,508c67.8,0,131.6-26.4,179.6-74.4S508,321.8,508,254C508,186.2,481.6,122.4,433.6,74.4
	z M127.3,438.9C138,377.8,191,332.6,254,332.6c63,0,116,45.1,126.7,106.3c-36.1,24.8-79.7,39.3-126.7,39.3S163.4,463.7,127.3,438.9z
	 M173.2,222.1c0-44.5,36.2-80.8,80.8-80.8s80.8,36.2,80.8,80.8s-36.2,80.8-80.8,80.8S173.2,266.7,173.2,222.1z M406.4,418.3
	c-8-28.5-23.9-54.3-46.2-74.5c-13.7-12.4-29.3-22.2-46-29c30.3-19.7,50.3-53.9,50.3-92.6c0-60.9-49.6-110.5-110.5-110.5
	s-110.5,49.6-110.5,110.5c0,38.7,20,72.9,50.3,92.6c-16.7,6.9-32.3,16.7-46,29c-22.3,20.2-38.2,46-46.2,74.5
	c-44.1-41-71.8-99.5-71.8-164.3C29.8,130.4,130.4,29.8,254,29.8S478.2,130.4,478.2,254C478.2,318.8,450.6,377.3,406.4,418.3z"/>
</svg>
