<?xml version="1.0" encoding="utf-8"?>
<!-- Generator: Adobe Illustrator 23.0.5, SVG Export Plug-In . SVG Version: 6.00 Build 0)  -->
<svg version="1.1" id="Capa_1" xmlns="http://www.w3.org/2000/svg" xmlns:xlink="http://www.w3.org/1999/xlink" x="0px" y="0px"
	 viewBox="0 0 512 512" style="enable-background:new 0 0 512 512;" xml:space="preserve">
<style type="text/css">
	.st0{fill:#Ff9a00;}
</style>
<g>
	<g>
		<path class="st0" d="M453.4,116.3c7.1-14.6,12-29.7,12-43.8c0-40-32.5-72.5-72.5-72.5c-25.9,0-48.6,13.6-61.5,34.1
			c-14.1-4.1-28.6-7-43.2-8.5c-4.2-0.4-7.9,2.6-8.3,6.8c-0.4,4.2,2.6,7.9,6.8,8.3c12.8,1.3,25.6,3.7,38,7.2
			c-2.8,7.7-4.3,15.9-4.3,24.5c0,51.2,64.4,116.2,67.1,118.9c2.9,2.9,7.8,2.9,10.8,0c1.7-1.7,28-28.3,47.2-60.5
			c15.6,20.9,27.4,43.8,35,68.1l-110.3,11.6c-2,0.2-3.8,1.2-5,2.7c-1.1,1.4-28.1,33.8-41.9,54.6c-15.6,1-29.9,7-41.3,16.5l-1.4-8.6
			l-9.8-58.5c-0.3-1.8-1.2-3.4-2.6-4.6l-58.8-49.3c-1.1-0.9-2.5-1.5-3.9-1.7l-60.3-7.5c-7.4-21.2-24.4-37.9-45.7-44.9
			c40.5-42.1,94.5-66.6,153-69.3c4.2-0.2,7.4-3.8,7.2-7.9c-0.2-4.2-3.8-7.5-7.9-7.2c-33,1.5-64.8,9.6-94.4,24
			c-28.7,13.9-54.1,33.1-75.4,57.1c-1.7-0.1-3.5-0.2-5.2-0.2c-40,0-72.5,32.5-72.5,72.5c0,18.1,8,37.8,18.5,56
			c-1.5,10.9-2.3,22.1-2.3,33.3c0,64.9,25.3,125.8,71.1,171.7c45.9,45.9,106.8,71.1,171.7,71.1c64.9,0,125.8-25.3,171.7-71.1
			C480.7,393,506,332,506,267.2C506,211.7,487.8,159.6,453.4,116.3z M392.9,175c-15.2-16.5-57.3-65.5-57.3-102.5
			c0-31.6,25.7-57.3,57.3-57.3s57.3,25.7,57.3,57.3C450.2,109.5,408.1,158.5,392.9,175z M328,282.9c31.6,0,57.3,25.7,57.3,57.3
			c0,37-42.1,86-57.3,102.5c-15.2-16.5-57.3-65.5-57.3-102.5C270.7,308.6,296.4,282.9,328,282.9z M19.3,177.9
			c0-31.6,25.7-57.3,57.3-57.3s57.3,25.7,57.3,57.3c0,37-42.1,86-57.3,102.5C61.4,264,19.3,215,19.3,177.9z M35.5,267.2
			c0-4.2,0.1-8.4,0.4-12.6c16.7,23.5,33.9,41,35.3,42.3c2.9,2.9,7.8,2.9,10.8,0c1.4-1.4,19.7-19.8,36.8-44.4l29.7,66.7
			c0.6,1.4,1.7,2.6,3,3.4l43.8,26.3l-19.7,59.6l-50.9,39.1C70.5,406,35.5,340.6,35.5,267.2z M137.5,456.9l49.1-37.7
			c1.2-0.9,2.1-2.2,2.6-3.7l22.3-67.6c1.1-3.4-0.3-7.1-3.3-8.9l-46.9-28.2l-32.7-73.6c11.4-19.1,20.5-40.2,20.5-59.4
			c0-2.7-0.2-5.4-0.5-8.1l52.6,6.6l54.9,46.1l9.3,55.7l3.4,20.2c-8.3,11.8-13.3,26.2-13.3,41.7c0,10.1,2.5,20.8,6.6,31.3l-21.4,60.8
			L168,473.9C157.4,469,147.2,463.3,137.5,456.9z M263.1,494.8c-27.1,0-53.2-4.8-77.3-13.5l64.9-37.2c1.6-0.9,2.8-2.4,3.4-4.1
			l17.2-48.8c19.2,35.5,49.5,66,51.4,67.9c2.9,2.9,7.8,2.9,10.8,0c2.1-2.1,41.7-42,59-83.8l62.2,14.8
			C414.1,453,343.4,494.8,263.1,494.8z M397.5,360.9c1.9-7,3.1-14,3.1-20.7c0-35.6-25.7-65.2-59.5-71.3
			c11.7-16.3,28.2-36.6,33.9-43.5l109.7-11.5c4.1,17.2,6.2,35.1,6.2,53.3c0,39.6-10.2,76.8-28,109.3L397.5,360.9z"/>
	</g>
</g>
<g>
	<g>
		<path class="st0" d="M328,300.1c-22.1,0-40,18-40,40c0,22.1,18,40,40,40c22.1,0,40-18,40-40C368.1,318.1,350.1,300.1,328,300.1z
			 M328,365c-13.7,0-24.8-11.1-24.8-24.8s11.1-24.8,24.8-24.8c13.7,0,24.8,11.1,24.8,24.8S341.7,365,328,365z"/>
	</g>
</g>
<g>
	<g>
		<path class="st0" d="M392.9,32.4c-22.1,0-40,18-40,40s18,40,40,40s40-18,40-40S415,32.4,392.9,32.4z M392.9,97.3
			c-13.7,0-24.8-11.1-24.8-24.8c0-13.7,11.1-24.8,24.8-24.8c13.7,0,24.8,11.1,24.8,24.8C417.7,86.2,406.6,97.3,392.9,97.3z"/>
	</g>
</g>
<g>
	<g>
		<path class="st0" d="M76.6,137.9c-22.1,0-40,18-40,40s18,40,40,40s40-18,40-40S98.7,137.9,76.6,137.9z M76.6,202.8
			c-13.7,0-24.8-11.1-24.8-24.8c0-13.7,11.1-24.8,24.8-24.8c13.7,0,24.8,11.1,24.8,24.8C101.4,191.6,90.3,202.8,76.6,202.8z"/>
	</g>
</g>
</svg>
