<svg xmlns="http://www.w3.org/2000/svg" viewBox="0 0 825.64 591.85"><defs><style>.cls-1{fill:#ffd83b;}.cls-2{fill:#fff;}</style></defs><title>banner</title><g id="Layer_3" data-name="Layer 3"><path class="cls-1" d="M218,597.47V476.53l17.11-10.12V572.12l22.66-13.41v15.23Z" transform="translate(-216.61 -176.63)"/><path class="cls-1" d="M261.94,571.48l18.73-132,18.27-10.81,18.73,109.86-15.84,9.37-3.7-25.73-16.31,9.64L278,562ZM272.23,434.9l10.4-30.19,14.11-8.34,10.64,17.74-11.45,6.77-6.24-11.38-6.13,18.7Zm10.4,153.16V569.25L297,560.77v18.81Zm.93-71.32,12.72-7.52-6.36-47Z" transform="translate(-216.61 -176.63)"/><path class="cls-1" d="M326.57,533.26V412.32L354.09,396q8.43-5,13.7-4.07t7.75,7.14q2.47,6.22,2.48,17.12a64.17,64.17,0,0,1-3.12,20.88,48,48,0,0,1-8.73,15.69,51.92,51.92,0,0,1-13.24,11.12l-9.25,5.47v53.75Zm17.11-79.4,6.48-3.83a26,26,0,0,0,7.22-6A18.56,18.56,0,0,0,361,436.4a50.8,50.8,0,0,0,1-10.81,53.83,53.83,0,0,0-.75-10.23q-.75-3.66-3.24-4.14t-7.8,2.68l-6.48,3.83Z" transform="translate(-216.61 -176.63)"/><path class="cls-1" d="M424.5,475.34V370.68l-14.91,8.82V363.22L456.3,335.6v16.27l-14.68,8.69V465.22Z" transform="translate(-216.61 -176.63)"/><path class="cls-1" d="M464.86,451.47V330.54l22.43-13.27q9.48-5.61,16-6.56t9.95,4.05q3.4,5,3.41,17.09a86.72,86.72,0,0,1-1,13.76,48.35,48.35,0,0,1-3.53,12A39.32,39.32,0,0,1,505.21,368l13.07,51.84L501.16,430l-11.33-48.69L482,386v55.39ZM482,372.08l5.32-3.15a29.46,29.46,0,0,0,7.92-6.55,22.14,22.14,0,0,0,4.22-8.47,44.65,44.65,0,0,0,1.27-11.28q0-9.11-2.6-12.12t-9.89,1.29L482,335.5Z" transform="translate(-216.61 -176.63)"/><path class="cls-1" d="M534,281.28l-13.76-21.72,16-9.44L543,276ZM530,413V292l16.88-10V403Z" transform="translate(-216.61 -176.63)"/><path class="cls-1" d="M561.29,394.45V273.51l11.91-7L596,322V253l14.11-8.34V365.59l-11.33,6.7-22.9-58.72v72.26Z" transform="translate(-216.61 -176.63)"/><path class="cls-1" d="M624.53,357V236.1l17-10v50.62l19.08-11.29V214.77l17.11-10.12V325.59l-17.11,10.12V281.06l-19.08,11.28V347Z" transform="translate(-216.61 -176.63)"/><path class="cls-1" d="M241.47,764.4q-9.25,5.46-14.68,3.6T219,758.21q-2.37-7.92-2.37-20.62V697a113.63,113.63,0,0,1,2.31-23.77A53.06,53.06,0,0,1,227.08,654a50,50,0,0,1,16.13-14.54q9.58-5.69,15.26-4.85t8.15,7.2q2.49,6.36,2.49,17.56v6.28l-16.31,9.64v-6.87a60.74,60.74,0,0,0-.63-9.63c-.43-2.53-1.28-4.15-2.55-4.84s-3.33-.19-6.18,1.49a16.4,16.4,0,0,0-6.54,6.7,25.93,25.93,0,0,0-2.54,9,99.29,99.29,0,0,0-.52,10.47v50.61a55.73,55.73,0,0,0,.81,10.42q.81,4.15,3,5.31t6.24-1.22a17,17,0,0,0,6.36-6.45,28.88,28.88,0,0,0,3.06-9.28,73.51,73.51,0,0,0,.87-11.86V707.75l-10.06,6V699.82l25.44-15.05v61.37l-11,6.49-1.27-11.19a47,47,0,0,1-5.61,13.1A29.5,29.5,0,0,1,241.47,764.4Z" transform="translate(-216.61 -176.63)"/><path class="cls-1" d="M277.89,741.21l18.73-132,18.27-10.81,18.73,109.86-15.84,9.37-3.7-25.73-16.3,9.64L294,731.71Zm21.62-54.74L312.23,679l-6.36-47Z" transform="translate(-216.61 -176.63)"/><path class="cls-1" d="M342.76,702.85,344.38,581l17.69-10.46,13.29,75.89,13.88-92,17.11-10.12,1.74,119.91-12.72,7.52L394,588.5l-13.3,91.92-10.29,6.09-13.53-76.36-1.27,85.11Z" transform="translate(-216.61 -176.63)"/><path class="cls-1" d="M421.27,656.42V535.48l39.31-23.25v15.53l-22.2,13.13v34.79l17.46-10.33v15.38l-17.46,10.33v40l22.43-13.26V633Z" transform="translate(-216.61 -176.63)"/><path class="cls-1" d="M493,617V601.49a46,46,0,0,0,6.13-4.23,16,16,0,0,0,3.76-4.38,17.73,17.73,0,0,0,1.91-5.76,50.22,50.22,0,0,0,.58-8.18V485.77l17-10v94.06a77.53,77.53,0,0,1-1.85,17.89,35.54,35.54,0,0,1-6.41,13.65,45,45,0,0,1-12.9,10.84Z" transform="translate(-216.61 -176.63)"/><path class="cls-1" d="M531.8,591.05l18.73-132,18.27-10.81,18.73,109.86-15.84,9.37L568,541.73l-16.3,9.64-3.81,30.18Zm21.62-54.74,12.72-7.52-6.36-47Z" transform="translate(-216.61 -176.63)"/><path class="cls-1" d="M608,546,589.15,436.2l15.15-9,12.37,78.24,11.56-92.4,15.5-9.16L624.88,536Z" transform="translate(-216.61 -176.63)"/><path class="cls-1" d="M645.35,523.9l18.73-132,18.27-10.81,18.73,109.86-15.84,9.37-3.7-25.73-16.31,9.64-3.81,30.18ZM667,469.16l12.72-7.52-6.36-47Z" transform="translate(-216.61 -176.63)"/><path class="cls-1" d="M733.57,473.37q-8.45,5-14.11,4.09t-8.56-7.41q-2.88-6.49-3.23-18.24l14.68-12.42A61.17,61.17,0,0,0,723.68,451q1.1,4.72,3.35,6.3c1.51,1.05,3.49.85,6-.61a13.71,13.71,0,0,0,5.9-6.69,24.1,24.1,0,0,0,1.73-9.17q0-7.9-2.78-11.35a22.33,22.33,0,0,0-7.39-5.77l-11.8-6.47a19.43,19.43,0,0,1-7.92-7.63q-2.94-5.06-3-15.05a52.22,52.22,0,0,1,6.48-25.93A47.89,47.89,0,0,1,732,350.4q6.59-3.88,11-3.88a8.74,8.74,0,0,1,7,3.11,20.15,20.15,0,0,1,3.87,8.23,62,62,0,0,1,1.62,11.51l-14.57,11.9a68.25,68.25,0,0,0-1-9.57c-.5-2.69-1.39-4.5-2.66-5.45s-3.14-.67-5.61.78a14.6,14.6,0,0,0-5.84,6.67,21.75,21.75,0,0,0-2,9.18c0,4.08.65,7.06,2,8.92a16,16,0,0,0,5.67,4.78L743.05,403a25.73,25.73,0,0,1,9.88,8.86q4.11,6,4.11,17.95a51.6,51.6,0,0,1-2.95,17.12,55,55,0,0,1-8.21,15.38A42.84,42.84,0,0,1,733.57,473.37Z" transform="translate(-216.61 -176.63)"/><path class="cls-1" d="M792.3,438.64Q782,444.72,776.17,443T768,433.51q-2.31-7.67-2.31-19.46V370.9A106.28,106.28,0,0,1,768,348a52.33,52.33,0,0,1,8.15-18.85,50.74,50.74,0,0,1,16.13-14.47Q802,309,807.51,310c3.66.68,6.26,3.19,7.8,7.56s2.32,10,2.32,17v10.16l-16.42,9.71V343.93a89,89,0,0,0-.41-9q-.4-3.94-2.2-5.35t-6.18,1.2a16.57,16.57,0,0,0-6.42,6.4,24.53,24.53,0,0,0-2.6,8.56,84.32,84.32,0,0,0-.58,10.27v52.56a51.62,51.62,0,0,0,.81,10.34q.81,3.78,3,4.68c1.43.6,3.37.17,5.84-1.29a14.89,14.89,0,0,0,6.07-6.2,24.19,24.19,0,0,0,2.25-8.28,99.36,99.36,0,0,0,.47-10V386.94l16.42-9.71v9.7a91.11,91.11,0,0,1-2.2,20.34,50.45,50.45,0,0,1-7.69,17.53A48.08,48.08,0,0,1,792.3,438.64Z" transform="translate(-216.61 -176.63)"/><path class="cls-1" d="M829.53,415V294L852,280.77q9.48-5.61,16-6.56t9.94,4.05q3.42,5,3.41,17.09a85.64,85.64,0,0,1-1,13.76,48.34,48.34,0,0,1-3.52,12,39.32,39.32,0,0,1-6.88,10.42L883,383.38,865.84,393.5l-11.33-48.69-7.86,4.65v55.39Zm17.12-79.4,5.31-3.15a29.36,29.36,0,0,0,7.93-6.55,22.14,22.14,0,0,0,4.22-8.47,45.17,45.17,0,0,0,1.27-11.28q0-9.11-2.6-12.12t-9.89,1.29l-6.24,3.7Z" transform="translate(-216.61 -176.63)"/><path class="cls-1" d="M894.63,376.48V255.54l16.88-10V366.49Z" transform="translate(-216.61 -176.63)"/><path class="cls-1" d="M926,358V237l27.52-16.28q8.44-5,13.7-4.07c3.51.61,6.09,3,7.75,7.14s2.49,9.85,2.49,17.12a64.21,64.21,0,0,1-3.12,20.88,48.36,48.36,0,0,1-8.73,15.69,51.85,51.85,0,0,1-13.24,11.11l-9.25,5.47v53.76Zm17.12-79.4,6.47-3.83a26.24,26.24,0,0,0,7.23-6,18.52,18.52,0,0,0,3.58-7.65,50.09,50.09,0,0,0,1-10.81,54,54,0,0,0-.75-10.23c-.5-2.44-1.58-3.81-3.23-4.13s-4.26.58-7.81,2.67l-6.47,3.83Z" transform="translate(-216.61 -176.63)"/><path class="cls-1" d="M996.26,316.37V211.71l-14.91,8.82V204.25l46.71-27.62V192.9l-14.68,8.69V306.25Z" transform="translate(-216.61 -176.63)"/></g><g id="Layer_4" data-name="Layer 4"><path class="cls-2" d="M553.13,696.45v-48l-6.84,4.05V645l21.43-12.68v7.47l-6.73,4v48Z" transform="translate(-216.61 -176.63)"/><path class="cls-2" d="M571.65,685.49V630L582,623.9a21.24,21.24,0,0,1,7.35-3,4.34,4.34,0,0,1,4.56,1.86c1,1.53,1.57,4.14,1.57,7.84a39.34,39.34,0,0,1-.48,6.31,22.35,22.35,0,0,1-1.62,5.52,17.79,17.79,0,0,1-3.16,4.78l6,23.79-7.86,4.65-5.2-22.35-3.6,2.13v25.43Zm7.86-36.44,2.44-1.44a13.36,13.36,0,0,0,3.63-3,10.1,10.1,0,0,0,1.94-3.89,20.46,20.46,0,0,0,.58-5.17c0-2.79-.4-4.64-1.19-5.57s-2.31-.72-4.54.6l-2.86,1.69Z" transform="translate(-216.61 -176.63)"/><path class="cls-2" d="M613,661.77q-4.77,2.82-7.43,2.13c-1.76-.46-3-1.89-3.66-4.28a35.84,35.84,0,0,1-1-9.41V612.66l7.65-4.52v38.72a38,38,0,0,0,.26,4.74,4.48,4.48,0,0,0,1.25,3c.65.55,1.63.43,2.94-.34a7.38,7.38,0,0,0,3-3.18,14,14,0,0,0,1.22-4.42,42.12,42.12,0,0,0,.29-5.07V602.84l7.59-4.49V635.9a50.81,50.81,0,0,1-1,10.6,23.58,23.58,0,0,1-3.63,8.6A23.24,23.24,0,0,1,613,661.77Zm-3.29,14.41v-8.63l6.58-3.89v8.63Zm10.51-70.76v-4.18l.53-.32a5,5,0,0,0,2.23-2.68,13.19,13.19,0,0,0,.64-4.49l5.25-3.11a16.56,16.56,0,0,1-2.17,8.52,16.39,16.39,0,0,1-5.9,5.91Z" transform="translate(-216.61 -176.63)"/><path class="cls-2" d="M642.87,644.13q-4.73,2.79-7.41,2c-1.78-.54-3-2-3.74-4.33a31.89,31.89,0,0,1-1.06-8.94V613a49.1,49.1,0,0,1,1.06-10.49,24.22,24.22,0,0,1,3.74-8.66,23.32,23.32,0,0,1,7.41-6.64q4.46-2.64,7-2.17a4.71,4.71,0,0,1,3.58,3.46,23.89,23.89,0,0,1,1.06,7.81V601L647,605.46v-4.79q0-2.34-.18-4.14a3.49,3.49,0,0,0-1-2.46c-.55-.43-1.5-.24-2.84.55a7.6,7.6,0,0,0-2.94,2.94,11.29,11.29,0,0,0-1.2,3.93,38.43,38.43,0,0,0-.26,4.71v24.12a23.59,23.59,0,0,0,.37,4.75,2.73,2.73,0,0,0,1.35,2.15,3.14,3.14,0,0,0,2.68-.59,6.86,6.86,0,0,0,2.79-2.85,11.26,11.26,0,0,0,1-3.8c.14-1.41.21-2.93.21-4.58v-5l7.54-4.46v4.46a41.76,41.76,0,0,1-1,9.33,23.09,23.09,0,0,1-3.53,8A22.11,22.11,0,0,1,642.87,644.13Z" transform="translate(-216.61 -176.63)"/><path class="cls-2" d="M677.15,623.1v-48l-6.85,4.05v-7.47L691.74,559v7.47l-6.74,4v48Z" transform="translate(-216.61 -176.63)"/><path class="cls-2" d="M707.45,605.94q-4.77,2.82-7.43,2.13t-3.66-4.28a35.84,35.84,0,0,1-1-9.41V556.83l7.64-4.52V591a37.91,37.91,0,0,0,.27,4.74,4.42,4.42,0,0,0,1.24,3c.66.55,1.64.44,3-.33a7.38,7.38,0,0,0,3-3.18,14.22,14.22,0,0,0,1.22-4.42,44.33,44.33,0,0,0,.29-5.08V547l7.59-4.49v37.55a51.5,51.5,0,0,1-1,10.6,22.12,22.12,0,0,1-11.09,15.27Z" transform="translate(-216.61 -176.63)"/><path class="cls-2" d="M731.7,590.84V569.66L723,540.48l7.32-4.33L735.63,555l5-25,7.16-4.24-8.6,39.42v21.17Z" transform="translate(-216.61 -176.63)"/><path class="cls-2" d="M751.34,579.23V523.72l18-10.67v7.13l-10.19,6v16l8-4.74v7.06l-8,4.74v18.36l10.3-6.09v7Zm1.11-60.55,4.78-13.86L763.7,501l4.88,8.14-5.25,3.11L760.46,507l-2.81,8.58Zm15-16.49,2.81-9.89,5.73-3.39L771.5,499.8Z" transform="translate(-216.61 -176.63)"/><path class="cls-2" d="M774.05,565.79v-55.5l5.47-3.23L790,532.53V500.87l6.47-3.83v55.51l-5.2,3.08-10.5-27v33.17Z" transform="translate(-216.61 -176.63)"/><path class="cls-2" d="M820.16,538.52v-48l-6.84,4v-7.47l21.44-12.67v7.46l-6.74,4v48Z" transform="translate(-216.61 -176.63)"/><path class="cls-2" d="M850.47,521.36q-4.79,2.82-7.43,2.13t-3.66-4.28a35.41,35.41,0,0,1-1-9.41V472.25l7.64-4.52v38.72a40.05,40.05,0,0,0,.26,4.74,4.47,4.47,0,0,0,1.25,3c.65.56,1.64.44,3-.33a7.36,7.36,0,0,0,3-3.18,14.23,14.23,0,0,0,1.23-4.42,44.33,44.33,0,0,0,.29-5.08V462.43l7.59-4.49v37.55a51.5,51.5,0,0,1-1,10.6,23.65,23.65,0,0,1-3.64,8.59A23.22,23.22,0,0,1,850.47,521.36ZM857.68,465v-4.18l.53-.32a4.94,4.94,0,0,0,2.23-2.69,13.09,13.09,0,0,0,.64-4.48l5.25-3.11a16.56,16.56,0,0,1-2.17,8.52,16.36,16.36,0,0,1-5.89,5.91Z" transform="translate(-216.61 -176.63)"/><path class="cls-2" d="M880.4,503.66q-4.57,2.7-7.27,2.1t-3.88-4a28.61,28.61,0,0,1-1.17-9V472a42.66,42.66,0,0,1,1.17-10.32,24,24,0,0,1,3.88-8.43,23.67,23.67,0,0,1,7.27-6.42q4.67-2.76,7.35-2.22t3.87,3.84a26.9,26.9,0,0,1,1.19,8.92v20.83a42.45,42.45,0,0,1-1.19,10.34,25.8,25.8,0,0,1-3.87,8.59A23.49,23.49,0,0,1,880.4,503.66Zm0-7.47a7.81,7.81,0,0,0,2.89-2.81,11.06,11.06,0,0,0,1.25-3.75,29.68,29.68,0,0,0,.31-4.37V459.7a21.69,21.69,0,0,0-.31-4,3,3,0,0,0-1.25-2.18c-.62-.34-1.59-.12-2.89.65a7.77,7.77,0,0,0-2.82,2.72,10.45,10.45,0,0,0-1.27,3.67,28.67,28.67,0,0,0-.32,4.37V490.5a25.12,25.12,0,0,0,.29,4,3,3,0,0,0,1.25,2.28C878.17,497.14,879.12,496.94,880.4,496.19Zm2.54-46.12v-4.18l1.06-.63a5,5,0,0,0,2.23-2.69,13.15,13.15,0,0,0,.64-4.49l5.25-3.1a16.26,16.26,0,0,1-8.06,14.43Z" transform="translate(-216.61 -176.63)"/><path class="cls-2" d="M898.6,492.14V436.63l5.46-3.23,10.46,25.48V427.22l6.47-3.83v55.5l-5.2,3.08-10.51-27v33.16Z" transform="translate(-216.61 -176.63)"/><path class="cls-2" d="M938.29,469.42q-4.24,2.5-6.74,1.65c-1.66-.57-2.86-2.07-3.58-4.49a33.73,33.73,0,0,1-1.09-9.47V438.47a52.48,52.48,0,0,1,1.06-10.9,24.51,24.51,0,0,1,3.74-8.83,23.16,23.16,0,0,1,7.41-6.67c2.93-1.74,5.27-2.48,7-2.23a4.69,4.69,0,0,1,3.74,3.31,22.84,22.84,0,0,1,1.14,8.06v2.88l-7.48,4.42v-3.15a28.25,28.25,0,0,0-.29-4.42,2.92,2.92,0,0,0-1.17-2.22c-.58-.32-1.53-.09-2.84.69a7.39,7.39,0,0,0-3,3.07A11.93,11.93,0,0,0,935,426.6a45.61,45.61,0,0,0-.24,4.8v23.23a25.4,25.4,0,0,0,.37,4.78,3.28,3.28,0,0,0,1.38,2.44c.67.36,1.63.17,2.87-.56a7.79,7.79,0,0,0,2.91-3,12.88,12.88,0,0,0,1.41-4.26,33.27,33.27,0,0,0,.4-5.44v-5.21l-4.62,2.73v-6.37l11.68-6.91V461l-5,3-.59-5.14a21.43,21.43,0,0,1-2.57,6A13.62,13.62,0,0,1,938.29,469.42Z" transform="translate(-216.61 -176.63)"/><path class="cls-2" d="M974.38,447.32v-48l-6.85,4.05v-7.47L989,383.18v7.47l-6.74,4v48Z" transform="translate(-216.61 -176.63)"/><path class="cls-2" d="M989.66,438.28l8.6-60.59,8.38-5,8.6,50.42-7.27,4.3-1.7-11.81-7.48,4.43L997,433.92Zm9.92-25.12,5.84-3.45-2.92-21.58Zm.69-40.5,3.24-15.62,7.27-4.3-6.31,17.44Z" transform="translate(-216.61 -176.63)"/><path class="cls-2" d="M1030.63,414.81q-4.73,2.79-7.4,2c-1.79-.54-3-2-3.75-4.33a31.89,31.89,0,0,1-1.06-8.94v-19.8a49.27,49.27,0,0,1,1.06-10.5,24.09,24.09,0,0,1,3.75-8.65,23.18,23.18,0,0,1,7.4-6.64q4.45-2.64,7-2.17c1.68.3,2.87,1.46,3.58,3.46a23.86,23.86,0,0,1,1.06,7.8v4.66l-7.54,4.46v-4.8c0-1.55-.06-2.93-.18-4.13a3.49,3.49,0,0,0-1-2.46c-.55-.43-1.49-.24-2.84.55a7.6,7.6,0,0,0-2.94,2.94,11.29,11.29,0,0,0-1.2,3.93,40.52,40.52,0,0,0-.26,4.71V401a23.59,23.59,0,0,0,.37,4.75,2.76,2.76,0,0,0,1.35,2.15,3.14,3.14,0,0,0,2.68-.59,6.92,6.92,0,0,0,2.79-2.85,11,11,0,0,0,1-3.8c.14-1.41.21-2.93.21-4.58v-5l7.54-4.46v4.46a41.76,41.76,0,0,1-1,9.33,23.09,23.09,0,0,1-3.53,8A22.11,22.11,0,0,1,1030.63,414.81Z" transform="translate(-216.61 -176.63)"/><path class="cls-2" d="M824.52,618.18V562.67l7.8-4.61v23.23l8.75-5.18V552.88l7.86-4.64v55.5l-7.86,4.65V583.31l-8.75,5.18v25.08Z" transform="translate(-216.61 -176.63)"/><path class="cls-2" d="M867.18,593.7q-4.56,2.7-7.27,2.11c-1.8-.4-3.09-1.73-3.87-4a28.61,28.61,0,0,1-1.17-9V562A42.77,42.77,0,0,1,856,551.67a23,23,0,0,1,11.14-14.85q4.68-2.76,7.35-2.22t3.88,3.84a27.23,27.23,0,0,1,1.19,8.93V568.2a42.87,42.87,0,0,1-1.19,10.33,25.58,25.58,0,0,1-3.88,8.6A23.12,23.12,0,0,1,867.18,593.7Zm4.25-77.41a3.77,3.77,0,0,1-2.55.65l-2.12-.39a3,3,0,0,0-2.12.47,3.3,3.3,0,0,0-1.46,1.58,6,6,0,0,0-.4,2.33l-3.72,2.19a26.49,26.49,0,0,1,.4-4.65,12.1,12.1,0,0,1,1.41-3.92,7.52,7.52,0,0,1,2.7-2.73,3.67,3.67,0,0,1,2.39-.62c.71.1,1.41.22,2.1.33a3.4,3.4,0,0,0,3.45-1.93,5.91,5.91,0,0,0,.4-2.29l3.5-2.08a34.12,34.12,0,0,1-.27,4.27,12.4,12.4,0,0,1-1.14,4A6.44,6.44,0,0,1,871.43,516.29Zm-12.26,21.5L864,523.94l6.47-3.83,4.88,8.14-5.25,3.11-2.87-5.23-2.81,8.59Zm8,48.44a7.59,7.59,0,0,0,2.89-2.81,10.71,10.71,0,0,0,1.25-3.75,29.46,29.46,0,0,0,.32-4.37V549.74a21.75,21.75,0,0,0-.32-4,2.92,2.92,0,0,0-1.25-2.17c-.61-.34-1.58-.13-2.89.64a7.84,7.84,0,0,0-2.81,2.73,10.25,10.25,0,0,0-1.27,3.67,27.24,27.24,0,0,0-.32,4.36v25.56a25,25,0,0,0,.29,4,3,3,0,0,0,1.25,2.28C865,587.18,865.91,587,867.18,586.23Z" transform="translate(-216.61 -176.63)"/><path class="cls-2" d="M902.58,572V524l-6.85,4v-7.47l21.44-12.68v7.47l-6.74,4v48Z" transform="translate(-216.61 -176.63)"/><path class="cls-2" d="M921.1,561.06V505.55l10.29-6.08a21.24,21.24,0,0,1,7.35-3,4.36,4.36,0,0,1,4.57,1.85c1,1.54,1.56,4.15,1.56,7.85a39.34,39.34,0,0,1-.48,6.31,21.92,21.92,0,0,1-1.61,5.52,18.45,18.45,0,0,1-3.16,4.78l6,23.79-7.86,4.65-5.2-22.35L929,531v25.43ZM929,524.62l2.44-1.44a13.42,13.42,0,0,0,3.64-3,10.1,10.1,0,0,0,1.94-3.89,20.92,20.92,0,0,0,.58-5.17c0-2.79-.4-4.64-1.19-5.57s-2.31-.72-4.54.6L929,507.83Z" transform="translate(-216.61 -176.63)"/><path class="cls-2" d="M962.33,537.43q-4.56,2.7-7.27,2.11c-1.8-.4-3.1-1.74-3.87-4a28.61,28.61,0,0,1-1.17-9V505.72a42.71,42.71,0,0,1,1.17-10.32,23,23,0,0,1,11.14-14.85q4.67-2.76,7.35-2.22t3.87,3.84a26.93,26.93,0,0,1,1.2,8.93v20.83a42.36,42.36,0,0,1-1.2,10.33,25.37,25.37,0,0,1-3.87,8.6A23.34,23.34,0,0,1,962.33,537.43Zm0-7.47a7.66,7.66,0,0,0,2.89-2.81,10.71,10.71,0,0,0,1.25-3.75,29.46,29.46,0,0,0,.32-4.37V493.47a21.75,21.75,0,0,0-.32-4,2.92,2.92,0,0,0-1.25-2.17c-.62-.35-1.58-.13-2.89.65a7.74,7.74,0,0,0-2.81,2.72,10.46,10.46,0,0,0-1.28,3.67,28.58,28.58,0,0,0-.31,4.36v25.56a23.93,23.93,0,0,0,.29,4,3,3,0,0,0,1.24,2.28C960.1,530.91,961.06,530.71,962.33,530Zm-3.24,21.86v-8.64l6.58-3.89v8.63Zm5.79-68v-4.18l1.06-.62a5.1,5.1,0,0,0,2.23-2.69,13.44,13.44,0,0,0,.64-4.49l5.25-3.11a16.57,16.57,0,0,1-2.18,8.52,16.28,16.28,0,0,1-5.89,5.91Z" transform="translate(-216.61 -176.63)"/><path class="cls-2" d="M998.2,515.46v-45c-.21.26-.62.71-1.24,1.35s-1.3,1.31-2.05,2-1.42,1.34-2,1.93-1,1-1.3,1.32V470c.49-.52,1.11-1.21,1.86-2.06s1.53-1.78,2.36-2.8,1.61-2.06,2.33-3.13a23.29,23.29,0,0,0,1.78-3l5.63-3.32v55.5Z" transform="translate(-216.61 -176.63)"/><path class="cls-2" d="M1014.39,477.59v-9.18l6.9-4.08v9.18Zm0,23.16v-9.18l6.9-4.08v9.18Z" transform="translate(-216.61 -176.63)"/><path class="cls-2" d="M1031.69,495.66v-45c-.21.26-.63.71-1.25,1.35s-1.3,1.31-2,2-1.43,1.33-2,1.92-1.06,1-1.3,1.32v-7.06c.49-.52,1.11-1.2,1.85-2.05s1.53-1.79,2.37-2.81,1.6-2.05,2.33-3.12a24.48,24.48,0,0,0,1.78-3l5.62-3.33v55.51Z" transform="translate(-216.61 -176.63)"/></g></svg>