<svg id="Layer_1" data-name="Layer 1" xmlns="http://www.w3.org/2000/svg" viewBox="0 0 801.24 242.55"><defs><style>.cls-1{fill:#f8991d;}</style></defs><title>banner2</title><path class="cls-1" d="M119.38,371.46V285.18h15.76V323.1l17.05-37.92h15L150.7,323.74l18.21,47.72H153.25l-14.48-39.31-3.63,6.61v32.7Z" transform="translate(-116.18 -257.91)"/><path class="cls-1" d="M175.3,371.46V285.18H191v36.11h17.58V285.18H224.3v86.28H208.54v-39H191v39Z" transform="translate(-116.18 -257.91)"/><path class="cls-1" d="M261,372.63q-9.16,0-14.6-3.41a18.82,18.82,0,0,1-7.77-9.8,43.74,43.74,0,0,1-2.35-15.12V312a42.37,42.37,0,0,1,2.35-15,18.33,18.33,0,0,1,7.77-9.54q5.43-3.3,14.6-3.3,9.36,0,14.75,3.3a18.66,18.66,0,0,1,7.77,9.54,41.64,41.64,0,0,1,2.4,15V344.4a42.2,42.2,0,0,1-2.4,15,19.46,19.46,0,0,1-7.77,9.8Q270.32,372.64,261,372.63ZM261,361c2.62,0,4.56-.57,5.8-1.7a8.57,8.57,0,0,0,2.5-4.69,30.75,30.75,0,0,0,.64-6.5V308.4a29.89,29.89,0,0,0-.64-6.5,8.24,8.24,0,0,0-2.5-4.53c-1.24-1.1-3.18-1.65-5.8-1.65a8.45,8.45,0,0,0-5.65,1.65,8.13,8.13,0,0,0-2.56,4.53,30.52,30.52,0,0,0-.64,6.5v39.73a33.76,33.76,0,0,0,.59,6.5,8.21,8.21,0,0,0,2.5,4.69Q257.11,361,261,361Z" transform="translate(-116.18 -257.91)"/><path class="cls-1" d="M292.47,371.46l17.26-86.28h16.83l17.26,86.28h-14.6l-3.4-19.92h-15l-3.52,19.92Zm19.92-29.93h11.72l-5.86-36.22Zm1.39-62.32,6.5-21.3h14.59l-12.68,21.3Z" transform="translate(-116.18 -257.91)"/><path class="cls-1" d="M378.12,371.46V285.18h15.65v36.11h17.58V285.18h15.77v86.28H411.35v-39H393.77v39Z" transform="translate(-116.18 -257.91)"/><path class="cls-1" d="M463.76,372.63q-9.17,0-14.59-3.41a18.79,18.79,0,0,1-7.78-9.8,44,44,0,0,1-2.34-15.12V312a42.61,42.61,0,0,1,2.34-15,18.3,18.3,0,0,1,7.78-9.54q5.43-3.3,14.59-3.3,9.38,0,14.75,3.3a18.68,18.68,0,0,1,7.78,9.54,41.65,41.65,0,0,1,2.39,15V344.4a42.21,42.21,0,0,1-2.39,15,19.47,19.47,0,0,1-7.78,9.8Q473.13,372.64,463.76,372.63Zm0-11.61c2.62,0,4.56-.57,5.8-1.7a8.58,8.58,0,0,0,2.51-4.69,31.42,31.42,0,0,0,.64-6.5V308.4a30.52,30.52,0,0,0-.64-6.5,8.25,8.25,0,0,0-2.51-4.53c-1.24-1.1-3.18-1.65-5.8-1.65a8.45,8.45,0,0,0-5.65,1.65,8.06,8.06,0,0,0-2.55,4.53,29.89,29.89,0,0,0-.64,6.5v39.73a33.79,33.79,0,0,0,.58,6.5,8.16,8.16,0,0,0,2.51,4.69Q459.92,361,463.76,361Zm-6.5,31V378.6h13.21V392Z" transform="translate(-116.18 -257.91)"/><path class="cls-1" d="M523.52,372.63q-9.49,0-14.86-3.73a19.38,19.38,0,0,1-7.51-10.17A47.31,47.31,0,0,1,499,343.87V313.09a49.37,49.37,0,0,1,2.13-15.34,18.42,18.42,0,0,1,7.51-10q5.37-3.51,14.86-3.51,8.94,0,14,3a16.62,16.62,0,0,1,7.19,8.68,37,37,0,0,1,2.13,13.1v7.24H531.72v-7.45a53.21,53.21,0,0,0-.38-6.61,8.2,8.2,0,0,0-2-4.74q-1.65-1.75-5.7-1.76c-2.7,0-4.67.63-5.91,1.87a9,9,0,0,0-2.4,5,43.32,43.32,0,0,0-.53,7.09v37.49a33.07,33.07,0,0,0,.75,7.73,8,8,0,0,0,2.71,4.58,8.52,8.52,0,0,0,5.38,1.54q3.95,0,5.59-1.86a9.15,9.15,0,0,0,2.08-5,51.53,51.53,0,0,0,.43-6.92V339.5h15.12v6.93a41.85,41.85,0,0,1-2,13.58,17.69,17.69,0,0,1-7.08,9.27Q532.67,372.63,523.52,372.63Z" transform="translate(-116.18 -257.91)"/><path class="cls-1" d="M579.33,371.46l17.26-86.28h16.83l17.25,86.28H616.08l-3.41-19.92h-15l-3.51,19.92Zm19.92-29.93H611l-5.86-36.22Z" transform="translate(-116.18 -257.91)"/><path class="cls-1" d="M639.09,371.46l1.49-86.28h16.3l12.25,59.76,12.78-59.76h15.76l1.6,86.28H687.55l-1.27-60-12.25,60h-9.48l-12.47-60.18-1.17,60.18Z" transform="translate(-116.18 -257.91)"/><path class="cls-1" d="M707.69,371.46l17.25-86.28h16.83L759,371.46H744.44L741,351.54H726l-3.52,19.92Zm19.92-29.93h11.71l-5.86-36.22Z" transform="translate(-116.18 -257.91)"/><path class="cls-1" d="M764.67,371.46V361.34L787.9,296H766V285.18h37.82v8.09l-24.08,67.32h24.18v10.87Z" transform="translate(-116.18 -257.91)"/><path class="cls-1" d="M835.94,372.63q-9.16,0-14.6-3.41a18.82,18.82,0,0,1-7.77-9.8,43.74,43.74,0,0,1-2.35-15.12V312a42.37,42.37,0,0,1,2.35-15,18.33,18.33,0,0,1,7.77-9.54q5.43-3.3,14.6-3.3,9.36,0,14.75,3.3a18.73,18.73,0,0,1,7.78,9.54,41.87,41.87,0,0,1,2.39,15V344.4a42.43,42.43,0,0,1-2.39,15,19.53,19.53,0,0,1-7.78,9.8Q845.31,372.64,835.94,372.63Zm0-11.61c2.62,0,4.56-.57,5.8-1.7a8.65,8.65,0,0,0,2.51-4.69,31.44,31.44,0,0,0,.63-6.5V308.4a30.56,30.56,0,0,0-.63-6.5,8.31,8.31,0,0,0-2.51-4.53c-1.24-1.1-3.18-1.65-5.8-1.65a8.45,8.45,0,0,0-5.65,1.65,8.13,8.13,0,0,0-2.56,4.53,30.52,30.52,0,0,0-.64,6.5v39.73a33.76,33.76,0,0,0,.59,6.5,8.21,8.21,0,0,0,2.5,4.69Q832.1,361,835.94,361Z" transform="translate(-116.18 -257.91)"/><path class="cls-1" d="M872.47,371.46V285.18h11l21,49.21V285.18h13v86.28H907L885.89,319.9v51.56Z" transform="translate(-116.18 -257.91)"/><path class="cls-1" d="M128.43,499.28,116.18,413h13.21l7.14,55.93,8.95-55.71h10.75l9.17,55.71,7-55.93h13l-12,86.28H160.6L151,441.44l-9.48,57.84Z" transform="translate(-116.18 -257.91)"/><path class="cls-1" d="M195,499.28V413h36.21v11.08H210.77V448.9h16.09v11H210.77v28.55h20.67v10.86Z" transform="translate(-116.18 -257.91)"/><path class="cls-1" d="M240.6,499.28V413h21.19a46.48,46.48,0,0,1,10.39,1.07,21.08,21.08,0,0,1,8,3.57,16.07,16.07,0,0,1,5.17,6.76,27.8,27.8,0,0,1,1.81,10.76,24.88,24.88,0,0,1-1.44,8.95A13.56,13.56,0,0,1,281.5,450a15.35,15.35,0,0,1-6.92,2.93,17.89,17.89,0,0,1,8.47,3.57,16.36,16.36,0,0,1,5,7.08,29.93,29.93,0,0,1,1.65,10.55,35.18,35.18,0,0,1-1.54,10.91,20.15,20.15,0,0,1-4.58,7.89,19.41,19.41,0,0,1-7.56,4.74,32,32,0,0,1-10.6,1.59Zm15.76-51h5.33a15.47,15.47,0,0,0,7.24-1.38,7.52,7.52,0,0,0,3.57-4.26,22.29,22.29,0,0,0,1-7.25,13.53,13.53,0,0,0-1.54-7.08,7.78,7.78,0,0,0-4.64-3.41,28.7,28.7,0,0,0-7.88-.91h-3.09Zm0,39.95h6c4.75,0,8-1.16,9.69-3.47s2.56-5.87,2.56-10.7a24.36,24.36,0,0,0-1.23-8.47,9,9,0,0,0-4.05-4.85,15.26,15.26,0,0,0-7.51-1.59h-5.43Z" transform="translate(-116.18 -257.91)"/><path class="cls-1" d="M347.54,500.46a25.53,25.53,0,0,1-13-3,19.09,19.09,0,0,1-7.88-8.89,38.25,38.25,0,0,1-3-14.38l13.53-2.67a41.22,41.22,0,0,0,1.23,8.84,12.83,12.83,0,0,0,3.08,5.92,7.45,7.45,0,0,0,5.49,2.07q3.84,0,5.43-2.29a9.85,9.85,0,0,0,1.6-5.8,15.65,15.65,0,0,0-2.56-9.27,39.68,39.68,0,0,0-6.81-7.24l-10.87-9.59a33,33,0,0,1-7.3-8.79,24.2,24.2,0,0,1-2.71-12q0-10.23,6-15.77t16.3-5.54a24.23,24.23,0,0,1,10.12,1.87,16.09,16.09,0,0,1,6.45,5.16,23.56,23.56,0,0,1,3.56,7.51,45,45,0,0,1,1.5,8.9l-13.43,2.34a45.68,45.68,0,0,0-.9-7.24,10.1,10.1,0,0,0-2.45-5,6.92,6.92,0,0,0-5.17-1.81,6.56,6.56,0,0,0-5.38,2.29,8.76,8.76,0,0,0-1.86,5.7,13.07,13.07,0,0,0,1.81,7.19,28.41,28.41,0,0,0,5.22,5.81l10.76,9.48a44.78,44.78,0,0,1,9.11,10.49,26.79,26.79,0,0,1,3.78,14.54,21.88,21.88,0,0,1-2.72,11,19.42,19.42,0,0,1-7.56,7.51A22.86,22.86,0,0,1,347.54,500.46Z" transform="translate(-116.18 -257.91)"/><path class="cls-1" d="M377.58,499.28V413H413.8v11.08H393.35V448.9h16.08v11H393.35v28.55H414v10.86Z" transform="translate(-116.18 -257.91)"/><path class="cls-1" d="M423.17,499.28V413h20.67a45.69,45.69,0,0,1,14.75,2.08,17,17,0,0,1,9.16,7.08q3.13,5,3.14,13.64a41.73,41.73,0,0,1-1,9.37,17.87,17.87,0,0,1-3.24,7.09,14.63,14.63,0,0,1-6.34,4.52l12,42.5H456.62l-10.44-39.51h-7.24v39.51Zm15.77-49.42h4.9a16.69,16.69,0,0,0,7.29-1.33,7.79,7.79,0,0,0,3.89-4.26,20.51,20.51,0,0,0,1.17-7.51q0-6.5-2.39-9.75t-9.11-3.25h-5.75Z" transform="translate(-116.18 -257.91)"/><path class="cls-1" d="M496.14,499.28,478.77,413h14l11.4,61,10.65-61h14.27l-17.36,86.28Z" transform="translate(-116.18 -257.91)"/><path class="cls-1" d="M538.32,499.28V413h15.55v86.28Z" transform="translate(-116.18 -257.91)"/><path class="cls-1" d="M590.41,500.46q-9.49,0-14.86-3.73A19.45,19.45,0,0,1,568,486.56a47.36,47.36,0,0,1-2.13-14.86V440.91A49.42,49.42,0,0,1,568,425.57a18.36,18.36,0,0,1,7.51-10q5.37-3.51,14.86-3.52,8.94,0,14,3a16.66,16.66,0,0,1,7.19,8.68,37,37,0,0,1,2.13,13.1v7.25H598.61v-7.46a55.29,55.29,0,0,0-.37-6.6,8.21,8.21,0,0,0-2-4.74c-1.1-1.18-3-1.76-5.7-1.76s-4.67.62-5.91,1.86a9.09,9.09,0,0,0-2.4,5,43.19,43.19,0,0,0-.53,7.08V475a33,33,0,0,0,.75,7.72,8,8,0,0,0,2.71,4.58,8.52,8.52,0,0,0,5.38,1.55q3.94,0,5.59-1.87a9,9,0,0,0,2.08-5,51.69,51.69,0,0,0,.43-6.93v-7.77h15.12v6.92a41.81,41.81,0,0,1-2,13.58,17.69,17.69,0,0,1-7.08,9.27Q599.56,500.46,590.41,500.46Z" transform="translate(-116.18 -257.91)"/><path class="cls-1" d="M624.71,499.28V413h36.21v11.08H640.47V448.9h16.08v11H640.47v28.55h20.66v10.86Z" transform="translate(-116.18 -257.91)"/><path class="cls-1" d="M692,500.46a25.55,25.55,0,0,1-13-3,19.09,19.09,0,0,1-7.88-8.89,38.07,38.07,0,0,1-3-14.38l13.52-2.67a41.22,41.22,0,0,0,1.23,8.84,12.75,12.75,0,0,0,3.09,5.92,7.41,7.41,0,0,0,5.48,2.07q3.84,0,5.44-2.29a9.92,9.92,0,0,0,1.59-5.8A15.72,15.72,0,0,0,696,471a40.11,40.11,0,0,0-6.82-7.24l-10.86-9.59a32.59,32.59,0,0,1-7.3-8.79,24.2,24.2,0,0,1-2.72-12q0-10.23,6-15.77T690.53,412a24.23,24.23,0,0,1,10.12,1.87,16.09,16.09,0,0,1,6.45,5.16,23.58,23.58,0,0,1,3.57,7.51,44.24,44.24,0,0,1,1.49,8.9l-13.42,2.34a46.81,46.81,0,0,0-.91-7.24,10.1,10.1,0,0,0-2.45-5,6.9,6.9,0,0,0-5.17-1.81,6.54,6.54,0,0,0-5.37,2.29,8.71,8.71,0,0,0-1.87,5.7,13.07,13.07,0,0,0,1.81,7.19,28.41,28.41,0,0,0,5.22,5.81l10.76,9.48a44.55,44.55,0,0,1,9.11,10.49,26.79,26.79,0,0,1,3.78,14.54,21.88,21.88,0,0,1-2.72,11,19.42,19.42,0,0,1-7.56,7.51A22.82,22.82,0,0,1,692,500.46Z" transform="translate(-116.18 -257.91)"/></svg>