<svg id="Layer_2" data-name="Layer 2" xmlns="http://www.w3.org/2000/svg" viewBox="0 0 465.31 559.96"><defs><style>.cls-1{fill:#ffd83b;}.cls-2{fill:#fff;}</style></defs><title>golang_banner2</title><path class="cls-1" d="M433.4,603.71V482.48l17.16-10.15v106l22.71-13.43v15.26Z" transform="translate(-433.4 -209.94)"/><path class="cls-1" d="M477.44,577.66l18.78-132.33,18.31-10.83,18.78,110.13L517.43,554l-3.71-25.8-16.34,9.67-3.82,30.25Zm10.32-136.91,10.43-30.26,14.14-8.36L523,419.92l-11.48,6.78-6.26-11.41L499.12,434Zm10.43,153.53V575.42l14.37-8.5v18.86Zm.93-71.49,12.75-7.54-6.38-47.12Z" transform="translate(-433.4 -209.94)"/><path class="cls-1" d="M542.23,539.35V418.12l27.59-16.32q8.46-5,13.73-4.08t7.77,7.16q2.49,6.22,2.49,17.16A64.21,64.21,0,0,1,590.68,443a47.94,47.94,0,0,1-8.75,15.73,52.14,52.14,0,0,1-13.27,11.14l-9.27,5.48V529.2Zm17.16-79.59,6.49-3.84a26,26,0,0,0,7.24-6,18.59,18.59,0,0,0,3.6-7.66,50.93,50.93,0,0,0,1-10.83,54.18,54.18,0,0,0-.75-10.26q-.76-3.68-3.25-4.14c-1.66-.32-4.27.58-7.82,2.68l-6.49,3.84Z" transform="translate(-433.4 -209.94)"/><path class="cls-1" d="M640.41,481.29V376.37l-15,8.84V368.9l46.83-27.69v16.31l-14.72,8.71V471.14Z" transform="translate(-433.4 -209.94)"/><path class="cls-1" d="M680.86,457.37V336.14l22.48-13.3q9.51-5.62,16.06-6.58t10,4.06q3.42,5,3.42,17.14a87,87,0,0,1-1,13.78,48.67,48.67,0,0,1-3.54,12.05,39.46,39.46,0,0,1-6.89,10.44l13.1,52-17.16,10.14L705.89,387,698,391.69v55.53ZM698,377.78l5.33-3.16a29.44,29.44,0,0,0,7.94-6.56,22.1,22.1,0,0,0,4.23-8.49,44.92,44.92,0,0,0,1.28-11.31q0-9.12-2.61-12.15t-9.91,1.3l-6.26,3.7Z" transform="translate(-433.4 -209.94)"/><path class="cls-1" d="M750.17,286.76,736.37,265l16-9.46,6.84,25.89Zm-4.06,132V297.54l16.92-10V408.77Z" transform="translate(-433.4 -209.94)"/><path class="cls-1" d="M777.52,400.2V279l11.94-7.06,22.83,55.64V258.41L826.43,250V371.27L815.07,378l-23-58.87v72.44Z" transform="translate(-433.4 -209.94)"/><path class="cls-1" d="M840.92,362.71V241.47l17-10.07v50.73l19.12-11.31V220.09l17.16-10.15V331.17l-17.16,10.15V286.54L858,297.85v54.78Z" transform="translate(-433.4 -209.94)"/><path class="cls-2" d="M589.13,763V732.56l-4.34,2.57V730.4l13.57-8v4.73l-4.26,2.52V760Z" transform="translate(-433.4 -209.94)"/><path class="cls-2" d="M600.85,756V720.9l6.52-3.85a13.24,13.24,0,0,1,4.65-1.9,2.73,2.73,0,0,1,2.89,1.17c.66,1,1,2.62,1,5a25.17,25.17,0,0,1-.3,4,14.43,14.43,0,0,1-1,3.49,11.45,11.45,0,0,1-2,3l3.8,15.06-5,2.94-3.3-14.15L605.82,737v16.1Zm5-23.07,1.55-.91a8.74,8.74,0,0,0,2.3-1.9,6.3,6.3,0,0,0,1.22-2.47,12.8,12.8,0,0,0,.37-3.27c0-1.76-.25-2.94-.75-3.52s-1.46-.46-2.88.37l-1.81,1.07Z" transform="translate(-433.4 -209.94)"/><path class="cls-2" d="M627.05,741c-2,1.19-3.58,1.64-4.7,1.35a3.42,3.42,0,0,1-2.32-2.71,22.38,22.38,0,0,1-.64-5.95V709.94l4.84-2.86v24.5a22.92,22.92,0,0,0,.17,3,2.8,2.8,0,0,0,.79,1.88q.62.52,1.86-.21a4.76,4.76,0,0,0,1.9-2,8.94,8.94,0,0,0,.77-2.8,28,28,0,0,0,.18-3.21V703.72l4.81-2.84v23.77a33,33,0,0,1-.64,6.71,15,15,0,0,1-2.3,5.44A14.69,14.69,0,0,1,627.05,741ZM625,750.14v-5.46l4.16-2.46v5.46Zm6.65-44.79v-2.64l.33-.2a3.15,3.15,0,0,0,1.41-1.7,8.41,8.41,0,0,0,.41-2.84l3.32-2a10.34,10.34,0,0,1-5.1,9.14Z" transform="translate(-433.4 -209.94)"/><path class="cls-2" d="M645.93,729.86c-2,1.18-3.56,1.59-4.69,1.25a3.69,3.69,0,0,1-2.37-2.74,19.93,19.93,0,0,1-.67-5.66V710.18a30.67,30.67,0,0,1,.67-6.64,15.25,15.25,0,0,1,2.37-5.48,14.69,14.69,0,0,1,4.69-4.2c1.88-1.12,3.35-1.57,4.41-1.38a3,3,0,0,1,2.27,2.19,15.1,15.1,0,0,1,.67,4.94v2.95l-4.77,2.82v-3a25.26,25.26,0,0,0-.12-2.62,2.25,2.25,0,0,0-.63-1.56c-.35-.27-1-.15-1.8.35a4.84,4.84,0,0,0-1.87,1.86,7.1,7.1,0,0,0-.75,2.49,25.08,25.08,0,0,0-.17,3v15.27a14.69,14.69,0,0,0,.24,3,1.7,1.7,0,0,0,.85,1.36,2,2,0,0,0,1.7-.37,4.33,4.33,0,0,0,1.76-1.8,7,7,0,0,0,.66-2.41c.09-.89.13-1.86.13-2.9v-3.16l4.77-2.82v2.82a26,26,0,0,1-.64,5.9,14.59,14.59,0,0,1-2.23,5.1A14,14,0,0,1,645.93,729.86Z" transform="translate(-433.4 -209.94)"/><path class="cls-2" d="M667.62,716.55V686.14l-4.33,2.56V684l13.57-8v4.73l-4.27,2.52v30.41Z" transform="translate(-433.4 -209.94)"/><path class="cls-2" d="M686.8,705.68q-3,1.79-4.7,1.35a3.42,3.42,0,0,1-2.32-2.7,22.94,22.94,0,0,1-.64-6V674.6l4.84-2.86v24.51a24.93,24.93,0,0,0,.17,3,2.77,2.77,0,0,0,.79,1.87q.62.52,1.86-.21a4.7,4.7,0,0,0,1.9-2,8.87,8.87,0,0,0,.77-2.8,28,28,0,0,0,.19-3.21V668.38l4.8-2.84v23.77a32.19,32.19,0,0,1-.64,6.71,14.77,14.77,0,0,1-2.3,5.44A14.58,14.58,0,0,1,686.8,705.68Z" transform="translate(-433.4 -209.94)"/><path class="cls-2" d="M702.15,696.13V682.72l-5.51-18.47,4.64-2.74,3.36,11.94,3.15-15.79,4.54-2.68-5.44,24.94v13.41Z" transform="translate(-433.4 -209.94)"/><path class="cls-2" d="M714.58,688.78V653.64L726,646.89v4.51l-6.45,3.81v10.11l5.07-3v4.47l-5.07,3v11.62l6.52-3.85V682Zm.71-38.33,3-8.77,4.1-2.42,3.09,5.15-3.33,2-1.81-3.31-1.78,5.43Zm9.5-10.44,1.78-6.25,3.63-2.15-2.86,6.89Z" transform="translate(-433.4 -209.94)"/><path class="cls-2" d="M729,680.27V645.14l3.45-2L739,659.22v-20l4.1-2.42v35.13l-3.29,2-6.65-17.06v21Z" transform="translate(-433.4 -209.94)"/><path class="cls-2" d="M758.14,663v-30.4l-4.33,2.56v-4.73l13.57-8v4.73l-4.27,2.52v30.4Z" transform="translate(-433.4 -209.94)"/><path class="cls-2" d="M777.32,652.15q-3,1.79-4.7,1.35a3.44,3.44,0,0,1-2.32-2.71,22.85,22.85,0,0,1-.64-5.95V621.07l4.84-2.86v24.5a24.81,24.81,0,0,0,.17,3,2.8,2.8,0,0,0,.79,1.88q.62.52,1.86-.21a4.64,4.64,0,0,0,1.9-2,8.94,8.94,0,0,0,.77-2.8,26,26,0,0,0,.19-3.21V614.85L785,612v23.77a32.26,32.26,0,0,1-.64,6.71,14,14,0,0,1-7,9.66Zm4.57-35.67v-2.64l.34-.2a3.23,3.23,0,0,0,1.41-1.7,8.43,8.43,0,0,0,.4-2.84l3.33-2a10.47,10.47,0,0,1-1.38,5.39,10.29,10.29,0,0,1-3.73,3.74Z" transform="translate(-433.4 -209.94)"/><path class="cls-2" d="M796.27,640.94c-1.93,1.14-3.46,1.59-4.61,1.34a3.45,3.45,0,0,1-2.45-2.54,18.28,18.28,0,0,1-.74-5.73V620.87a27.24,27.24,0,0,1,.74-6.53,15.38,15.38,0,0,1,2.45-5.33,15.17,15.17,0,0,1,4.61-4.07q3-1.74,4.65-1.4a3.35,3.35,0,0,1,2.45,2.43,17.18,17.18,0,0,1,.76,5.65V624.8a27.1,27.1,0,0,1-.76,6.54,16.11,16.11,0,0,1-2.45,5.44A14.64,14.64,0,0,1,796.27,640.94Zm0-4.72a5,5,0,0,0,1.83-1.78,7,7,0,0,0,.79-2.37,19.21,19.21,0,0,0,.2-2.77V613.12a14.18,14.18,0,0,0-.2-2.53,1.88,1.88,0,0,0-.79-1.37c-.39-.22-1-.08-1.83.41a4.83,4.83,0,0,0-1.78,1.72,6.34,6.34,0,0,0-.81,2.32,18.6,18.6,0,0,0-.2,2.77v16.18a15.81,15.81,0,0,0,.18,2.53,1.9,1.9,0,0,0,.79,1.44C794.86,636.82,795.46,636.69,796.27,636.22ZM797.88,607v-2.65l.67-.4a3.16,3.16,0,0,0,1.41-1.7,8.35,8.35,0,0,0,.4-2.84l3.33-2a10.29,10.29,0,0,1-5.11,9.13Z" transform="translate(-433.4 -209.94)"/><path class="cls-2" d="M807.79,633.65V598.52l3.46-2,6.61,16.12v-20l4.1-2.42v35.13l-3.29,2L812,610.16v21Z" transform="translate(-433.4 -209.94)"/><path class="cls-2" d="M832.91,619.27q-2.68,1.59-4.27,1.05a3.87,3.87,0,0,1-2.26-2.84,21.46,21.46,0,0,1-.69-6v-11.8a32.7,32.7,0,0,1,.67-6.9,15.47,15.47,0,0,1,2.37-5.59,14.4,14.4,0,0,1,4.69-4.22q2.77-1.65,4.43-1.41a3,3,0,0,1,2.37,2.09,14.46,14.46,0,0,1,.72,5.1v1.82l-4.74,2.8v-2a18,18,0,0,0-.18-2.8,1.86,1.86,0,0,0-.74-1.4c-.37-.2-1-.06-1.8.43a4.86,4.86,0,0,0-1.9,2,7.53,7.53,0,0,0-.73,2.6,26.72,26.72,0,0,0-.16,3v14.7a15.86,15.86,0,0,0,.24,3,2.11,2.11,0,0,0,.87,1.55c.43.22,1,.1,1.82-.36a4.88,4.88,0,0,0,1.84-1.88,8,8,0,0,0,.89-2.69,21.08,21.08,0,0,0,.26-3.45v-3.29l-2.93,1.73v-4l7.39-4.37V614l-3.19,1.89-.37-3.26a13.74,13.74,0,0,1-1.63,3.81A8.49,8.49,0,0,1,832.91,619.27Z" transform="translate(-433.4 -209.94)"/><path class="cls-2" d="M855.75,605.29V574.88l-4.33,2.57v-4.73l13.57-8v4.73l-4.27,2.52v30.41Z" transform="translate(-433.4 -209.94)"/><path class="cls-2" d="M865.42,599.57l5.45-38.35,5.3-3.14L881.61,590l-4.6,2.72-1.07-7.47L871.2,588l-1.11,8.77Zm6.29-15.9,3.69-2.19-1.85-13.65Zm.43-25.64,2.05-9.88,4.6-2.73-4,11Z" transform="translate(-433.4 -209.94)"/><path class="cls-2" d="M891.36,584.71q-3,1.77-4.69,1.25a3.69,3.69,0,0,1-2.37-2.74,19.86,19.86,0,0,1-.67-5.65V565a30.67,30.67,0,0,1,.67-6.64,15.25,15.25,0,0,1,2.37-5.48,14.69,14.69,0,0,1,4.69-4.2q2.82-1.66,4.41-1.38a3,3,0,0,1,2.27,2.2,15.06,15.06,0,0,1,.67,4.94v2.95l-4.77,2.82v-3a25.4,25.4,0,0,0-.12-2.62,2.18,2.18,0,0,0-.63-1.55c-.35-.28-1-.16-1.8.34a4.93,4.93,0,0,0-1.87,1.87,7,7,0,0,0-.75,2.48,25.08,25.08,0,0,0-.17,3V576a14.8,14.8,0,0,0,.24,3,1.7,1.7,0,0,0,.85,1.35,2,2,0,0,0,1.7-.37,4.33,4.33,0,0,0,1.76-1.8,7,7,0,0,0,.66-2.41,28.84,28.84,0,0,0,.13-2.89v-3.17l4.77-2.82v2.82a26.18,26.18,0,0,1-.64,5.91,14.62,14.62,0,0,1-2.23,5.09A14,14,0,0,1,891.36,584.71Z" transform="translate(-433.4 -209.94)"/><path class="cls-2" d="M760.9,713.43V678.3l4.94-2.92v14.7l5.54-3.28V672.1l5-2.94v35.13l-5,2.94V691.36l-5.54,3.28v15.87Z" transform="translate(-433.4 -209.94)"/><path class="cls-2" d="M787.9,697.94c-1.92,1.14-3.46,1.58-4.6,1.33a3.43,3.43,0,0,1-2.45-2.54,18.21,18.21,0,0,1-.74-5.72V677.87a27.18,27.18,0,0,1,.74-6.53,14.49,14.49,0,0,1,7-9.4c2-1.17,3.52-1.63,4.66-1.41A3.37,3.37,0,0,1,795,663a17.25,17.25,0,0,1,.75,5.65V681.8a27.17,27.17,0,0,1-.75,6.54,16.4,16.4,0,0,1-2.45,5.44A14.91,14.91,0,0,1,787.9,697.94Zm2.69-49a2.33,2.33,0,0,1-1.61.41l-1.35-.24a1.89,1.89,0,0,0-1.34.29,2.14,2.14,0,0,0-.92,1,3.85,3.85,0,0,0-.25,1.48l-2.36,1.39a16.27,16.27,0,0,1,.26-2.95,7.33,7.33,0,0,1,.89-2.48,4.73,4.73,0,0,1,1.71-1.73,2.3,2.3,0,0,1,1.51-.39l1.33.21a2.05,2.05,0,0,0,1.36-.3,2,2,0,0,0,.82-.92,3.68,3.68,0,0,0,.25-1.46l2.22-1.31a22.53,22.53,0,0,1-.17,2.71,7.87,7.87,0,0,1-.72,2.5A4,4,0,0,1,790.59,648.94Zm-7.76,13.61,3-8.77,4.1-2.42,3.09,5.15-3.32,2-1.82-3.31-1.78,5.43Zm5.07,30.66a4.82,4.82,0,0,0,1.83-1.78,6.57,6.57,0,0,0,.79-2.37,17.78,17.78,0,0,0,.21-2.77V670.12a13.08,13.08,0,0,0-.21-2.53,1.84,1.84,0,0,0-.79-1.38c-.39-.21-1-.08-1.83.41a5,5,0,0,0-1.78,1.73,6.52,6.52,0,0,0-.8,2.32,17.22,17.22,0,0,0-.2,2.76v16.18a16,16,0,0,0,.18,2.54,1.89,1.89,0,0,0,.79,1.44C786.49,693.81,787.1,693.69,787.9,693.21Z" transform="translate(-433.4 -209.94)"/><path class="cls-2" d="M810.31,684.21v-30.4L806,656.37v-4.73l13.57-8v4.72l-4.26,2.53v30.4Z" transform="translate(-433.4 -209.94)"/><path class="cls-2" d="M822,677.28V642.15l6.52-3.86a13.43,13.43,0,0,1,4.65-1.9,2.76,2.76,0,0,1,2.89,1.17c.66,1,1,2.63,1,5a23.93,23.93,0,0,1-.31,4,13.86,13.86,0,0,1-1,3.49,11.3,11.3,0,0,1-2,3l3.8,15.06-5,2.94-3.3-14.14L827,658.25v16.09Zm5-23.07,1.55-.91a8.55,8.55,0,0,0,2.3-1.9,6.32,6.32,0,0,0,1.22-2.46,12.83,12.83,0,0,0,.37-3.28c0-1.76-.25-2.94-.75-3.52s-1.46-.46-2.88.38L827,643.59Z" transform="translate(-433.4 -209.94)"/><path class="cls-2" d="M848.13,662.32q-2.89,1.71-4.6,1.34a3.44,3.44,0,0,1-2.46-2.55,18.21,18.21,0,0,1-.74-5.72V642.25a27.18,27.18,0,0,1,.74-6.53,15.22,15.22,0,0,1,2.46-5.33,15,15,0,0,1,4.6-4.07q3-1.74,4.65-1.4a3.32,3.32,0,0,1,2.45,2.43A17.11,17.11,0,0,1,856,633v13.19a27.16,27.16,0,0,1-.76,6.54,16.11,16.11,0,0,1-2.45,5.44A14.64,14.64,0,0,1,848.13,662.32Zm0-4.73a4.88,4.88,0,0,0,1.83-1.77,7.1,7.1,0,0,0,.79-2.38,19.07,19.07,0,0,0,.2-2.76V634.5a14.1,14.1,0,0,0-.2-2.53,1.86,1.86,0,0,0-.79-1.37c-.39-.22-1-.08-1.83.41a4.83,4.83,0,0,0-1.78,1.72,6.53,6.53,0,0,0-.81,2.32,18.5,18.5,0,0,0-.2,2.77V654a15.94,15.94,0,0,0,.18,2.54,1.9,1.9,0,0,0,.79,1.44C846.72,658.2,847.32,658.07,848.13,657.59Zm-2,13.84V666l4.16-2.46V669Zm3.66-43v-2.64l.67-.4a3.2,3.2,0,0,0,1.41-1.7,8.37,8.37,0,0,0,.41-2.84l3.32-2a10.32,10.32,0,0,1-5.11,9.14Z" transform="translate(-433.4 -209.94)"/><path class="cls-2" d="M870.83,648.42v-28.5c-.13.17-.39.45-.79.86s-.82.82-1.29,1.26l-1.29,1.22c-.39.38-.67.66-.83.83v-4.46c.32-.33.71-.77,1.18-1.3s1-1.13,1.49-1.78,1-1.3,1.48-2a14.89,14.89,0,0,0,1.13-1.92l3.56-2.11v35.13Z" transform="translate(-433.4 -209.94)"/><path class="cls-2" d="M881.08,624.44v-5.81l4.36-2.58v5.81Zm0,14.66v-5.81l4.36-2.58v5.81Z" transform="translate(-433.4 -209.94)"/><path class="cls-2" d="M892,635.88V607.39c-.14.16-.4.45-.79.85s-.83.83-1.3,1.27-.9.84-1.29,1.22-.67.65-.82.83v-4.47c.31-.33.7-.76,1.17-1.3s1-1.13,1.5-1.77,1-1.31,1.48-2a14.82,14.82,0,0,0,1.12-1.93l3.56-2.1v35.13Z" transform="translate(-433.4 -209.94)"/><path class="cls-1" d="M466,764.61q-12,7.1-19.07,4.68t-10.13-12.71q-3.09-10.3-3.08-26.78V677.06a147.46,147.46,0,0,1,3-30.86,68.81,68.81,0,0,1,10.59-25q7.58-11,20.94-18.88Q480.68,595,488,596.06t10.59,9.35q3.22,8.26,3.23,22.81v8.14l-21.18,12.52V640a78.24,78.24,0,0,0-.82-12.5q-.83-4.94-3.3-6.29t-8,1.94a21.23,21.23,0,0,0-8.48,8.7,33.71,33.71,0,0,0-3.3,11.65,129.89,129.89,0,0,0-.68,13.58v65.73a72.51,72.51,0,0,0,1.05,13.53q1,5.4,3.91,6.9t8.1-1.59a21.85,21.85,0,0,0,8.26-8.38,37.26,37.26,0,0,0,4-12,95.75,95.75,0,0,0,1.13-15.4V691.05l-13.07,7.73v-18l33-19.53V740.9l-14.27,8.43-1.65-14.53a61.28,61.28,0,0,1-7.28,17A38.51,38.51,0,0,1,466,764.61Z" transform="translate(-433.4 -209.94)"/><path class="cls-1" d="M552.45,713.46q-12.91,7.63-20.57,6t-11-11.35q-3.3-9.69-3.3-25.58V623.74a121.06,121.06,0,0,1,3.3-29.19,68.05,68.05,0,0,1,11-23.84,67.33,67.33,0,0,1,20.57-18.17q13.21-7.81,20.8-6.29t11,10.87q3.38,9.35,3.38,25.24V641.3a120.59,120.59,0,0,1-3.38,29.24,72.38,72.38,0,0,1-11,24.32A65.93,65.93,0,0,1,552.45,713.46Zm0-21.13a21.9,21.9,0,0,0,8.19-7.94,31.08,31.08,0,0,0,3.53-10.62,82.84,82.84,0,0,0,.9-12.36V589.09a61.17,61.17,0,0,0-.9-11.3c-.61-3.13-1.78-5.18-3.53-6.15s-4.48-.35-8.19,1.84a21.83,21.83,0,0,0-8,7.71,29,29,0,0,0-3.61,10.37,80.24,80.24,0,0,0-.9,12.36v72.32a69.44,69.44,0,0,0,.83,11.34c.55,3.29,1.72,5.44,3.53,6.44S548.85,694.46,552.45,692.33Z" transform="translate(-433.4 -209.94)"/><path class="cls-1" d="M604,680.87v-157l22.22-13.15V648l29.43-17.4v19.78Z" transform="translate(-433.4 -209.94)"/><path class="cls-1" d="M661,647.13,685.33,475.7l23.72-14,24.33,142.66-20.57,12.16L708,583.08,686.83,595.6l-5,39.19ZM689.08,576l16.52-9.76-8.26-61Z" transform="translate(-433.4 -209.94)"/><path class="cls-1" d="M744.94,597.49v-157l15.46-9.15L790,503.38V413.81L808.3,403V560l-14.72,8.7-29.72-76.26V586.3Z" transform="translate(-433.4 -209.94)"/><path class="cls-1" d="M857.25,533.21q-12,7.1-19.07,4.68T828,525.18Q825,514.88,825,498.4V445.66a147.46,147.46,0,0,1,3-30.86,69,69,0,0,1,10.58-25q7.59-11,21-18.88,12.46-7.36,19.82-6.29T889.9,374q3.24,8.26,3.23,22.81V405L872,417.48v-8.92a79.43,79.43,0,0,0-.82-12.5q-.84-4.94-3.31-6.29t-8,1.94a21.23,21.23,0,0,0-8.48,8.7A33.5,33.5,0,0,0,848,412.06a129.84,129.84,0,0,0-.67,13.58v65.73a72.51,72.51,0,0,0,1,13.53q1.05,5.4,3.9,6.9t8.11-1.59a21.92,21.92,0,0,0,8.26-8.38,37.26,37.26,0,0,0,4-12,95.82,95.82,0,0,0,1.12-15.4V459.65l-13.06,7.73v-18l33-19.53V509.5l-14.26,8.43-1.65-14.53a61.28,61.28,0,0,1-7.28,17A38.51,38.51,0,0,1,857.25,533.21Z" transform="translate(-433.4 -209.94)"/></svg>