<?xml version="1.0" encoding="utf-8"?>
<!-- Generator: Adobe Illustrator 23.0.5, SVG Export Plug-In . SVG Version: 6.00 Build 0)  -->
<svg version="1.1" id="Layer_1" xmlns="http://www.w3.org/2000/svg" xmlns:xlink="http://www.w3.org/1999/xlink" x="0px" y="0px"
	 viewBox="0 0 479 479" style="enable-background:new 0 0 479 479;" xml:space="preserve">
<style type="text/css">
	.st0{fill:#000083;}
</style>
<path class="st0" d="M483.2,226.8c0.3-0.7,0.4-1.5,0.5-2.3c0-0.8-0.1-1.7-0.4-2.5l-0.6-1.7c-6.5-63.1-37.8-121-87-160.9
	c-3.5-2.9-7.2-5.5-10.9-8.1c-0.2-0.2-0.3-0.4-0.5-0.5c-0.2-0.1-0.4-0.1-0.5-0.2c-40.7-29.2-89.5-44.9-139.5-45c-2.1,0-4.1,0-5.7,0.2
	c-26.7,0.5-53.1,5.6-78.1,15c-21.7-16.9-51.1-20-75.8-7.9S44.4,49.9,44.4,77.4c0.5,9.1,2.6,18.1,6.3,26.5
	c-8.2,11.1-15.3,23-21.5,35.4c-0.1,0.2-0.2,0.4-0.3,0.6C-27.7,257,19.4,398,135.2,457.5C250.9,517,393,473.3,455.3,359
	c17.1-31.4,26.8-66.3,28.4-102.1c0.2-3.9,0.3-7.8,0.3-11.7C484,239,483.7,232.9,483.2,226.8z M460,185.8c-1-0.9-2-1.9-3-2.8
	c-10.4-7.9-22.3-13.8-34.9-17.4c-11.5-2.9-23.5-3-35-0.4c-9.8,2.2-20,2.3-29.9,0.1c-19.1-4.2-34.2-7.5-42.2-20.3
	c-11.5-18.4-6.1-44.2,6-53.3c4-2.8,8.9-3.8,13.7-2.9c8.5,0.7,17-0.7,24.8-4.2c8.3-3.9,15.6-9.5,21.6-16.4c1.5,1.2,3.1,2.2,4.6,3.4
	C421.6,101,447.6,140.9,460,185.8z M116.3,21.4c30.9,0.1,55.9,25.1,55.9,55.9c0,23.9-35.9,78.6-55.9,106.4
	c-19-25.7-35.5-53.1-49.3-81.9c-3.8-7.7-6-16-6.6-24.5C60.4,46.5,85.4,21.5,116.3,21.4z M20.4,245.2c0-14.9,1.5-29.8,4.5-44.4
	c0.9,11.1,2.3,21,3.6,29.6c5,32.8,9.6,63.7,33.8,91.9c10.1,11.9,27,31.8,53.2,34.7c26.2,2.9,58.9-12.1,68.4-16.8l3.6-1.8
	c5-3.2,10.8-5,16.7-5.3c10.1,0.9,19.5,5.7,26.2,13.4c13.6,15.1,17.1,40.3,7.4,54c-3.1,4.1-7.4,7-12.3,8.5c-8.4,2.8-15.5,8.5-20,16
	c-6.8,12.2-8,26.8-3.5,40C96.7,444.5,20.6,352.5,20.4,245.2z M244.2,469c-7.7,0-15.4-0.4-23.1-1.2c-0.7-0.8-1.3-1.7-1.8-2.6
	c-5.4-10-5.5-22-0.2-32.1c2.9-4.6,7.4-7.9,12.6-9.4c7.6-2.6,14.3-7.5,19.1-14c13.9-19.5,10-53.4-8.6-73.9
	c-9.6-11-23.3-17.7-37.9-18.6H204c-8.4,0.3-16.6,2.7-23.8,7.1l-3.4,1.7c-17.5,8.6-42.3,17.1-59.5,15.2
	c-19.8-2.2-33.6-18.5-42.8-29.2c-21.2-24.8-25.3-52.2-30.1-83.9c-5.1-27.1-5.3-55-0.6-82.2c4.3-8.7,9.1-17.1,14.5-25.1
	c0.3,0.5,0.6,1.1,0.8,1.6c0.5,1,1,2,1.6,3c0.8,1.5,1.6,3,2.4,4.5c0.6,1,1.1,2,1.7,3.1c0.8,1.5,1.7,3,2.6,4.6c0.6,1,1.2,2,1.7,3
	c0.9,1.5,1.8,3,2.7,4.5c0.6,1,1.2,2,1.8,3c0.9,1.6,1.9,3.1,2.8,4.6c0.5,0.9,1.1,1.8,1.6,2.6c1.2,1.9,2.4,3.7,3.5,5.6
	c0.3,0.5,0.6,1,0.9,1.5c1.5,2.3,2.9,4.5,4.3,6.6c0.5,0.8,1.1,1.6,1.6,2.4c0.9,1.3,1.8,2.6,2.6,3.9l1.9,2.8c0.7,1,1.4,2,2.1,3
	l1.9,2.8c0.6,0.9,1.2,1.7,1.8,2.5c0.6,0.8,1.2,1.7,1.8,2.5c0.6,0.8,1,1.4,1.5,2.1l1.6,2.2l1.3,1.8l1.3,1.8l1,1.4l1,1.3l0.6,0.8
	c0.7,1,1.3,1.7,1.4,1.9c1.5,2,3.9,3.2,6.4,3.2s4.9-1.2,6.4-3.2c6.7-8.9,65.6-87.8,65.6-124.7c0-2.3-0.1-4.7-0.4-7
	c-0.1-0.7-0.2-1.4-0.3-2.1c-0.2-1.6-0.5-3.2-0.8-4.8c-0.2-0.8-0.3-1.5-0.5-2.3c-0.4-1.6-0.8-3.2-1.3-4.8c-0.2-0.6-0.4-1.3-0.6-1.9
	c-0.7-2.1-1.5-4.3-2.4-6.3c-0.2-0.4-0.4-0.8-0.6-1.2c-0.8-1.7-1.6-3.3-2.5-4.9c-0.4-0.7-0.8-1.4-1.3-2.1c-0.8-1.3-1.6-2.5-2.4-3.7
	c-0.5-0.7-1-1.4-1.5-2.1c-0.3-0.4-0.5-0.7-0.8-1.1c16.6-5.6,33.9-9.2,51.4-10.6c-12.5,23.5-16.5,45.3-11.9,64.7
	c3.5,13,10.1,25,19.2,35c7.5,9.3,12.9,16,12.6,27c-0.7,23.2-26.9,42.5-36.8,49.8c-13,9.4-27.5,16.4-42.9,20.7
	c-14.5,4.7-27,8.8-31.8,23.1c-4.7,18.9,3,38.7,19.4,49.3c9.8,5.3,21.3,6.3,31.8,2.8c11.6-2.7,23.5-3.3,35.3-1.7
	c15.2,2.2,28.3,4,34.5,12.7c3.7,5.2,3.5,10.6,2.8,20.4c-1.6,13.9-0.2,28.1,4.1,41.4c3.6,10.9,9.2,27.4,22.4,29.4
	c0.9,0.1,1.7,0.2,2.6,0.2c9.4,0,15.1-8.3,21.1-17c2.7-3.8,5.6-8,9.1-12.2c16.4,26.6,33.2,48.8,33.9,49.8c1.5,2,3.9,3.2,6.4,3.2
	c2.5,0,4.9-1.2,6.4-3.2c17.3-23.2,33.1-47.6,47.3-72.8c9.8,2.8,19.2,7.1,27.8,12.7C397.6,426.6,323.9,469.1,244.2,469z M393.4,251.5
	c11.9,10.6,18.7,25.7,18.7,41.7c0,5.7-2.3,17.1-13.4,38.8c-12.7,23.5-26.9,46-42.5,67.6c-7.5-10.5-20.5-29.1-32-48.6
	c-6.5-10.7-12.2-21.8-17.3-33.3c-3.8-7.7-6-16-6.6-24.5c0-30.9,25.1-55.9,55.9-55.9c1.7,0,3.4,0.1,5.1,0.2
	C373.2,238.6,384.5,243.5,393.4,251.5z M467.7,256.1c-1.4,30.4-9,60.2-22.5,87.5c-8.8-5.5-18.2-9.9-28.1-13.1
	c6.2-11.6,9.9-24.3,10.9-37.3c-0.1-27.4-15.7-52.5-40.3-64.6l-0.5-0.2c-1.8-0.9-3.6-1.7-5.5-2.4c-1.3-0.5-2.6-0.9-3.9-1.3
	c-0.8-0.2-1.5-0.5-2.3-0.8c-2.1-0.6-4.2-1.1-6.3-1.5h-0.1c-1.3-0.2-2.6-0.4-3.9-0.5c-20.6-2.8-41.3,3.4-56.9,17.1
	c-15.6,13.7-24.5,33.5-24.3,54.2c0.6,10.7,3.3,21.1,7.9,30.7c4.5,10.2,9.5,20.1,15.1,29.8c-5,5.5-9.6,11.3-13.7,17.5
	c-2.2,3.8-5,7.2-8.2,10.1c-1.6-0.2-4.6-3.7-9.6-18.6c-3.7-11.4-4.8-23.4-3.4-35.2c2.1-10.6,0-21.7-5.7-30.8
	c-10.2-14.3-28-16.8-45.4-19.2c-13.5-1.8-27.2-1.2-40.4,1.8c-10.2,2-15,2.7-20.4-0.7c-9.9-6.8-14.9-18.8-12.6-30.6
	c2.1-6.4,8.5-8.7,21.6-13c17-4.9,33.1-12.7,47.5-23.1c11.6-8.5,42.4-31.2,43.3-62.1c0.5-16.9-8-27.4-16.1-37.5
	c-7.6-8.1-13.1-17.9-16-28.6c-4.2-17.8,1-38.7,15.3-62.1h0.9c44,0.1,87,13.1,123.7,37.4c-4.2,4.7-9.4,8.6-15.1,11.3
	c-5.6,2.4-11.7,3.4-17.7,2.8c-8.4-1-16.9,1.1-23.8,6.1c-18.1,13.6-26.2,48.4-10,74.6c11.6,18.5,31.4,22.8,53,27.5
	c11.6,2.5,23.7,2.4,35.3-0.2c9.3-2.2,19.1-2.2,28.4,0.1c10.5,3,20.3,7.9,29,14.5c9,7.5,15.9,17.3,19.8,28.3
	c0.7,7.1,1.1,14.1,1.1,21.3C468,248.8,467.9,252.4,467.7,256.1L467.7,256.1z"/>
<path class="st0" d="M116.3,101.4c17.7,0,32-14.3,32-32c0-17.7-14.3-32-32-32s-32,14.3-32,32C84.4,87.1,98.7,101.4,116.3,101.4z
	 M116.3,53.4c8.8,0,16,7.2,16,16s-7.2,16-16,16s-16-7.2-16-16S107.5,53.4,116.3,53.4z"/>
<path class="st0" d="M324.1,285.2c0,17.7,14.3,32,32,32c17.7,0,32-14.3,32-32c0-17.7-14.3-32-32-32
	C338.5,253.2,324.1,267.5,324.1,285.2z M372.1,285.2c0,8.8-7.2,16-16,16c-8.8,0-16-7.2-16-16c0-8.8,7.2-16,16-16
	C364.9,269.2,372.1,276.4,372.1,285.2z"/>
</svg>
