<?xml version="1.0" encoding="utf-8"?>
<!-- Generator: Adobe Illustrator 23.0.5, SVG Export Plug-In . SVG Version: 6.00 Build 0)  -->
<svg version="1.1" id="Capa_1" xmlns="http://www.w3.org/2000/svg" xmlns:xlink="http://www.w3.org/1999/xlink" x="0px" y="0px"
	 viewBox="0 0 512 512" style="enable-background:new 0 0 512 512;" xml:space="preserve">
<style type="text/css">
	.st0{fill:#FFFFFF;}
</style>
<g>
	<g>
		<path class="st0" d="M492,236H20c-11,0-20,9-20,20c0,11,9,20,20,20h472c11,0,20-9,20-20S503,236,492,236z"/>
	</g>
</g>
<g>
	<g>
		<path class="st0" d="M492,76H20C9,76,0,85,0,96s9,20,20,20h472c11,0,20-9,20-20S503,76,492,76z"/>
	</g>
</g>
<g>
	<g>
		<path class="st0" d="M492,396H20c-11,0-20,9-20,20s9,20,20,20h472c11,0,20-9,20-20S503,396,492,396z"/>
	</g>
</g>
</svg>
