<svg id="Layer_1" data-name="Layer 1" xmlns="http://www.w3.org/2000/svg" viewBox="0 0 1013.7 458.57"><defs><style>.cls-1{fill:#ffd83b;}.cls-2{fill:#fff;}</style></defs><title>new_banner</title><path class="cls-1" d="M28.78,267.25l14.63-39.6L29.32,193.18H43.59l8.78,21.31,7.41-21.31H72.49L59,231.13l14.82,36.12H59.69L50,243.93l-8.5,23.32Z" transform="translate(-26.29 -168.58)"/><path class="cls-1" d="M76.42,267.25l14.36-74.07h16.73l14.27,74.07h-14L105.13,251H93.43l-2.84,16.28ZM84.74,187l8.51-17.19H105L113.64,187H103.49L99.1,176.08,94.8,187ZM94.8,241.74h8.87l-4.48-29.91Z" transform="translate(-26.29 -168.58)"/><path class="cls-1" d="M135.68,267.25V237.9l-14.45-44.72H135.4l8,26.06,7.41-26.06h13.71L150.22,237.9v29.35Z" transform="translate(-26.29 -168.58)"/><path class="cls-1" d="M193.1,267.25V193.18h18.11q9.42,0,14.68,2.42a14.32,14.32,0,0,1,7.45,7.59q2.21,5.17,2.2,13.22v27q0,8.24-2.2,13.54a14.69,14.69,0,0,1-7.36,7.82c-3.44,1.67-8.25,2.51-14.4,2.51Zm15.09-10.52h3.2q4.22,0,6-1.32a5.92,5.92,0,0,0,2.24-3.93,37.67,37.67,0,0,0,.46-6.45V214.49a26.32,26.32,0,0,0-.59-6.18,5.43,5.43,0,0,0-2.38-3.43q-1.79-1.09-5.81-1.09h-3.11Z" transform="translate(-26.29 -168.58)"/><path class="cls-1" d="M266.35,268.26q-8.42,0-13.07-2.88a15.31,15.31,0,0,1-6.54-8.33,40.76,40.76,0,0,1-1.88-13.21V193.18h14.91v52.76a35.76,35.76,0,0,0,.41,5.4,8.42,8.42,0,0,0,1.83,4.3,5.43,5.43,0,0,0,4.34,1.64,5.57,5.57,0,0,0,4.44-1.64,8.14,8.14,0,0,0,1.78-4.3,38.57,38.57,0,0,0,.37-5.4V193.18h14.9v50.66A40.78,40.78,0,0,1,286,257.05a15.31,15.31,0,0,1-6.54,8.33Q274.77,268.26,266.35,268.26Zm-6.12,17.37V273.56h12.25v12.07Zm18.29-86.69v-5.76h.91a4,4,0,0,0,3.84-1.92,11.68,11.68,0,0,0,1.1-5.67h9.78q0,6.67-4,10t-10.7,3.34Z" transform="translate(-26.29 -168.58)"/><path class="cls-1" d="M298.36,267.25V193.18h10.52l16.46,38.59V193.18h12.43v74.07H327.71l-16.46-41v41Z" transform="translate(-26.29 -168.58)"/><path class="cls-1" d="M368,268.35q-7.5,0-11.89-3.16a17.09,17.09,0,0,1-6.26-9,44,44,0,0,1-1.88-13.49V218a43.59,43.59,0,0,1,1.92-13.72,16.4,16.4,0,0,1,6.72-8.87q4.8-3.1,13-3.11,7.95,0,12.57,2.66a15.09,15.09,0,0,1,6.63,7.5,30,30,0,0,1,2,11.52v4.3H376.09V213a31.53,31.53,0,0,0-.37-5.16,6.06,6.06,0,0,0-1.69-3.52,5.92,5.92,0,0,0-4.25-1.28,5.56,5.56,0,0,0-4.39,1.55,7.5,7.5,0,0,0-1.74,4,35.13,35.13,0,0,0-.36,5.16v32.83a26.14,26.14,0,0,0,.54,5.58,7.14,7.14,0,0,0,2.06,3.84,6.24,6.24,0,0,0,4.35,1.37,6.16,6.16,0,0,0,4.39-1.46,7.71,7.71,0,0,0,2.14-4,24.65,24.65,0,0,0,.6-5.71v-7.87h-7.23v-9.14H391v38h-9.87l-.92-6.67a13.56,13.56,0,0,1-4.39,5.57A12.75,12.75,0,0,1,368,268.35Z" transform="translate(-26.29 -168.58)"/><path class="cls-1" d="M434.7,267.25l-14.08-74.07H433.7l8.78,51.21,8.23-51.21h13.62l-14.08,74.07Z" transform="translate(-26.29 -168.58)"/><path class="cls-1" d="M465.7,267.25l14.36-74.07H496.8l14.26,74.07h-14L494.42,251H482.71l-2.83,16.28Zm18.84-79.65L473.2,169.31h14.18l5.48,18.29Zm-.46,54.14H493l-4.49-29.91Z" transform="translate(-26.29 -168.58)"/><path class="cls-1" d="M577.91,281.88a28.73,28.73,0,0,1-4.85-3.11,46.37,46.37,0,0,1-5.39-4.89,36,36,0,0,1-4.48-5.71,3.33,3.33,0,0,1-.78.09h-.87q-8.14,0-12.89-2.93a16.32,16.32,0,0,1-6.82-8.37,36.9,36.9,0,0,1-2.05-13V216.31a36.57,36.57,0,0,1,2.05-13,15.88,15.88,0,0,1,6.82-8.23q4.76-2.83,12.89-2.84t13,2.89a16,16,0,0,1,6.86,8.23,36.11,36.11,0,0,1,2.06,12.93v27.62a43.57,43.57,0,0,1-1,9.56,20.3,20.3,0,0,1-3.16,7.36,15.48,15.48,0,0,1-5.85,4.94c.79.85,1.62,1.7,2.47,2.56s1.71,1.64,2.56,2.38a18.93,18.93,0,0,0,2.47,1.82Zm-16.37-24.51a6,6,0,0,0,4.3-1.32,6.7,6.7,0,0,0,1.83-3.57,24.29,24.29,0,0,0,.46-4.8v-35a23.73,23.73,0,0,0-.46-4.76,6.73,6.73,0,0,0-1.83-3.52,6,6,0,0,0-4.3-1.32,5.89,5.89,0,0,0-4.21,1.32,6.47,6.47,0,0,0-1.78,3.52,26.3,26.3,0,0,0-.41,4.76v35a26.91,26.91,0,0,0,.41,4.8,6.45,6.45,0,0,0,1.78,3.57A5.89,5.89,0,0,0,561.54,257.37Z" transform="translate(-26.29 -168.58)"/><path class="cls-1" d="M614.4,268.26q-8.42,0-13.08-2.88a15.31,15.31,0,0,1-6.54-8.33,40.78,40.78,0,0,1-1.87-13.21V193.18h14.9v52.76a35.76,35.76,0,0,0,.41,5.4,8.51,8.51,0,0,0,1.83,4.3,5.45,5.45,0,0,0,4.35,1.64,5.56,5.56,0,0,0,4.43-1.64,8.06,8.06,0,0,0,1.78-4.3,38.57,38.57,0,0,0,.37-5.4V193.18h14.91v50.66A40.76,40.76,0,0,1,634,257.05a15.31,15.31,0,0,1-6.54,8.33Q622.81,268.26,614.4,268.26Z" transform="translate(-26.29 -168.58)"/><path class="cls-1" d="M642.19,267.25l14.36-74.07h16.74l14.26,74.07h-14L670.91,251H659.2l-2.83,16.28ZM665,188.52,660.39,184a39.46,39.46,0,0,0,4.53-2.51,3.74,3.74,0,0,0,1.87-3.25,2.61,2.61,0,0,0-1.46-2.56,8.73,8.73,0,0,0-3.84-.73,22.25,22.25,0,0,0-2.79.18c-1,.13-1.81.28-2.61.46v-5.94a35.16,35.16,0,0,1,8.87-1.1,16.56,16.56,0,0,1,5.45.87,8.56,8.56,0,0,1,4,2.79,8,8,0,0,1,1.51,5.12,8.68,8.68,0,0,1-1.51,5.21,12,12,0,0,1-4,3.48A38.86,38.86,0,0,1,665,188.52Zm-4.38,53.22h8.87L665,211.83Z" transform="translate(-26.29 -168.58)"/><path class="cls-1" d="M694.5,267.25V193.18H705l16.46,38.59V193.18h12.44v74.07H723.86l-16.46-41v41Z" transform="translate(-26.29 -168.58)"/><path class="cls-1" d="M775,267.25V204.43H763.54V193.18H801.4v11.25H790.15v62.82Z" transform="translate(-26.29 -168.58)"/><path class="cls-1" d="M808.08,267.25V193.18h19.2a42.86,42.86,0,0,1,12.85,1.69,15,15,0,0,1,8.23,6q2.88,4.3,2.88,11.89a37.56,37.56,0,0,1-.78,8.09,15.66,15.66,0,0,1-2.74,6.13,13.54,13.54,0,0,1-5.53,4.16l10.24,36.12H837l-8.5-33.56h-5.3v33.56Zm15.09-42.52h4.39a11.82,11.82,0,0,0,5.76-1.19,6.53,6.53,0,0,0,3-3.61,17.92,17.92,0,0,0,.87-6c0-3.42-.63-6-1.88-7.82s-3.58-2.7-7-2.7h-5.12Z" transform="translate(-26.29 -168.58)"/><path class="cls-1" d="M861.3,267.25V193.18h15v74.07Zm1.28,18.38V273.56h12.25v12.07Z" transform="translate(-26.29 -168.58)"/><path class="cls-1" d="M40.3,385l-9.6-74.07H43.5l5.12,45.27L55.11,311H65.26L72,356.1l5.12-45.17H89.77L80.26,385H67.46l-7.23-46.91L53.38,385Z" transform="translate(-26.29 -168.58)"/><path class="cls-1" d="M97.73,385V310.93H130v10.42H112.82V341h13.26v10.51H112.82v23.23h17.37V385Z" transform="translate(-26.29 -168.58)"/><path class="cls-1" d="M137.78,385V310.93h18.75a45.6,45.6,0,0,1,9,.82,20.11,20.11,0,0,1,7.27,2.93,13.52,13.52,0,0,1,4.84,5.81,23.3,23.3,0,0,1,1.7,9.64,20.38,20.38,0,0,1-1.28,7.64,11.75,11.75,0,0,1-3.66,5,13.38,13.38,0,0,1-5.85,2.47,15.2,15.2,0,0,1,7.22,2.93,13.87,13.87,0,0,1,4.39,6,25.08,25.08,0,0,1,1.46,9.06,29.91,29.91,0,0,1-1.41,9.69A17,17,0,0,1,176,379.7a17.38,17.38,0,0,1-6.76,4,30,30,0,0,1-9.33,1.32Zm15.09-44.17h3.75a12.3,12.3,0,0,0,5.94-1.14,6,6,0,0,0,2.79-3.48,18.1,18.1,0,0,0,.78-5.71,11.19,11.19,0,0,0-1.14-5.44,6.64,6.64,0,0,0-3.48-3,16.27,16.27,0,0,0-5.9-.92h-2.74Zm0,33.56h4.21c3.77,0,6.38-.94,7.81-2.83s2.15-4.73,2.15-8.51a19.92,19.92,0,0,0-1-7,7.14,7.14,0,0,0-3.25-3.84,12.33,12.33,0,0,0-6-1.24h-3.93Z" transform="translate(-26.29 -168.58)"/><path class="cls-1" d="M209.47,386A23.46,23.46,0,0,1,198,383.49a15.89,15.89,0,0,1-6.9-7.59,34.84,34.84,0,0,1-2.7-12.94l13-2.19a37.47,37.47,0,0,0,1,7.63,9.27,9.27,0,0,0,2.37,4.58,5.61,5.61,0,0,0,4,1.5c1.95,0,3.28-.6,4-1.82a8.3,8.3,0,0,0,1.05-4.21,13.18,13.18,0,0,0-2.24-7.82,37.08,37.08,0,0,0-5.9-6.35L198,347.6a31.21,31.21,0,0,1-6.72-7.86,20.82,20.82,0,0,1-2.61-10.8q0-9.13,5.35-14T208.65,310a20.16,20.16,0,0,1,9.15,1.82,14,14,0,0,1,5.53,4.9,20.05,20.05,0,0,1,2.74,6.67,44.63,44.63,0,0,1,1,7.18l-12.89,1.92a57.87,57.87,0,0,0-.6-5.94,8.14,8.14,0,0,0-1.64-4,4.61,4.61,0,0,0-3.71-1.46,4.36,4.36,0,0,0-3.93,2,7.82,7.82,0,0,0-1.28,4.34,11,11,0,0,0,1.78,6.45,31.69,31.69,0,0,0,4.9,5.26l7.5,6.58a43.05,43.05,0,0,1,8,9.19,23.08,23.08,0,0,1,3.33,12.76,18.88,18.88,0,0,1-2.37,9.42,17.11,17.11,0,0,1-6.63,6.58A20.29,20.29,0,0,1,209.47,386Z" transform="translate(-26.29 -168.58)"/><path class="cls-1" d="M235.44,385V310.93h15V385Z" transform="translate(-26.29 -168.58)"/><path class="cls-1" d="M268.73,385V322.18H257.3V310.93h37.86v11.25H283.91V385Z" transform="translate(-26.29 -168.58)"/><path class="cls-1" d="M301.83,385V310.93h32.28v10.42H316.92V341h13.26v10.51H316.92v23.23H334.3V385Z" transform="translate(-26.29 -168.58)"/><path class="cls-1" d="M364.75,385V310.93h18.74a45.71,45.71,0,0,1,9,.82,20.18,20.18,0,0,1,7.27,2.93,13.59,13.59,0,0,1,4.84,5.81,23.3,23.3,0,0,1,1.7,9.64,20.18,20.18,0,0,1-1.29,7.64,11.65,11.65,0,0,1-3.65,5,13.37,13.37,0,0,1-5.86,2.47,15.19,15.19,0,0,1,7.23,2.93,13.87,13.87,0,0,1,4.39,6,25.08,25.08,0,0,1,1.46,9.06,29.63,29.63,0,0,1-1.42,9.69A16.84,16.84,0,0,1,403,379.7a17.45,17.45,0,0,1-6.76,4,30,30,0,0,1-9.33,1.32Zm15.09-44.17h3.75a12.3,12.3,0,0,0,5.94-1.14,6,6,0,0,0,2.79-3.48,18.1,18.1,0,0,0,.78-5.71,11.07,11.07,0,0,0-1.15-5.44,6.58,6.58,0,0,0-3.47-3,16.31,16.31,0,0,0-5.9-.92h-2.74Zm0,33.56H384q5.67,0,7.82-2.83t2.15-8.51a19.92,19.92,0,0,0-1-7,7.18,7.18,0,0,0-3.25-3.84,12.36,12.36,0,0,0-6-1.24h-3.93Z" transform="translate(-26.29 -168.58)"/><path class="cls-1" d="M413.4,385l14.35-74.07h16.74L458.75,385h-14l-2.65-16.28h-11.7L427.57,385Zm22.77-79.28q-6.5,0-10.2-3.66t-3.7-10.24h7.86a7.78,7.78,0,0,0,1.37,5c.92,1.09,2.47,1.64,4.67,1.64s3.67-.56,4.62-1.69a7.62,7.62,0,0,0,1.41-5H450q0,6.58-3.66,10.24T436.17,305.72Zm-2.29-17.56-10-10.7h11.53l6.4,10.7Zm-2.1,71.33h8.87l-4.48-29.91Z" transform="translate(-26.29 -168.58)"/><path class="cls-1" d="M465.7,385V310.93h10.52l16.46,38.59V310.93h12.44V385H495.06L478.6,344v41Z" transform="translate(-26.29 -168.58)"/><path class="cls-1" d="M535.29,386.1q-7.5,0-11.88-3.16a17.1,17.1,0,0,1-6.27-9,44,44,0,0,1-1.87-13.49V335.71A43.64,43.64,0,0,1,517.19,322a16.4,16.4,0,0,1,6.72-8.87q4.8-3.11,13-3.1,8,0,12.57,2.65a15.14,15.14,0,0,1,6.63,7.5,29.78,29.78,0,0,1,2,11.52V336H543.43v-5.22a32.77,32.77,0,0,0-.36-5.16,6.12,6.12,0,0,0-1.69-3.52,6,6,0,0,0-4.26-1.28,5.57,5.57,0,0,0-4.39,1.55,7.57,7.57,0,0,0-1.73,4,33.77,33.77,0,0,0-.37,5.16v32.83a25.48,25.48,0,0,0,.55,5.58,7.07,7.07,0,0,0,2.06,3.84,7.4,7.4,0,0,0,8.73-.09,7.72,7.72,0,0,0,2.15-4,24.69,24.69,0,0,0,.59-5.71V356.1h-7.22V347h20.85v38h-9.88l-.91-6.67a13.64,13.64,0,0,1-4.39,5.57A12.76,12.76,0,0,1,535.29,386.1Z" transform="translate(-26.29 -168.58)"/><path class="cls-1" d="M598.21,385l-9.6-74.07h12.8l5.12,45.27L613,311h10.15l6.77,45.08,5.12-45.17h12.62L638.17,385h-12.8l-7.22-46.91L611.29,385Z" transform="translate(-26.29 -168.58)"/><path class="cls-1" d="M676.31,386q-8.14,0-12.9-2.93a16.26,16.26,0,0,1-6.81-8.37,36.88,36.88,0,0,1-2.06-13V334.07a36.57,36.57,0,0,1,2.06-13,15.82,15.82,0,0,1,6.81-8.23q4.76-2.84,12.9-2.83t13,2.88a16,16,0,0,1,6.86,8.23,36.14,36.14,0,0,1,2,12.94v27.61a36.9,36.9,0,0,1-2,13,16.25,16.25,0,0,1-6.86,8.37Q684.54,386,676.31,386Zm0-10.88a6,6,0,0,0,4.29-1.33,6.57,6.57,0,0,0,1.83-3.57,23.56,23.56,0,0,0,.46-4.8v-35a23,23,0,0,0-.46-4.76,6.59,6.59,0,0,0-1.83-3.52,6,6,0,0,0-4.29-1.32,5.75,5.75,0,0,0-4.12,1.32,6.73,6.73,0,0,0-1.83,3.52,23.73,23.73,0,0,0-.46,4.76v35a26,26,0,0,0,.42,4.8,6.33,6.33,0,0,0,1.78,3.57A5.87,5.87,0,0,0,676.31,375.13Z" transform="translate(-26.29 -168.58)"/><path class="cls-1" d="M708.31,385V310.93h19.2a42.82,42.82,0,0,1,12.85,1.69,15,15,0,0,1,8.23,6q2.88,4.31,2.88,11.89a38.25,38.25,0,0,1-.77,8.09,15.68,15.68,0,0,1-2.75,6.13,13.47,13.47,0,0,1-5.53,4.16L752.66,385H737.21l-8.51-33.56h-5.3V385Zm15.09-42.52h4.39a11.77,11.77,0,0,0,5.76-1.19,6.53,6.53,0,0,0,3-3.61,17.88,17.88,0,0,0,.87-6c0-3.42-.63-6-1.87-7.82s-3.59-2.7-7-2.7H723.4Z" transform="translate(-26.29 -168.58)"/><path class="cls-1" d="M761.35,385V310.93h18.11q9.42,0,14.67,2.42a14.34,14.34,0,0,1,7.46,7.59,34.16,34.16,0,0,1,2.19,13.22v27a35.81,35.81,0,0,1-2.19,13.54,14.73,14.73,0,0,1-7.36,7.82q-5.18,2.5-14.41,2.51Zm15.09-10.52h3.2q4.2,0,6-1.32a6,6,0,0,0,2.24-3.93,38.72,38.72,0,0,0,.46-6.45V332.24a25.72,25.72,0,0,0-.6-6.18,5.42,5.42,0,0,0-2.37-3.43q-1.79-1.1-5.81-1.09h-3.11Z" transform="translate(-26.29 -168.58)"/><path class="cls-1" d="M813.75,385V310.93h23.5q6.68,0,10.88,2.51a15.27,15.27,0,0,1,6.27,7.27,29,29,0,0,1,2.06,11.53c0,5.3-.91,9.45-2.7,12.43A15,15,0,0,1,846.4,351a28.53,28.53,0,0,1-10.7,1.87h-6.86V385Zm15.09-42.7h5.3a10,10,0,0,0,5.08-1.06,5.35,5.35,0,0,0,2.42-3.33,22.16,22.16,0,0,0,.64-5.86,27.4,27.4,0,0,0-.5-5.67,5.85,5.85,0,0,0-2.24-3.56c-1.16-.86-3-1.28-5.49-1.28h-5.21Z" transform="translate(-26.29 -168.58)"/><path class="cls-1" d="M863.68,385V310.93h19.2a42.82,42.82,0,0,1,12.85,1.69,15,15,0,0,1,8.23,6q2.88,4.31,2.88,11.89a37.56,37.56,0,0,1-.78,8.09,15.52,15.52,0,0,1-2.74,6.13,13.47,13.47,0,0,1-5.53,4.16L908,385H892.58l-8.51-33.56h-5.3V385Zm15.09-42.52h4.39a11.82,11.82,0,0,0,5.76-1.19,6.53,6.53,0,0,0,3-3.61,17.88,17.88,0,0,0,.87-6c0-3.42-.63-6-1.88-7.82s-3.58-2.7-7-2.7h-5.12Z" transform="translate(-26.29 -168.58)"/><path class="cls-1" d="M916.72,385V310.93H949v10.42H931.81V341h13.26v10.51H931.81v23.23h17.37V385Z" transform="translate(-26.29 -168.58)"/><path class="cls-1" d="M976,386a23.46,23.46,0,0,1-11.43-2.52,15.89,15.89,0,0,1-6.9-7.59,34.84,34.84,0,0,1-2.7-12.94l13-2.19a37.47,37.47,0,0,0,1,7.63,9.27,9.27,0,0,0,2.37,4.58,5.61,5.61,0,0,0,4,1.5c2,0,3.28-.6,4-1.82a8.3,8.3,0,0,0,1-4.21,13.11,13.11,0,0,0-2.24-7.82,37.08,37.08,0,0,0-5.9-6.35l-7.68-6.68a31.21,31.21,0,0,1-6.72-7.86,20.82,20.82,0,0,1-2.6-10.8q0-9.13,5.34-14T975.15,310a20.16,20.16,0,0,1,9.15,1.82,14,14,0,0,1,5.53,4.9,20.05,20.05,0,0,1,2.74,6.67,44.63,44.63,0,0,1,1,7.18l-12.89,1.92a55.19,55.19,0,0,0-.6-5.94,8.14,8.14,0,0,0-1.64-4,4.59,4.59,0,0,0-3.71-1.46,4.38,4.38,0,0,0-3.93,2,7.82,7.82,0,0,0-1.28,4.34,11,11,0,0,0,1.78,6.45,31.69,31.69,0,0,0,4.9,5.26l7.5,6.58a42.78,42.78,0,0,1,8,9.19A23.08,23.08,0,0,1,995,367.63a18.89,18.89,0,0,1-2.38,9.42,17.11,17.11,0,0,1-6.63,6.58A20.26,20.26,0,0,1,976,386Z" transform="translate(-26.29 -168.58)"/><path class="cls-1" d="M1021,386a23.4,23.4,0,0,1-11.43-2.52,16,16,0,0,1-6.91-7.59,35.24,35.24,0,0,1-2.7-12.94l13-2.19a37.47,37.47,0,0,0,1,7.63,9.28,9.28,0,0,0,2.38,4.58,5.58,5.58,0,0,0,4,1.5c2,0,3.27-.6,4-1.82a8.3,8.3,0,0,0,1-4.21,13.11,13.11,0,0,0-2.24-7.82,37.39,37.39,0,0,0-5.89-6.35l-7.69-6.68a31.21,31.21,0,0,1-6.72-7.86,20.91,20.91,0,0,1-2.6-10.8q0-9.13,5.35-14t14.67-4.89a20.16,20.16,0,0,1,9.15,1.82,13.91,13.91,0,0,1,5.53,4.9,19.85,19.85,0,0,1,2.74,6.67,44.63,44.63,0,0,1,1,7.18l-12.89,1.92a58.11,58.11,0,0,0-.59-5.94,8.24,8.24,0,0,0-1.65-4,4.59,4.59,0,0,0-3.7-1.46,4.39,4.39,0,0,0-3.94,2,7.82,7.82,0,0,0-1.28,4.34,10.9,10.9,0,0,0,1.79,6.45,32,32,0,0,0,4.89,5.26l7.5,6.58a42.78,42.78,0,0,1,8,9.19,23,23,0,0,1,3.34,12.76,18.89,18.89,0,0,1-2.38,9.42,17,17,0,0,1-6.63,6.58A20.22,20.22,0,0,1,1021,386Z" transform="translate(-26.29 -168.58)"/><path class="cls-2" d="M48,509.31q-8.24,0-13-3.11a16.42,16.42,0,0,1-6.72-8.64,39.17,39.17,0,0,1-1.92-12.85V458.1a40.49,40.49,0,0,1,1.92-13.22,16,16,0,0,1,6.72-8.55q4.8-3,13-3,7.95,0,12.48,2.65a14.55,14.55,0,0,1,6.4,7.5,31,31,0,0,1,1.88,11.24v6.22H54.09V454a38.28,38.28,0,0,0-.28-4.8,6.61,6.61,0,0,0-1.51-3.66c-.82-.94-2.24-1.41-4.25-1.41a5.77,5.77,0,0,0-4.39,1.46,7,7,0,0,0-1.73,3.79,32.8,32.8,0,0,0-.37,5.17v33.65a26.33,26.33,0,0,0,.5,5.44A6.37,6.37,0,0,0,44,497.19a6,6,0,0,0,4.07,1.23c2,0,3.34-.47,4.16-1.41a7.09,7.09,0,0,0,1.56-3.8,38.22,38.22,0,0,0,.32-5V481H68.72v6.12a33.2,33.2,0,0,1-1.83,11.48,15.49,15.49,0,0,1-6.31,7.87Q56.1,509.31,48,509.31Z" transform="translate(-26.29 -168.58)"/><path class="cls-2" d="M74.3,508.3l14.35-74.07h16.74l14.26,74.07h-14L103,492H91.3L88.47,508.3Zm18.38-25.51h8.87l-4.48-29.91Z" transform="translate(-26.29 -168.58)"/><path class="cls-2" d="M126.88,508.3l1.28-74.07h16L153.3,481l9.79-46.73h15.45l1.28,74.07h-11l-1.19-50.2-9.42,50.2h-9.42L139,457.73l-1,50.57Z" transform="translate(-26.29 -168.58)"/><path class="cls-2" d="M212.74,508.3V434.23h15.09V465.5l13.35-31.27h14.63l-13.9,33.29,14.91,40.78H241.64l-11.43-33.19-2.38,4.2v29Z" transform="translate(-26.29 -168.58)"/><path class="cls-2" d="M262,508.3V434.23h32.28v10.42H277.12v19.67h13.26v10.51H277.12v23.23h17.37V508.3ZM264,428l8.51-15h11.7l8.69,15H283l-4.66-9.14L273.73,428Zm26.61-10.51,4.85-11.07h10.51l-7.86,11.07Z" transform="translate(-26.29 -168.58)"/><path class="cls-2" d="M309,508.3V445.48H297.6V434.23h37.86v11.25H324.21V508.3Z" transform="translate(-26.29 -168.58)"/><path class="cls-2" d="M384.2,509.31a23.43,23.43,0,0,1-11.43-2.52,16,16,0,0,1-6.91-7.59,35.05,35.05,0,0,1-2.69-12.94l13-2.19a37.47,37.47,0,0,0,1,7.63,9.19,9.19,0,0,0,2.38,4.57,5.54,5.54,0,0,0,4,1.51c1.95,0,3.27-.6,4-1.82a8.33,8.33,0,0,0,1.06-4.21,13.12,13.12,0,0,0-2.25-7.82,37.81,37.81,0,0,0-5.89-6.36l-7.68-6.67A31,31,0,0,1,366,463a20.91,20.91,0,0,1-2.6-10.8q0-9.14,5.35-14t14.67-4.89a20.16,20.16,0,0,1,9.15,1.82,14,14,0,0,1,5.53,4.9,19.85,19.85,0,0,1,2.74,6.67,44.63,44.63,0,0,1,1,7.18l-12.89,1.92a58.11,58.11,0,0,0-.59-5.94,8.24,8.24,0,0,0-1.65-4,4.59,4.59,0,0,0-3.7-1.46,4.39,4.39,0,0,0-3.94,2,7.82,7.82,0,0,0-1.28,4.34,10.9,10.9,0,0,0,1.79,6.45,32,32,0,0,0,4.89,5.26l7.5,6.58a42.78,42.78,0,0,1,8,9.19,23.08,23.08,0,0,1,3.34,12.76,18.83,18.83,0,0,1-2.38,9.41,17,17,0,0,1-6.63,6.59A20.22,20.22,0,0,1,384.2,509.31Z" transform="translate(-26.29 -168.58)"/><path class="cls-2" d="M407,508.3l14.35-74.07h16.74l14.26,74.07h-14L435.68,492H424l-2.83,16.28Zm22.77-78.73-4.58-4.48a41,41,0,0,0,4.53-2.52,3.73,3.73,0,0,0,1.87-3.25,2.62,2.62,0,0,0-1.46-2.56,8.7,8.7,0,0,0-3.84-.73,20.55,20.55,0,0,0-2.79.19c-.94.12-1.81.27-2.6.45v-5.94a35,35,0,0,1,8.87-1.1,16.55,16.55,0,0,1,5.44.87,8.56,8.56,0,0,1,4,2.79,8,8,0,0,1,1.51,5.12,8.68,8.68,0,0,1-1.51,5.21,11.93,11.93,0,0,1-4,3.48A39.24,39.24,0,0,1,429.74,429.57Zm-4.39,53.22h8.87l-4.48-29.91Z" transform="translate(-26.29 -168.58)"/><path class="cls-2" d="M459.27,508.3V434.23h10.52l16.46,38.59V434.23h12.43V508.3H488.63l-16.46-41v41Z" transform="translate(-26.29 -168.58)"/><path class="cls-2" d="M532.79,508.3V434.23h23.5q6.68,0,10.88,2.52a15.25,15.25,0,0,1,6.27,7.26,29.06,29.06,0,0,1,2.06,11.53q0,7.95-2.7,12.43a14.92,14.92,0,0,1-7.36,6.36,28.53,28.53,0,0,1-10.7,1.87h-6.86v32.1Zm15.09-42.7h5.3a10,10,0,0,0,5.08-1.06,5.35,5.35,0,0,0,2.42-3.33,22.16,22.16,0,0,0,.64-5.86,27.4,27.4,0,0,0-.5-5.67,5.81,5.81,0,0,0-2.24-3.56c-1.16-.86-3-1.28-5.49-1.28h-5.21Z" transform="translate(-26.29 -168.58)"/><path class="cls-2" d="M582.9,508.3V434.23H598v30.45h13.08V434.23h15.09V508.3H611.07V475.47H598V508.3Z" transform="translate(-26.29 -168.58)"/><path class="cls-2" d="M633.93,508.3l14.35-74.07H665l14.26,74.07h-14L662.64,492h-11.7L648.1,508.3ZM642.25,428l8.5-15h11.71l8.68,15h-9.87l-4.66-9.14L652,428Zm10.06,54.78h8.87l-4.48-29.91Zm20-63-4-4.3A16.19,16.19,0,0,0,671,413a4.55,4.55,0,0,0,1-3,3.15,3.15,0,0,0-1.19-2.65,5,5,0,0,0-3.11-.92,13,13,0,0,0-2.51.23,11.72,11.72,0,0,0-2.06.59v-5.94a28.37,28.37,0,0,1,3.61-1,18.65,18.65,0,0,1,3.7-.36,11.81,11.81,0,0,1,7.36,2.19c1.93,1.47,2.89,3.69,2.89,6.68a9.19,9.19,0,0,1-2.47,6.77A23.37,23.37,0,0,1,672.33,419.78Z" transform="translate(-26.29 -168.58)"/><path class="cls-2" d="M686.51,508.3l1.28-74.07h16L712.93,481l9.79-46.73h15.45l1.28,74.07h-11l-1.19-50.2-9.42,50.2h-9.42l-9.87-50.57-1,50.57Z" transform="translate(-26.29 -168.58)"/><path class="cls-2" d="M48,627.06q-8.24,0-13-3.11a16.4,16.4,0,0,1-6.72-8.65,39.11,39.11,0,0,1-1.92-12.84V575.85a40.49,40.49,0,0,1,1.92-13.22,16,16,0,0,1,6.72-8.55q4.8-3,13-3,7.95,0,12.48,2.65a14.55,14.55,0,0,1,6.4,7.5,31,31,0,0,1,1.88,11.24v6.22H54.09v-6.95a38.28,38.28,0,0,0-.28-4.8,6.61,6.61,0,0,0-1.51-3.66c-.82-.94-2.24-1.41-4.25-1.41a5.77,5.77,0,0,0-4.39,1.46,7,7,0,0,0-1.73,3.79,32.8,32.8,0,0,0-.37,5.17v33.65a26.4,26.4,0,0,0,.5,5.44A6.37,6.37,0,0,0,44,614.94a6,6,0,0,0,4.07,1.23c2,0,3.34-.47,4.16-1.41a7.09,7.09,0,0,0,1.56-3.8,38.22,38.22,0,0,0,.32-5v-7.22H68.72v6.12a33.2,33.2,0,0,1-1.83,11.48,15.43,15.43,0,0,1-6.31,7.86Q56.1,627.07,48,627.06Z" transform="translate(-26.29 -168.58)"/><path class="cls-2" d="M78.14,626.05V552H93.22v30.45H106.3V552h15.09v74.07H106.3V593.22H93.22v32.83Z" transform="translate(-26.29 -168.58)"/><path class="cls-2" d="M140.41,547.32l-4.57-4.48a41.68,41.68,0,0,0,4.52-2.52,3.73,3.73,0,0,0,1.88-3.24,2.63,2.63,0,0,0-1.47-2.57,8.7,8.7,0,0,0-3.84-.73,20.3,20.3,0,0,0-2.78.19q-1.43.18-2.61.45v-5.94a35,35,0,0,1,8.87-1.1,16.55,16.55,0,0,1,5.44.87,8.47,8.47,0,0,1,4,2.79,8,8,0,0,1,1.51,5.12,8.68,8.68,0,0,1-1.51,5.21,11.9,11.9,0,0,1-4,3.48A39.92,39.92,0,0,1,140.41,547.32ZM133,626.05V552h15v74.07Z" transform="translate(-26.29 -168.58)"/><path class="cls-2" d="M201.4,627.06A23.46,23.46,0,0,1,190,624.54a15.94,15.94,0,0,1-6.9-7.59,34.84,34.84,0,0,1-2.7-12.94l13-2.19a38.94,38.94,0,0,0,1,7.63,9.28,9.28,0,0,0,2.38,4.58,5.6,5.6,0,0,0,4,1.5c2,0,3.28-.61,4-1.82a8.33,8.33,0,0,0,1-4.21,13.18,13.18,0,0,0-2.24-7.82,37.9,37.9,0,0,0-5.9-6.36l-7.68-6.67a31.21,31.21,0,0,1-6.72-7.86A20.8,20.8,0,0,1,180.55,570q0-9.15,5.35-14t14.68-4.89a20.08,20.08,0,0,1,9.14,1.82,14.17,14.17,0,0,1,5.54,4.9,20.05,20.05,0,0,1,2.74,6.67,44.63,44.63,0,0,1,1,7.18l-12.9,1.92a55.67,55.67,0,0,0-.59-5.94,8.05,8.05,0,0,0-1.65-4,4.57,4.57,0,0,0-3.7-1.46,4.36,4.36,0,0,0-3.93,2,7.74,7.74,0,0,0-1.28,4.34,10.9,10.9,0,0,0,1.78,6.45,32,32,0,0,0,4.89,5.26l7.5,6.58a42.5,42.5,0,0,1,8,9.19,23,23,0,0,1,3.34,12.76,18.72,18.72,0,0,1-2.38,9.41,16.94,16.94,0,0,1-6.63,6.59A20.22,20.22,0,0,1,201.4,627.06Z" transform="translate(-26.29 -168.58)"/><path class="cls-2" d="M224.17,626.05,238.53,552h16.73l14.27,74.07h-14l-2.66-16.28h-11.7l-2.84,16.28Zm18.38-25.51h8.87l-4.48-29.91Z" transform="translate(-26.29 -168.58)"/><path class="cls-2" d="M297.33,627.06q-8.41,0-13.08-2.89a15.29,15.29,0,0,1-6.54-8.32,40.78,40.78,0,0,1-1.87-13.21V552h14.9v52.76a35.76,35.76,0,0,0,.41,5.4,8.51,8.51,0,0,0,1.83,4.3,5.45,5.45,0,0,0,4.35,1.64,5.56,5.56,0,0,0,4.43-1.64,8.14,8.14,0,0,0,1.78-4.3,38.57,38.57,0,0,0,.37-5.4V552h14.9v50.66a40.78,40.78,0,0,1-1.87,13.21,15.29,15.29,0,0,1-6.54,8.32Q305.74,627.07,297.33,627.06Z" transform="translate(-26.29 -168.58)"/><path class="cls-2" d="M370.21,627.15q-7.32,0-11.71-2.88a15.72,15.72,0,0,1-6.26-8.1,34.93,34.93,0,0,1-1.88-11.88,27.62,27.62,0,0,1,.55-5.67,19.92,19.92,0,0,1,1.65-4.85,16.32,16.32,0,0,1,2.69-3.89,13.89,13.89,0,0,1,3.8-2.79,18.93,18.93,0,0,1-5.26-6.17,21.08,21.08,0,0,1-2.33-10.1,23.61,23.61,0,0,1,2-10.56,15.06,15.06,0,0,1,6.31-6.82,24.22,24.22,0,0,1,20.9,0,14.61,14.61,0,0,1,6.17,6.82,24.49,24.49,0,0,1,1.92,10.56A22,22,0,0,1,386.53,581a16.67,16.67,0,0,1-5.26,6.08,13.69,13.69,0,0,1,3.79,2.79,16.07,16.07,0,0,1,2.7,3.89,20.85,20.85,0,0,1,1.69,4.85,25.61,25.61,0,0,1,.6,5.67,31.07,31.07,0,0,1-1.78,11.88,16.4,16.4,0,0,1-6.31,8.1Q377.61,627.15,370.21,627.15Zm0-10.52a4.48,4.48,0,0,0,3.93-1.83,10.08,10.08,0,0,0,1.64-4.48,36.52,36.52,0,0,0,.37-5.12,32,32,0,0,0-.32-5.67,10,10,0,0,0-1.69-4.48,5.26,5.26,0,0,0-7.82,0,9.58,9.58,0,0,0-1.74,4.44,38.35,38.35,0,0,0-.41,5.71,37.55,37.55,0,0,0,.37,5.17,9.41,9.41,0,0,0,1.69,4.48A4.63,4.63,0,0,0,370.21,616.63Zm0-34.84a3.72,3.72,0,0,0,3-1.37,9.14,9.14,0,0,0,1.69-3.93,29.56,29.56,0,0,0,.55-6,13.9,13.9,0,0,0-1.24-6.35,4.15,4.15,0,0,0-4-2.43,4.34,4.34,0,0,0-4.07,2.43,12.89,12.89,0,0,0-1.33,6.26,32.88,32.88,0,0,0,.5,6.08,8.26,8.26,0,0,0,1.74,4A4.07,4.07,0,0,0,370.21,581.79Z" transform="translate(-26.29 -168.58)"/><path class="cls-2" d="M422.24,626.05V552H441a45.6,45.6,0,0,1,9,.82,20,20,0,0,1,7.27,2.93,13.54,13.54,0,0,1,4.85,5.81,23.31,23.31,0,0,1,1.69,9.64,20.38,20.38,0,0,1-1.28,7.64,11.59,11.59,0,0,1-3.66,5,13.28,13.28,0,0,1-5.85,2.47,15.13,15.13,0,0,1,7.23,2.93,13.78,13.78,0,0,1,4.38,6,24.85,24.85,0,0,1,1.47,9.06,29.94,29.94,0,0,1-1.42,9.69,17,17,0,0,1-4.16,6.77,17.48,17.48,0,0,1-6.77,4,29.6,29.6,0,0,1-9.32,1.33Zm15.08-44.17h3.75a12.35,12.35,0,0,0,5.95-1.14,6,6,0,0,0,2.79-3.48,18.42,18.42,0,0,0,.77-5.71,11.19,11.19,0,0,0-1.14-5.44,6.58,6.58,0,0,0-3.47-3,16.35,16.35,0,0,0-5.9-.92h-2.75Zm0,33.56h4.21q5.67,0,7.82-2.83t2.15-8.51a19.89,19.89,0,0,0-1-7,7.12,7.12,0,0,0-3.24-3.84,12.36,12.36,0,0,0-6-1.24h-3.94Z" transform="translate(-26.29 -168.58)"/><path class="cls-2" d="M495.57,627.06q-8.42,0-13.07-2.89a15.29,15.29,0,0,1-6.54-8.32,40.76,40.76,0,0,1-1.88-13.21V552H489v52.76a35.76,35.76,0,0,0,.41,5.4,8.42,8.42,0,0,0,1.83,4.3,5.43,5.43,0,0,0,4.34,1.64,5.57,5.57,0,0,0,4.44-1.64,8.14,8.14,0,0,0,1.78-4.3,38.57,38.57,0,0,0,.37-5.4V552h14.9v50.66a40.78,40.78,0,0,1-1.87,13.21,15.29,15.29,0,0,1-6.54,8.32Q504,627.07,495.57,627.06Z" transform="translate(-26.29 -168.58)"/><path class="cls-2" d="M548.24,627.06q-8.13,0-12.89-2.93a16.26,16.26,0,0,1-6.81-8.37,36.88,36.88,0,0,1-2.06-13V575.12a36.57,36.57,0,0,1,2.06-13,15.82,15.82,0,0,1,6.81-8.23q4.75-2.83,12.89-2.83t13,2.88a16,16,0,0,1,6.85,8.23,36.13,36.13,0,0,1,2.06,12.94v27.61a36.88,36.88,0,0,1-2.06,13,16.19,16.19,0,0,1-6.85,8.37Q556.47,627.06,548.24,627.06Zm-14.35-81.3,8.5-15H554.1l8.68,15h-9.87l-4.67-9.14-4.57,9.14Zm14.35,70.41a6,6,0,0,0,4.3-1.32,6.6,6.6,0,0,0,1.83-3.57,23.56,23.56,0,0,0,.46-4.8v-35a23,23,0,0,0-.46-4.76,6.59,6.59,0,0,0-1.83-3.52,6,6,0,0,0-4.3-1.32,5.72,5.72,0,0,0-4.11,1.32,6.59,6.59,0,0,0-1.83,3.52,23.73,23.73,0,0,0-.46,4.76v35a26.91,26.91,0,0,0,.41,4.8,6.43,6.43,0,0,0,1.79,3.57A5.84,5.84,0,0,0,548.24,616.17ZM564,537.53l-4-4.3a16.19,16.19,0,0,0,2.65-2.51,4.55,4.55,0,0,0,1-3,3.15,3.15,0,0,0-1.19-2.65,5,5,0,0,0-3.11-.92,13.1,13.1,0,0,0-2.52.23,11.86,11.86,0,0,0-2,.59v-5.94a28.37,28.37,0,0,1,3.61-1,18.65,18.65,0,0,1,3.7-.36,11.81,11.81,0,0,1,7.36,2.19c1.92,1.47,2.88,3.69,2.88,6.68a9.19,9.19,0,0,1-2.46,6.77A23.12,23.12,0,0,1,564,537.53Z" transform="translate(-26.29 -168.58)"/><path class="cls-2" d="M580.43,626.05V552h15v74.07Z" transform="translate(-26.29 -168.58)"/></svg>