<?xml version="1.0" encoding="utf-8"?>
<!-- Generator: Adobe Illustrator 23.0.5, SVG Export Plug-In . SVG Version: 6.00 Build 0)  -->
<svg version="1.1" id="Layer_1" xmlns="http://www.w3.org/2000/svg" xmlns:xlink="http://www.w3.org/1999/xlink" x="0px" y="0px"
	 viewBox="0 0 512 512" style="enable-background:new 0 0 512 512;" xml:space="preserve">
<style type="text/css">
	.st0{fill:#Ff9a00;}
</style>
<path class="st0" d="M269,230.4c-1.2,0-2.5-0.3-3.6-0.8l-145.1-68.3c-3-1.4-4.9-4.4-4.9-7.7c0-3.3,1.9-6.3,4.9-7.7l145.1-68.3
	c2.3-1.1,5-1.1,7.3,0l145.1,68.3c3,1.4,4.9,4.4,4.9,7.7c0,3.3-1.9,6.3-4.9,7.7l-145.1,68.3C271.5,230.1,270.2,230.4,269,230.4
	L269,230.4z M144,153.6l125,58.8l125-58.8L269,94.8L144,153.6z"/>
<path class="st0" d="M269,298.7c-1.3,0-2.6-0.3-3.8-0.9l-102.4-51.2c-2.9-1.5-4.7-4.4-4.7-7.6v-65.3c0-2.9,1.5-5.6,4-7.2
	c2.5-1.6,5.6-1.7,8.2-0.5l98.8,46.5l98.8-46.5c2.6-1.2,5.7-1,8.2,0.5c2.5,1.6,4,4.3,4,7.2v65.3c0,3.2-1.8,6.2-4.7,7.6l-102.4,51.2
	C271.6,298.4,270.3,298.7,269,298.7L269,298.7z M175.1,233.7l93.9,46.9l93.9-46.9v-46.5l-90.2,42.5c-2.3,1.1-5,1.1-7.3,0l-90.2-42.5
	V233.7z"/>
<path class="st0" d="M414.1,162.1H269c-4.7,0-8.5-3.8-8.5-8.5c0-4.7,3.8-8.5,8.5-8.5h145.1c4.7,0,8.5,3.8,8.5,8.5
	C422.6,158.3,418.8,162.1,414.1,162.1z"/>
<path class="st0" d="M414.1,238.9c-4.7,0-8.5-3.8-8.5-8.5v-76.8c0-4.7,3.8-8.5,8.5-8.5s8.5,3.8,8.5,8.5v76.8
	C422.6,235.1,418.8,238.9,414.1,238.9z"/>
<path class="st0" d="M269,179.2c-4.7,0-8.5-3.8-8.5-8.5v-34.1c0-4.7,3.8-8.5,8.5-8.5c4.7,0,8.5,3.8,8.5,8.5v34.1
	C277.5,175.4,273.7,179.2,269,179.2z"/>
<path class="st0" d="M397,264.5c-1.6,0-3.3-0.5-4.7-1.4c-3.9-2.6-5-7.9-2.4-11.8l17.1-25.6c2.6-3.9,7.9-5,11.8-2.4
	c3.9,2.6,5,7.9,2.4,11.8l-17.1,25.6C402.5,263.2,399.7,264.5,397,264.5z"/>
<path class="st0" d="M431.1,264.5c-2.8,0-5.5-1.3-7.1-3.8L407,235.1c-2.6-3.9-1.6-9.2,2.4-11.8c3.9-2.6,9.2-1.6,11.8,2.4l17.1,25.6
	c2.6,3.9,1.6,9.2-2.4,11.8C434.4,264.1,432.8,264.5,431.1,264.5z"/>
<path class="st0" d="M269,256c-4.7,0-8.5-3.8-8.5-8.5v-25.6c0-4.7,3.8-8.5,8.5-8.5c4.7,0,8.5,3.8,8.5,8.5v25.6
	C277.5,252.2,273.7,256,269,256z"/>
<path class="st0" d="M516.5,332.8H21.5c-4.7,0-8.5-3.8-8.5-8.5V42.7C13,23.9,28.3,8.5,47.1,8.5h443.7c18.8,0,34.1,15.3,34.1,34.1
	v281.6C525,329,521.2,332.8,516.5,332.8z M30.1,315.7h477.9V42.7c0-9.4-7.7-17.1-17.1-17.1H47.1c-9.4,0-17.1,7.7-17.1,17.1
	L30.1,315.7z"/>
<path class="st0" d="M490.9,401.1H47.1c-18.8,0-34.1-15.3-34.1-34.1v-42.7c0-4.7,3.8-8.5,8.5-8.5h494.9c4.7,0,8.5,3.8,8.5,8.5v42.7
	C525,385.7,509.7,401.1,490.9,401.1z M30.1,332.8v34.1c0,9.4,7.7,17.1,17.1,17.1h443.7c9.4,0,17.1-7.7,17.1-17.1v-34.1H30.1z"/>
<path class="st0" d="M294.6,366.9h-51.2c-4.7,0-8.5-3.8-8.5-8.5c0-4.7,3.8-8.5,8.5-8.5h51.2c4.7,0,8.5,3.8,8.5,8.5
	C303.1,363.1,299.3,366.9,294.6,366.9z"/>
<path class="st0" d="M482.3,332.8H55.7c-4.7,0-8.5-3.8-8.5-8.5V51.2c0-4.7,3.8-8.5,8.5-8.5h426.7c4.7,0,8.5,3.8,8.5,8.5v273.1
	C490.9,329,487,332.8,482.3,332.8z M64.2,315.7h409.6v-256H64.2V315.7z"/>
<path class="st0" d="M379.9,503.5H158.1c-14.1,0-25.6-11.5-25.6-25.6c0-14.1,11.5-25.6,25.6-25.6h221.9c14.1,0,25.6,11.5,25.6,25.6
	C405.5,492,394,503.5,379.9,503.5z M158.1,469.3c-4.7,0-8.5,3.8-8.5,8.5c0,4.7,3.8,8.5,8.5,8.5h221.9c4.7,0,8.5-3.8,8.5-8.5
	c0-4.7-3.8-8.5-8.5-8.5H158.1z"/>
<path class="st0" d="M362.9,469.3H175.1c-4.7,0-8.5-3.8-8.5-8.5s3.8-8.5,8.5-8.5c28.3,0,42.7-20.1,42.7-59.7c0-4.7,3.8-8.5,8.5-8.5
	h85.3c4.7,0,8.5,3.8,8.5,8.5c0,39.6,14.4,59.7,42.7,59.7c4.7,0,8.5,3.8,8.5,8.5S367.6,469.3,362.9,469.3z M216.7,452.3h104.6
	c-10.5-11.6-16.7-29-17.9-51.2h-68.7C233.4,423.3,227.2,440.6,216.7,452.3z"/>
</svg>
