<svg id="Layer_1" data-name="Layer 1" xmlns="http://www.w3.org/2000/svg" viewBox="0 0 1291.84 1284.6"><defs><style>.cls-1{fill:#f3767a;}.cls-2{fill:#ed5762;}.cls-3{fill:#bbcee0;}.cls-4{fill:#da3a5b;}.cls-5{fill:#943f32;}.cls-6{fill:#2075bc;}.cls-7{fill:#9e4e36;}.cls-8{fill:#fff;}.cls-9{fill:#a7bcce;}.cls-10{fill:#2c88c6;}.cls-11{fill:#e8ebf5;}.cls-12{fill:#0f4564;}.cls-13{fill:#0b3c57;}.cls-14{fill:#215f78;}.cls-15{fill:#06314b;}.cls-16{fill:#2c3493;}.cls-17{fill:#fdd4bd;}.cls-18{fill:#f4c6a3;}.cls-19{fill:#de4b5b;}.cls-20{fill:#ef4237;}.cls-21{fill:#95ca57;}.cls-22{fill:#71c058;}.cls-23{fill:#54b848;}.cls-24{fill:#262b63;}.cls-25{fill:#3f56a6;}.cls-26{fill:#eac;}.cls-27{fill:#e581b4;}.cls-28{fill:#ca6baa;}.cls-29{fill:#fbea30;}.cls-30{fill:#f5d118;}.cls-31{fill:#eaa222;}.cls-32{fill:#eef0f9;}.cls-33{opacity:0.4;}.cls-34,.cls-35{fill:#8f55a2;}.cls-35{opacity:0.2;isolation:isolate;}.cls-36{fill:#f0cfc9;}.cls-37{fill:#fffbf1;}.cls-38{fill:#f5ddd7;}.cls-39{fill:#dfbab8;}.cls-40{fill:#2b3891;}</style></defs><title>target</title><path class="cls-1" d="M654.2,426.13l-100.59-58a9.42,9.42,0,0,0-10.08.39h0l-22,12.72,10.25,13.94,3.85,4.41v99.66a16.52,16.52,0,0,0,8.27,14.37l75.31,43.58.77,4.19,15.37,21.54L658.94,569h0a7.53,7.53,0,0,0,3.64-6.45V441.34A17.31,17.31,0,0,0,654.2,426.13Z" transform="translate(-211.72 -214.2)"/><path class="cls-2" d="M630.68,440,529,381.23a7.44,7.44,0,0,0-10.1,2.94,7.53,7.53,0,0,0-.92,3.51V509.54a16.55,16.55,0,0,0,8.32,14.38l101.81,58.89A7.66,7.66,0,0,0,638.54,580a7.75,7.75,0,0,0,1-3.76V455A17.29,17.29,0,0,0,630.68,440Z" transform="translate(-211.72 -214.2)"/><path class="cls-3" d="M635.42,582.81Z" transform="translate(-211.72 -214.2)"/><path class="cls-4" d="M639.16,576.2V455a17.63,17.63,0,0,0-1.15-5.84l23.58-13.61a16.48,16.48,0,0,1,1.1,5.51v121.2a7.5,7.5,0,0,1-3.64,6.44h0l-23.41,13.78A7.49,7.49,0,0,0,639.16,576.2Z" transform="translate(-211.72 -214.2)"/><path class="cls-5" d="M540.28,1339c-20.39,0-13.72-15.32-13.72-15.32-30.19-9.2-45.07-4.07-45.07-4.07a139,139,0,0,0-4.79,49.25c0,3.14,2.21,5.07,5.18,6.22,16.25,6,31.07,10,61.32,7.11,22.31-2.2,45.89-22.81,40.54-44.07C580.38,1325,560.94,1338.76,540.28,1339Z" transform="translate(-211.72 -214.2)"/><path class="cls-6" d="M531.52,1147.48c-5.95-7.76-16.2-14.37-33.06-9.91l-182.13,35.15,6.84,46.77a72.6,72.6,0,0,0,76.74,22.86,283.61,283.61,0,0,0,80.54-36.8l-6.28,129.24a72.87,72.87,0,0,0,54-6.5c4.24-2.59,8.21-127.09,9.53-159A29.26,29.26,0,0,0,531.52,1147.48Z" transform="translate(-211.72 -214.2)"/><path class="cls-7" d="M627.7,1376.33c-21.15,0-14.21-15.92-14.21-15.92-31.4-9.53-46.83-4.24-46.83-4.24a146.29,146.29,0,0,0-5,51.12,6.94,6.94,0,0,0,5.51,6.5c16.91,6.28,32.28,10.41,63.68,7.38,23.14-2.26,47.66-23.69,42.09-45.72C669.35,1361.79,649.13,1376.11,627.7,1376.33Z" transform="translate(-211.72 -214.2)"/><polygon class="cls-3" points="208.96 1110.73 52.61 1020.33 52.61 1042.37 209.01 1132.49 208.96 1110.73"/><polygon class="cls-8" points="194.74 938.68 52.61 1020.33 208.96 1110.73 351.26 1028.98 194.74 938.68"/><polygon class="cls-9" points="351.26 1028.98 208.96 1110.73 209.01 1132.49 351.26 1050.19 351.26 1028.98"/><path class="cls-10" d="M618.61,1177.45c-6.17-8-16.52-14.93-34.43-10.3l-189.12,36.47,7.21,48.54a75.39,75.39,0,0,0,79.67,23.74,293.63,293.63,0,0,0,83.62-38.23l-6.39,134a75.31,75.31,0,0,0,56.08-6.72c4.47-2.7,8.6-131.94,9.92-165.27A30.34,30.34,0,0,0,618.61,1177.45Z" transform="translate(-211.72 -214.2)"/><path class="cls-11" d="M280.69,903.87l322.94-187.3a44,44,0,0,1,44.07,0l508.71,294.29a19.44,19.44,0,0,1,0,33.71L840.68,1227.86a52.5,52.5,0,0,1-52.61,0L280.53,934.23a17.41,17.41,0,0,1,.16-30.36Z" transform="translate(-211.72 -214.2)"/><path class="cls-9" d="M280.75,934.06,788.29,1227.7a52.5,52.5,0,0,0,52.61,0l315.73-183.29a19.34,19.34,0,0,0,9.69-16.53v24.57h0a19.17,19.17,0,0,1-9.64,16.53L840.9,1252.16a52.5,52.5,0,0,1-52.61,0L280.75,958.52A17.33,17.33,0,0,1,272,943.26h0V919.13A17.16,17.16,0,0,0,280.75,934.06Z" transform="translate(-211.72 -214.2)"/><path class="cls-3" d="M280.75,934.06,788.29,1227.7a52.08,52.08,0,0,0,24,6.88v24.35a52.85,52.85,0,0,1-24-6.88L280.75,958.41A17.33,17.33,0,0,1,272,943.15h0V919A17.17,17.17,0,0,0,280.75,934.06Z" transform="translate(-211.72 -214.2)"/><path class="cls-12" d="M519.29,971.64,574.1,940a8.3,8.3,0,0,1,8.32,0l169.29,97.89a3.68,3.68,0,0,1,0,6.34l-53.49,30.9a9.82,9.82,0,0,1-9.86,0L519.29,977.36a3.33,3.33,0,0,1-1.21-4.57A2.91,2.91,0,0,1,519.29,971.64Z" transform="translate(-211.72 -214.2)"/><path class="cls-13" d="M519.29,977.36l169.07,97.73a9.82,9.82,0,0,0,9.86,0l53.49-30.9a3.64,3.64,0,0,0,1.82-3.2v6.5h0a3.83,3.83,0,0,1-1.82,3.14l-53.49,30.75a9.87,9.87,0,0,1-9.86,0L519.29,983.87a3.14,3.14,0,0,1-1.6-2.87h0v-6.5A3.34,3.34,0,0,0,519.29,977.36Z" transform="translate(-211.72 -214.2)"/><polygon class="cls-14" points="361.78 734.63 368.61 730.66 376.43 735.13 369.6 739.09 361.78 734.63"/><polygon class="cls-14" points="371.47 740.25 378.36 736.23 386.13 740.75 379.3 744.71 371.47 740.25"/><polygon class="cls-14" points="381.23 745.81 388.06 741.85 395.88 746.36 389.05 750.33 381.23 745.81"/><polygon class="cls-14" points="390.92 751.43 397.81 747.47 405.63 751.93 398.74 755.89 390.92 751.43"/><polygon class="cls-14" points="400.67 757.05 407.56 753.03 415.33 757.55 408.5 761.51 400.67 757.05"/><polygon class="cls-14" points="410.42 762.62 417.25 758.65 425.08 763.17 418.25 767.13 410.42 762.62"/><polygon class="cls-14" points="420.12 768.24 427 764.27 434.77 768.73 427.94 772.7 420.12 768.24"/><polygon class="cls-14" points="429.87 773.85 436.7 769.83 444.52 774.35 437.69 778.32 429.87 773.85"/><polygon class="cls-14" points="439.57 779.42 446.45 775.45 454.22 779.97 447.39 783.94 439.57 779.42"/><polygon class="cls-14" points="449.32 785.04 456.2 781.07 463.97 785.53 457.14 789.5 449.32 785.04"/><polygon class="cls-14" points="459.07 790.6 465.9 786.63 473.72 791.15 466.89 795.12 459.07 790.6"/><polygon class="cls-14" points="468.76 796.22 475.65 792.25 483.42 796.77 476.59 800.68 468.76 796.22"/><polygon class="cls-14" points="485.35 797.82 493.17 802.34 486.34 806.3 478.51 801.84 485.35 797.82"/><polygon class="cls-14" points="360.68 744.27 352.91 739.75 359.74 735.79 367.56 740.3 360.68 744.27"/><polygon class="cls-14" points="377.26 745.87 370.43 749.84 362.61 745.37 369.49 741.41 377.26 745.87"/><polygon class="cls-14" points="387.01 751.49 380.18 755.45 372.36 750.99 379.19 746.97 387.01 751.49"/><polygon class="cls-14" points="396.71 757.11 389.87 761.07 382.05 756.56 388.94 752.59 396.71 757.11"/><polygon class="cls-14" points="406.46 762.67 399.63 766.64 391.8 762.17 398.63 758.21 406.46 762.67"/><polygon class="cls-14" points="416.21 768.29 409.32 772.26 401.5 767.79 408.38 763.77 416.21 768.29"/><polygon class="cls-14" points="425.9 773.91 419.07 777.88 411.25 773.36 418.14 769.39 425.9 773.91"/><polygon class="cls-14" points="435.65 779.47 428.82 783.44 421 778.98 427.83 775.01 435.65 779.47"/><polygon class="cls-14" points="445.35 785.09 438.52 789.06 430.7 784.6 437.58 780.58 445.35 785.09"/><polygon class="cls-14" points="455.1 790.71 448.27 794.68 440.45 790.16 447.28 786.2 455.1 790.71"/><polygon class="cls-14" points="464.85 796.28 457.97 800.24 450.14 795.78 457.03 791.81 464.85 796.28"/><polygon class="cls-14" points="474.55 801.89 467.72 805.86 459.89 801.4 466.73 797.38 474.55 801.89"/><polygon class="cls-14" points="476.48 803 484.3 807.46 477.47 811.48 469.64 806.96 476.48 803"/><polygon class="cls-14" points="351.81 749.39 343.98 744.93 350.87 740.97 358.64 745.43 351.81 749.39"/><polygon class="cls-14" points="368.39 751.05 361.56 755.01 353.74 750.5 360.57 746.53 368.39 751.05"/><polygon class="cls-14" points="363.43 756.12 370.32 752.15 378.14 756.61 371.25 760.58 363.43 756.12"/><polygon class="cls-14" points="387.84 762.23 381 766.2 373.18 761.73 380.07 757.71 387.84 762.23"/><polygon class="cls-14" points="397.59 767.85 390.76 771.82 382.93 767.3 389.76 763.33 397.59 767.85"/><polygon class="cls-14" points="407.28 773.41 400.45 777.38 392.63 772.92 399.51 768.95 407.28 773.41"/><polygon class="cls-14" points="417.03 779.03 410.2 783 402.38 778.54 409.21 774.51 417.03 779.03"/><polygon class="cls-14" points="426.79 784.65 419.9 788.62 412.08 784.1 418.96 780.13 426.79 784.65"/><polygon class="cls-14" points="436.48 790.22 429.65 794.18 421.83 789.72 428.71 785.75 436.48 790.22"/><polygon class="cls-14" points="446.23 795.84 439.4 799.8 431.58 795.34 438.41 791.32 446.23 795.84"/><polygon class="cls-14" points="455.93 801.46 449.1 805.42 441.27 800.9 448.16 796.94 455.93 801.46"/><polygon class="cls-14" points="451.02 806.52 457.86 802.56 465.68 807.02 458.85 810.99 451.02 806.52"/><polygon class="cls-14" points="467.61 808.12 475.43 812.64 468.54 816.6 460.72 812.09 467.61 808.12"/><polygon class="cls-14" points="342.94 754.57 335.12 750.05 342 746.09 349.77 750.61 342.94 754.57"/><polygon class="cls-14" points="344.87 755.67 351.7 751.65 359.52 756.17 352.69 760.14 344.87 755.67"/><polygon class="cls-14" points="354.56 761.24 361.45 757.27 369.22 761.79 362.38 765.76 354.56 761.24"/><polygon class="cls-14" points="364.31 766.86 371.2 762.89 378.97 767.35 372.13 771.32 364.31 766.86"/><polygon class="cls-14" points="374.01 772.48 380.89 768.46 388.72 772.97 381.83 776.94 374.01 772.48"/><polygon class="cls-14" points="383.76 778.04 390.65 774.08 398.41 778.59 391.58 782.56 383.76 778.04"/><polygon class="cls-14" points="393.51 783.66 400.34 779.69 408.16 784.16 401.33 788.12 393.51 783.66"/><polygon class="cls-14" points="403.21 789.28 410.09 785.26 417.86 789.77 411.03 793.74 403.21 789.28"/><polygon class="cls-14" points="412.96 794.84 419.79 790.88 427.61 795.39 420.78 799.36 412.96 794.84"/><polygon class="cls-14" points="422.65 800.46 429.54 796.5 437.36 800.96 430.48 804.92 422.65 800.46"/><polygon class="cls-14" points="432.4 806.08 439.29 802.06 447.06 806.58 440.23 810.54 432.4 806.08"/><polygon class="cls-14" points="442.15 811.65 448.99 807.68 456.81 812.2 449.98 816.16 442.15 811.65"/><polygon class="cls-14" points="458.74 813.3 466.5 817.76 459.67 821.73 451.85 817.27 458.74 813.3"/><polygon class="cls-14" points="334.07 759.7 326.25 755.23 333.13 751.21 340.9 755.73 334.07 759.7"/><polygon class="cls-14" points="335.94 760.8 342.83 756.83 350.65 761.29 343.82 765.26 335.94 760.8"/><polygon class="cls-14" points="345.69 766.42 352.58 762.45 360.35 766.91 353.51 770.88 345.69 766.42"/><polygon class="cls-14" points="355.44 771.98 362.27 768.01 370.1 772.53 363.27 776.5 355.44 771.98"/><polygon class="cls-14" points="365.14 777.6 372.02 773.63 379.79 778.15 372.96 782.12 365.14 777.6"/><polygon class="cls-14" points="374.89 783.22 381.78 779.2 389.54 783.72 382.71 787.68 374.89 783.22"/><polygon class="cls-14" points="384.59 788.78 391.47 784.82 399.3 789.34 392.41 793.3 384.59 788.78"/><polygon class="cls-14" points="394.34 794.4 401.22 790.44 408.99 794.9 402.16 798.87 394.34 794.4"/><polygon class="cls-14" points="404.09 800.02 410.92 796 418.74 800.52 411.91 804.49 404.09 800.02"/><polygon class="cls-14" points="413.78 805.59 420.67 801.62 428.44 806.14 421.61 810.1 413.78 805.59"/><polygon class="cls-14" points="423.54 811.21 430.37 807.24 438.19 811.7 431.36 815.67 423.54 811.21"/><polygon class="cls-14" points="433.23 816.83 440.12 812.8 447.94 817.32 441.05 821.29 433.23 816.83"/><polygon class="cls-14" points="449.87 818.42 457.64 822.94 450.8 826.91 442.98 822.39 449.87 818.42"/><polygon class="cls-14" points="324.21 756.39 332.03 760.85 325.2 764.82 317.38 760.36 324.21 756.39"/><polygon class="cls-14" points="341.73 766.47 334.89 770.44 327.07 765.92 333.96 761.96 341.73 766.47"/><polygon class="cls-14" points="351.48 772.09 344.64 776.06 336.82 771.54 343.65 767.57 351.48 772.09"/><polygon class="cls-14" points="361.23 777.66 354.4 781.62 346.57 777.16 353.4 773.14 361.23 777.66"/><polygon class="cls-14" points="370.92 783.27 364.09 787.24 356.27 782.72 363.16 778.76 370.92 783.27"/><polygon class="cls-14" points="380.67 788.84 373.84 792.8 366.02 788.34 372.85 784.38 380.67 788.84"/><polygon class="cls-14" points="382.6 790 392.3 795.56 392.35 795.56 394.23 796.66 402.05 801.18 402.05 801.18 406.02 803.44 411.8 806.74 411.8 806.74 417.92 810.32 429.32 816.88 422.49 820.85 410.59 813.96 404.91 810.76 404.91 810.76 399.02 807.35 395.16 805.15 395.22 805.15 387.51 800.74 385.47 799.53 385.47 799.53 375.72 793.96 382.6 790"/><polygon class="cls-14" points="439.01 822.44 432.18 826.41 424.36 821.95 431.25 817.98 439.01 822.44"/><polygon class="cls-14" points="448.77 828.06 441.94 832.03 434.11 827.57 440.94 823.55 448.77 828.06"/><polygon class="cls-14" points="497.96 813.02 504.79 809.06 512.62 813.52 505.79 817.49 497.96 813.02"/><polygon class="cls-14" points="507.71 818.64 514.54 814.62 522.37 819.14 515.48 823.11 507.71 818.64"/><polygon class="cls-14" points="517.41 824.21 524.29 820.24 532.06 824.76 525.23 828.72 517.41 824.21"/><polygon class="cls-14" points="503.75 818.7 496.92 822.66 489.09 818.15 495.92 814.18 503.75 818.7"/><polygon class="cls-14" points="513.44 824.26 506.61 828.23 498.79 823.77 505.67 819.8 513.44 824.26"/><polygon class="cls-14" points="523.19 829.88 516.36 833.85 508.54 829.38 515.37 825.36 523.19 829.88"/><polygon class="cls-14" points="494.88 823.82 487.99 827.79 480.22 823.33 487.05 819.3 494.88 823.82"/><polygon class="cls-14" points="504.57 829.44 497.74 833.41 489.92 828.89 496.81 824.92 504.57 829.44"/><polygon class="cls-14" points="514.32 835 507.49 838.97 499.67 834.51 506.5 830.54 514.32 835"/><polygon class="cls-14" points="471.3 828.45 478.18 824.48 486.01 828.95 479.12 832.91 471.3 828.45"/><polygon class="cls-14" points="481.05 834.07 487.88 830.05 495.7 834.56 488.87 838.53 481.05 834.07"/><polygon class="cls-14" points="490.75 839.63 497.63 835.67 505.45 840.18 498.57 844.15 490.75 839.63"/><polygon class="cls-14" points="462.43 833.57 469.31 829.61 477.08 834.12 470.25 838.09 462.43 833.57"/><polygon class="cls-14" points="472.18 839.19 479.01 835.23 486.83 839.69 480 843.65 472.18 839.19"/><polygon class="cls-14" points="481.88 844.81 488.76 840.79 496.58 845.31 489.7 849.27 481.88 844.81"/><polygon class="cls-14" points="468.21 839.25 461.38 843.21 453.56 838.75 460.44 834.78 468.21 839.25"/><polygon class="cls-14" points="477.96 844.87 471.13 848.83 463.31 844.32 470.14 840.35 477.96 844.87"/><path class="cls-14" d="M640.87,919.08l53.93-31.29a7.2,7.2,0,0,1,7.39,0l127.92,73.87a3.26,3.26,0,0,1,1,4.48,3.37,3.37,0,0,1-1,1l-52.72,30.58a8.59,8.59,0,0,1-8.76,0L640.87,924a2.92,2.92,0,0,1-.94-4A3,3,0,0,1,640.87,919.08Z" transform="translate(-211.72 -214.2)"/><path class="cls-15" d="M640.87,924.09,768.63,997.8a8.59,8.59,0,0,0,8.76,0l52.72-30.57a3.3,3.3,0,0,0,1.59-2.81v6.77h0a3.2,3.2,0,0,1-1.59,2.76l-52.72,30.3a8.78,8.78,0,0,1-8.76,0L640.87,930.48a2.92,2.92,0,0,1-1.43-2.53h0v-6.34A2.91,2.91,0,0,0,640.87,924.09Z" transform="translate(-211.72 -214.2)"/><path class="cls-13" d="M640.87,924.09,768.63,997.8a8.39,8.39,0,0,0,4,1.16v6.56a8.49,8.49,0,0,1-4-1.11L640.87,930.65a2.93,2.93,0,0,1-1.43-2.54h0v-6.5A2.91,2.91,0,0,0,640.87,924.09Z" transform="translate(-211.72 -214.2)"/><polygon class="cls-12" points="569.03 709.78 469.64 652.22 469.64 701.47 569.03 758.98 569.03 709.78"/><polygon class="cls-15" points="483.47 644.28 469.64 652.22 569.03 709.78 582.91 701.8 483.47 644.28"/><polygon class="cls-15" points="582.91 701.8 569.03 709.78 569.03 758.98 582.91 750.94 582.91 701.8"/><polygon class="cls-16" points="369.11 401.55 671.33 576.85 671.33 799.2 369.11 623.24 369.11 401.55"/><polygon class="cls-15" points="671.33 576.85 681.36 570.74 681.36 793.14 671.33 799.2 671.33 576.85"/><polygon class="cls-14" points="369.11 401.55 379.41 395.6 681.36 570.74 671.33 576.85 369.11 401.55"/><path class="cls-13" d="M580.82,615.81V837.49l302.23,176V791.05ZM876.05,1001,588,833.47V628.2l288.07,167Z" transform="translate(-211.72 -214.2)"/><path class="cls-17" d="M468.93,890.32c-3.14,31.79-26.55,55.48-52.33,52.94s-44.07-30.35-40.93-62.14S402.22,825.7,428,828.23,472.07,858.59,468.93,890.32Z" transform="translate(-211.72 -214.2)"/><path class="cls-18" d="M507.44,964.36s11,2.7,15.1,3.09,18.62,3.47,24.62,1.65-5.51-5.84-8.1-7.88-2.64-7.27,3.42-9.09,19.83-1,27.1-2-7.21-23-19.06-25.06a50,50,0,0,0-32.45,4.41c-10.08,4.95-15.59,13.38-20.27,15Z" transform="translate(-211.72 -214.2)"/><path class="cls-2" d="M508.76,934.39l-76.63,19.23-3.85,48.65,90.46-31.08C520.61,954.06,508.76,934.39,508.76,934.39Z" transform="translate(-211.72 -214.2)"/><path class="cls-2" d="M319.64,955s-21.21,26.66,0,63.46c0,0,14.82,20.5,55.48.39Z" transform="translate(-211.72 -214.2)"/><path class="cls-19" d="M382.61,923.82s33.05-2.26,58.89,15.81a20,20,0,0,0,7.11,8.92c5.17,3.47,30.9,13.77,30.9,13.77s-11.35,150.79,1.65,224.22c0,0-55.8,43.58-143.23,0,0,0-12.73-185.16-18.35-231.38C319.64,955,334.35,937,382.61,923.82Z" transform="translate(-211.72 -214.2)"/><polygon class="cls-3" points="156.35 958.52 0 868.11 52.61 1020.55 209.01 1110.73 156.35 958.52"/><polygon class="cls-8" points="17.24 858.09 0 868.11 156.35 958.52 173.81 948.38 17.24 858.09"/><polygon class="cls-9" points="173.81 948.38 156.35 958.52 209.01 1110.73 226.64 1100.6 173.81 948.38"/><path class="cls-18" d="M610.46,1031.19s8.54-8.6,11.79-11,14.71-13.28,21.16-14.71-4.52,9.75-5.9,13.22,6.61-2.81,12.62-5.07a29.73,29.73,0,0,1,20.49.72c14.82,5.51,14.1,34.87,2,31.4-19.88-5.51-28.81,10-40.71,13.33a119.65,119.65,0,0,1-16.8,3.09Z" transform="translate(-211.72 -214.2)"/><path class="cls-2" d="M479.4,962.32,544,1048l67.21-19.83s14.44,18.18,9.75,37.4l-89.68,34.93-72.89-80.15S434.12,969.43,479.4,962.32Z" transform="translate(-211.72 -214.2)"/><path class="cls-7" d="M443.48,801.08s5,11.95-18.84,15.2-53.16,15-60.93,40.16c-5,16,.77,33.06,8.87,47.27A91.09,91.09,0,0,0,382,917.48a51.44,51.44,0,0,0,35.09-6,61,61,0,0,0,18.9-23s14.16,5.89,18.57-5.9c3.25-8.7,13.49-11,19.06-15.59C473.89,867,505.73,814.46,443.48,801.08Z" transform="translate(-211.72 -214.2)"/><polygon class="cls-3" points="1119.16 1043.08 1015.54 982.98 1015.54 1021.76 1119.16 1081.7 1119.16 1043.08"/><polygon class="cls-8" points="1122.63 921.44 1015.54 982.98 1119.16 1043.08 1226.37 981.49 1122.63 921.44"/><polygon class="cls-9" points="1226.37 981.49 1119.16 1043.08 1119.16 1081.7 1226.37 1019.67 1226.37 981.49"/><polygon class="cls-3" points="1119.16 979.73 1015.54 919.57 1015.54 958.35 1119.16 1018.29 1119.16 979.73"/><polygon class="cls-8" points="1122.63 858.03 1015.54 919.57 1119.16 979.73 1226.37 918.08 1122.63 858.03"/><polygon class="cls-9" points="1226.37 918.08 1119.16 979.73 1119.16 1018.29 1226.37 956.26 1226.37 918.08"/><polygon class="cls-3" points="943.92 1144.56 840.35 1084.4 840.35 1123.18 943.97 1183.12 943.92 1144.56"/><polygon class="cls-8" points="947.44 1022.86 840.35 1084.4 943.92 1144.56 1051.18 1082.91 947.44 1022.86"/><polygon class="cls-9" points="1051.18 1082.91 943.92 1144.56 943.97 1183.12 1051.18 1121.09 1051.18 1082.91"/><polygon class="cls-3" points="943.92 1081.15 840.35 1021.04 840.35 1059.77 943.97 1119.77 943.92 1081.15"/><polygon class="cls-8" points="947.44 959.51 840.35 1021.04 943.92 1081.15 1051.18 1019.56 947.44 959.51"/><polygon class="cls-9" points="1051.18 1019.56 943.92 1081.15 943.97 1119.77 1051.18 1057.73 1051.18 1019.56"/><polygon class="cls-3" points="768.73 1245.98 665.16 1185.88 665.16 1224.6 768.73 1284.6 768.73 1245.98"/><polygon class="cls-8" points="772.26 1124.34 665.16 1185.88 768.73 1245.98 875.99 1184.39 772.26 1124.34"/><polygon class="cls-9" points="875.99 1184.39 768.73 1245.98 768.73 1284.6 875.99 1222.57 875.99 1184.39"/><polygon class="cls-3" points="768.73 1182.57 665.16 1122.47 665.16 1161.25 768.73 1221.19 768.73 1182.57"/><polygon class="cls-8" points="772.26 1060.93 665.16 1122.47 768.73 1182.57 875.99 1120.98 772.26 1060.93"/><polygon class="cls-9" points="875.99 1120.98 768.73 1182.57 768.73 1221.19 875.99 1159.16 875.99 1120.98"/><path class="cls-6" d="M1012.79,1358.87l-6.5-3.81a59.09,59.09,0,0,1-15.26,3.7v5.5H975.21v-5.5a60,60,0,0,1-15.26-3.7l-6.44,3.81-11-6.51,6.5-3.74a20.74,20.74,0,0,1-6.39-8.82h-9.14v-9.2h8.7a20.59,20.59,0,0,1,6.28-8.81l-6.28-3.53,11-6.5,6.5,3.75a61.18,61.18,0,0,1,15.2-3.64v-5.51H990.7v5.51a62.12,62.12,0,0,1,15.31,3.64l6.45-3.75,11,6.5L1017,1322a20.35,20.35,0,0,1,6.39,8.81h9.15V1340h-8.82a20.37,20.37,0,0,1-6.28,8.81l6.5,3.75Zm-44.41-15.15a32.47,32.47,0,0,0,29.37,0c8-4.74,8-12.34,0-17a32.35,32.35,0,0,0-29.31,0c-8.1,4.69-8,12.29,0,17" transform="translate(-211.72 -214.2)"/><polygon class="cls-20" points="955.32 992.95 965.4 1014.43 975.49 1035.97 938.3 1030.19 901.11 1024.46 928.22 1008.71 955.32 992.95"/><path class="cls-21" d="M1328.56,788.4l-100.65-58a9.32,9.32,0,0,0-10,.39h0l-22,12.73,10.3,13.93,3.8,4.41v99.66a16.55,16.55,0,0,0,8.32,14.38l75.31,43.57.77,4.19,15.37,21.54,23.64-13.94h0a7.55,7.55,0,0,0,3.58-6.44V803.61A17.3,17.3,0,0,0,1328.56,788.4Z" transform="translate(-211.72 -214.2)"/><path class="cls-22" d="M1305,802.23l-101.81-58.72a7.42,7.42,0,0,0-11,6.44V872a16.52,16.52,0,0,0,8.31,14.44l101.76,58.83a7.71,7.71,0,0,0,11.51-6.61V816.94A17.32,17.32,0,0,0,1305,802.23Z" transform="translate(-211.72 -214.2)"/><path class="cls-3" d="M1309.78,945.08Z" transform="translate(-211.72 -214.2)"/><path class="cls-23" d="M1313.63,938.47V816.94a16.3,16.3,0,0,0-1.21-5.84l23.64-13.61a17.65,17.65,0,0,1,1.1,5.51V924.2a7.55,7.55,0,0,1-3.58,6.45h0l-23.42,13.77A7.46,7.46,0,0,0,1313.63,938.47Z" transform="translate(-211.72 -214.2)"/><path class="cls-24" d="M1443.48,546.06,1342.83,488a9.53,9.53,0,0,0-10.08.38h0l-22,12.78L1321,515.05l3.8,4.4v99.66a16.53,16.53,0,0,0,8.32,14.44l75.31,43.52.77,4.18,15.37,21.54,23.63-13.88h0a7.42,7.42,0,0,0,3.58-6.44V561.27A17.07,17.07,0,0,0,1443.48,546.06Z" transform="translate(-211.72 -214.2)"/><path class="cls-25" d="M1420.18,559.89l-101.81-58.78a7.5,7.5,0,0,0-11,6.5v122a16.55,16.55,0,0,0,8.32,14.38l101.76,58.84a7.65,7.65,0,0,0,10.44-2.85,7.51,7.51,0,0,0,1-3.76V574.54A17.06,17.06,0,0,0,1420.18,559.89Z" transform="translate(-211.72 -214.2)"/><path class="cls-3" d="M1424.92,702.68Z" transform="translate(-211.72 -214.2)"/><path class="cls-16" d="M1428.72,696.07V574.54a16.25,16.25,0,0,0-1.16-5.84l23.64-13.6a17.86,17.86,0,0,1,1,5.51V681.8a7.43,7.43,0,0,1-3.58,6.45h0L1425.19,702A7.55,7.55,0,0,0,1428.72,696.07Z" transform="translate(-211.72 -214.2)"/><path class="cls-26" d="M1107.43,547.82l-100.81-58.06a9.52,9.52,0,0,0-10.09.39h0l-22,12.72,10.3,13.94,3.8,4.41v99.65a16.55,16.55,0,0,0,8.32,14.44l75.31,43.52L1073,683l15.37,21.54L1112,690.67h0a7.56,7.56,0,0,0,3.59-6.44V563A17.09,17.09,0,0,0,1107.43,547.82Z" transform="translate(-211.72 -214.2)"/><path class="cls-27" d="M1083.74,561.65l-101.8-58.72a7.43,7.43,0,0,0-11,6.5v121.8a16.53,16.53,0,0,0,8.32,14.44L1081,704.5a7.66,7.66,0,0,0,10.45-2.84,7.79,7.79,0,0,0,1-3.77V576.69A17.09,17.09,0,0,0,1083.74,561.65Z" transform="translate(-211.72 -214.2)"/><path class="cls-3" d="M1088.43,704.45Z" transform="translate(-211.72 -214.2)"/><path class="cls-28" d="M1092.28,697.84V576.64a16,16,0,0,0-1.16-5.84l23.64-13.61a17.88,17.88,0,0,1,1,5.51V683.9a7.56,7.56,0,0,1-3.59,6.44h0l-23.46,13.78A7.55,7.55,0,0,0,1092.28,697.84Z" transform="translate(-211.72 -214.2)"/><path class="cls-29" d="M887.07,312.81,786.31,255a9.51,9.51,0,0,0-10.08.39h0l-22,12.78,10.25,13.88,3.86,4.41v99.65a16.53,16.53,0,0,0,8.26,14.44l75.31,43.52.77,4.19L868,469.82l23.63-13.89h0a7.38,7.38,0,0,0,3.64-6.44V328.29A17.13,17.13,0,0,0,887.07,312.81Z" transform="translate(-211.72 -214.2)"/><path class="cls-30" d="M863.38,326.64,761.57,267.86a7.48,7.48,0,0,0-10.13,3.08,7.4,7.4,0,0,0-.88,3.42V396.22a16.5,16.5,0,0,0,8.31,14.37l101.81,58.84a7.65,7.65,0,0,0,11.46-6.61V341.62A17,17,0,0,0,863.38,326.64Z" transform="translate(-211.72 -214.2)"/><path class="cls-3" d="M868.12,469.43Z" transform="translate(-211.72 -214.2)"/><path class="cls-31" d="M872,462.82V341.62a17.44,17.44,0,0,0-1.16-5.84l23.58-13.61a16.53,16.53,0,0,1,1.1,5.51v121.2a7.38,7.38,0,0,1-3.64,6.45h0L868.45,469.1A7.66,7.66,0,0,0,872,462.82Z" transform="translate(-211.72 -214.2)"/><path class="cls-8" d="M1063.63,585.56a64.49,64.49,0,0,0-22.36-23.63,22.52,22.52,0,0,0-22.48-2.26c-11,6.28-12.28,25.18-3.74,44.07L987.5,619.5l8,13.94,27.55-15.76a59.89,59.89,0,0,0,18,16.86,22.51,22.51,0,0,0,22.37,2.26C1075.92,630,1076,606.94,1063.63,585.56Zm-8.2,37.52a14.45,14.45,0,0,1-14.33-1.43,41,41,0,0,1-14.32-15.1c-7.88-13.66-7.88-28.43,0-33a14.43,14.43,0,0,1,14.32,1.43,42,42,0,0,1,14.33,15.15C1063.36,603.8,1063.36,618.62,1055.43,623.08Z" transform="translate(-211.72 -214.2)"/><path class="cls-8" d="M1340.52,552.18a9.58,9.58,0,0,0-1.65,6.61v15c0,2.76-.89,4.24-2.65,4.41a14.09,14.09,0,0,1-7.6-2.53v9.91a25.92,25.92,0,0,1,7.55,6.23,12.49,12.49,0,0,1,2.64,7.93V614.1a20.76,20.76,0,0,0,1.6,8.59,21.83,21.83,0,0,0,5.51,7,55.6,55.6,0,0,0,9.86,6.94V627a17,17,0,0,1-5.51-4.9,11.29,11.29,0,0,1-1.43-5.51V602.09a19,19,0,0,0-9.09-15.1v-.55c6,2.48,9,.77,9.14-5.07V567.6c0-2.2.5-3.58,1.49-4s2.81,0,5.51,1.43v-9.58a39.18,39.18,0,0,0-9.81-4.41A5.51,5.51,0,0,0,1340.52,552.18Z" transform="translate(-211.72 -214.2)"/><path class="cls-8" d="M1397.43,613.6a12,12,0,0,1-2.59-7.49v-15a19.59,19.59,0,0,0-3.75-12.12,42,42,0,0,0-12.94-10.36v9.59a16.55,16.55,0,0,1,5.51,4.85,11.07,11.07,0,0,1,1.43,5.51v13.77a20,20,0,0,0,9.2,15.7v.55a9,9,0,0,0-6.83-.72c-1.6.78-2.43,2.54-2.43,5.51v14.22c0,2.2-.49,3.58-1.43,4.07s-2.86,0-5.51-1.48v9.58a23.54,23.54,0,0,0,13.06,4.63c2.48-.5,3.74-3.09,3.74-7.82V632.17c0-3,.88-4.63,2.59-4.9a13.56,13.56,0,0,1,7.6,2.53V619.66A26.59,26.59,0,0,1,1397.43,613.6Z" transform="translate(-211.72 -214.2)"/><polygon class="cls-16" points="993.28 607.81 1024.79 642.08 1024.85 633.32 1003.09 610.46 1024.9 611.45 1024.9 602.69 993.28 602.58 993.28 607.81"/><polygon class="cls-16" points="1028.04 651.39 1036.86 656.46 1054.37 612.99 1045.51 607.92 1028.04 651.39"/><polygon class="cls-16" points="1057.4 621.47 1057.4 630.23 1079.16 654.36 1057.35 652.11 1057.29 660.86 1088.97 663.07 1088.97 657.83 1057.4 621.47"/><polygon class="cls-30" points="406.73 447.77 406.73 453.67 431.52 467.94 431.52 462.04 406.73 447.77"/><polygon class="cls-32" points="406.73 458.52 406.73 464.41 431.52 478.74 431.52 472.84 406.73 458.52"/><polygon class="cls-32" points="406.73 469.31 406.73 475.21 431.52 489.48 431.52 483.58 406.73 469.31"/><polygon class="cls-32" points="593.71 593.82 593.71 587.92 440.78 499.73 440.78 505.62 593.71 593.82"/><polygon class="cls-32" points="406.73 480.06 406.73 485.95 431.52 500.28 431.52 494.38 406.73 480.06"/><polygon class="cls-32" points="406.73 490.86 406.73 496.75 431.52 511.02 431.52 505.12 406.73 490.86"/><polygon class="cls-22" points="593.71 604.56 593.71 598.67 440.78 510.52 440.78 516.36 593.71 604.56"/><polygon class="cls-32" points="406.73 523.14 406.73 529.03 431.52 543.36 431.52 537.46 406.73 523.14"/><polygon class="cls-30" points="406.73 533.94 406.73 539.83 431.52 554.1 431.52 548.2 406.73 533.94"/><polygon class="cls-32" points="406.73 577.02 406.73 582.91 431.52 597.24 431.52 591.28 406.73 577.02"/><polygon class="cls-32" points="406.73 587.81 406.73 593.71 431.52 607.98 431.52 602.08 406.73 587.81"/><polygon class="cls-22" points="537.24 663.07 440.78 607.43 440.78 613.32 537.24 668.96 537.24 663.07"/><polygon class="cls-32" points="542.31 665.99 542.31 671.94 593.71 701.52 593.71 695.63 542.31 665.99"/><polygon class="cls-32" points="489.26 624.62 440.78 596.68 440.78 602.58 489.26 630.51 489.26 624.62"/><polygon class="cls-32" points="494.33 627.59 494.33 633.43 593.71 690.78 593.71 684.88 494.33 627.59"/><polygon class="cls-32" points="580.6 645 580.6 650.89 593.71 658.44 593.71 652.54 580.6 645"/><polygon class="cls-2" points="509.48 593.21 440.78 553.6 440.78 559.5 509.48 599.11 509.48 593.21"/><polygon class="cls-32" points="481.32 490.8 440.78 467.39 440.78 473.28 481.32 496.69 481.32 490.8"/><polygon class="cls-32" points="547.82 529.14 486.45 493.72 486.45 499.62 547.82 535.04 547.82 529.14"/><polygon class="cls-32" points="512.01 519.28 468.82 494.33 468.82 500.22 512.01 525.18 512.01 519.28"/><polygon class="cls-2" points="557.4 545.39 517.13 522.2 517.13 528.1 557.4 551.34 557.4 545.39"/><polygon class="cls-32" points="562.47 548.37 562.47 554.26 593.71 572.28 593.71 566.38 562.47 548.37"/><polygon class="cls-2" points="448.77 493.56 448.77 499.45 481.32 518.24 481.32 512.34 448.77 493.56"/><polygon class="cls-32" points="580.93 569.8 486.45 515.26 486.45 521.15 580.93 575.69 580.93 569.8"/><polygon class="cls-32" points="526.83 570.9 465.07 535.26 465.07 541.15 526.83 576.8 526.83 570.9"/><polygon class="cls-32" points="580.93 602.08 531.9 573.82 531.9 579.72 580.93 607.98 580.93 602.08"/><polygon class="cls-32" points="575.53 631.28 514.6 596.13 514.6 602.03 575.53 637.17 575.53 631.28"/><polygon class="cls-22" points="542.31 622.91 542.31 628.8 575.53 647.97 575.53 642.08 542.31 622.91"/><polygon class="cls-32" points="452.73 571.23 440.78 564.35 440.78 570.24 452.73 577.13 452.73 571.23"/><polygon class="cls-32" points="475.15 584.18 475.15 590.07 537.24 625.88 537.24 619.99 475.15 584.18"/><polygon class="cls-32" points="470.09 581.26 457.86 574.21 457.86 580.1 470.09 587.15 470.09 581.26"/><polygon class="cls-32" points="525.78 624.12 457.86 584.95 457.86 590.84 525.78 630.01 525.78 624.12"/><polygon class="cls-32" points="604.45 561.87 604.45 563.46 611.28 567.43 611.28 565.78 604.45 561.87"/><polygon class="cls-32" points="604.45 564.84 604.45 566.44 611.28 570.41 611.28 568.75 604.45 564.84"/><polygon class="cls-32" points="604.45 567.82 604.45 569.41 611.28 573.38 611.28 571.73 604.45 567.82"/><polygon class="cls-32" points="655.96 602.08 655.96 600.49 613.82 576.19 613.82 577.79 655.96 602.08"/><polygon class="cls-32" points="604.45 570.79 604.45 572.39 611.28 576.3 611.28 574.7 604.45 570.79"/><polygon class="cls-32" points="604.45 573.71 604.45 575.36 611.28 579.27 611.28 577.68 604.45 573.71"/><polygon class="cls-32" points="655.96 605.06 655.96 603.46 613.82 579.16 613.82 580.76 655.96 605.06"/><polygon class="cls-32" points="604.45 582.64 604.45 584.29 611.28 588.2 611.28 586.6 604.45 582.64"/><polygon class="cls-32" points="604.45 585.61 604.45 587.21 611.28 591.17 611.28 589.52 604.45 585.61"/><polygon class="cls-32" points="604.45 597.46 604.45 599.11 611.28 603.07 611.28 601.42 604.45 597.46"/><polygon class="cls-32" points="604.45 600.43 604.45 602.08 611.28 605.99 611.28 604.4 604.45 600.43"/><polygon class="cls-32" points="640.42 621.2 613.82 605.88 613.82 607.48 640.42 622.8 640.42 621.2"/><polygon class="cls-32" points="641.8 622.02 641.8 623.62 655.96 631.78 655.96 630.18 641.8 622.02"/><polygon class="cls-32" points="627.2 610.62 613.82 602.91 613.82 604.51 627.2 612.22 627.2 610.62"/><polygon class="cls-32" points="628.58 611.39 628.58 613.05 655.96 628.8 655.96 627.2 628.58 611.39"/><polygon class="cls-32" points="652.38 616.24 652.38 617.84 655.96 619.93 655.96 618.28 652.38 616.24"/><polygon class="cls-32" points="632.77 601.92 613.82 591.01 613.82 592.66 632.77 603.57 632.77 601.92"/><polygon class="cls-32" points="625 573.71 613.82 567.26 613.82 568.92 625 575.36 625 573.71"/><polygon class="cls-32" points="643.35 584.29 626.38 574.54 626.38 576.13 643.35 585.89 643.35 584.29"/><polygon class="cls-32" points="633.43 581.59 621.53 574.7 621.53 576.3 633.43 583.19 633.43 581.59"/><polygon class="cls-32" points="645.93 588.75 634.86 582.36 634.86 584.01 645.93 590.4 645.93 588.75"/><polygon class="cls-32" points="647.37 589.58 647.37 591.23 655.96 596.19 655.96 594.53 647.37 589.58"/><polygon class="cls-32" points="616.02 574.48 616.02 576.13 625 581.26 625 579.66 616.02 574.48"/><polygon class="cls-32" points="652.43 595.47 626.38 580.49 626.38 582.09 652.43 597.12 652.43 595.47"/><polygon class="cls-32" points="637.51 595.8 620.54 586 620.54 587.59 637.51 597.4 637.51 595.8"/><polygon class="cls-32" points="652.43 604.4 638.94 596.63 638.94 598.23 652.43 605.99 652.43 604.4"/><polygon class="cls-32" points="650.95 612.44 634.14 602.74 634.14 604.4 650.95 614.09 650.95 612.44"/><polygon class="cls-32" points="641.8 610.13 641.8 611.78 650.95 617.01 650.95 615.41 641.8 610.13"/><polygon class="cls-32" points="617.12 595.91 613.82 593.98 613.82 595.64 617.12 597.51 617.12 595.91"/><polygon class="cls-32" points="623.29 599.44 623.29 601.09 640.42 610.95 640.42 609.3 623.29 599.44"/><polygon class="cls-32" points="621.91 598.67 618.5 596.68 618.5 598.34 621.91 600.26 621.91 598.67"/><polygon class="cls-32" points="637.23 610.46 618.5 599.66 618.5 601.31 637.23 612.11 637.23 610.46"/><polygon class="cls-32" points="604.45 612.11 604.45 613.71 611.28 617.67 611.28 616.02 604.45 612.11"/><polygon class="cls-32" points="604.45 615.03 604.45 616.68 611.28 620.65 611.28 619 604.45 615.03"/><polygon class="cls-32" points="604.45 618 604.45 619.66 611.28 623.57 611.28 621.97 604.45 618"/><polygon class="cls-32" points="655.96 652.33 655.96 650.73 613.82 626.43 613.82 628.03 655.96 652.33"/><polygon class="cls-32" points="604.45 620.98 604.45 622.63 611.28 626.54 611.28 624.95 604.45 620.98"/><polygon class="cls-32" points="604.45 623.95 604.45 625.61 611.28 629.52 611.28 627.92 604.45 623.95"/><polygon class="cls-32" points="655.96 655.3 655.96 653.7 613.82 629.35 613.82 631 655.96 655.3"/><polygon class="cls-32" points="604.45 632.88 604.45 634.48 611.28 638.44 611.28 636.79 604.45 632.88"/><polygon class="cls-32" points="604.45 635.85 604.45 637.45 611.28 641.42 611.28 639.76 604.45 635.85"/><polygon class="cls-32" points="604.45 647.7 604.45 649.35 611.28 653.26 611.28 651.66 604.45 647.7"/><polygon class="cls-32" points="604.45 650.67 604.45 652.33 611.28 656.24 611.28 654.64 604.45 650.67"/><polygon class="cls-32" points="640.42 671.44 613.82 656.07 613.82 657.72 640.42 673.04 640.42 671.44"/><polygon class="cls-32" points="641.8 672.21 641.8 673.87 655.96 682.02 655.96 680.37 641.8 672.21"/><polygon class="cls-32" points="627.2 660.81 613.82 653.15 613.82 654.75 627.2 662.46 627.2 660.81"/><polygon class="cls-32" points="628.58 661.63 628.58 663.23 655.96 679.04 655.96 677.45 628.58 661.63"/><polygon class="cls-32" points="652.38 666.43 652.38 668.08 655.96 670.12 655.96 668.52 652.38 666.43"/><polygon class="cls-32" points="632.77 652.16 613.82 641.25 613.82 642.85 632.77 653.81 632.77 652.16"/><polygon class="cls-32" points="625 623.95 613.82 617.51 613.82 619.11 625 625.55 625 623.95"/><polygon class="cls-32" points="643.35 634.53 626.38 624.78 626.38 626.38 643.35 636.13 643.35 634.53"/><polygon class="cls-32" points="633.43 631.78 621.53 624.95 621.53 626.54 633.43 633.43 633.43 631.78"/><polygon class="cls-32" points="645.93 638.99 634.86 632.6 634.86 634.25 645.93 640.65 645.93 638.99"/><polygon class="cls-32" points="647.37 639.82 647.37 641.42 655.96 646.38 655.96 644.78 647.37 639.82"/><polygon class="cls-32" points="616.02 624.73 616.02 626.32 625 631.5 625 629.9 616.02 624.73"/><polygon class="cls-32" points="652.43 645.71 626.38 630.67 626.38 632.33 652.43 647.31 652.43 645.71"/><polygon class="cls-32" points="637.51 646.04 620.54 636.18 620.54 637.84 637.51 647.64 637.51 646.04"/><polygon class="cls-32" points="652.43 654.64 638.94 646.82 638.94 648.47 652.43 656.24 652.43 654.64"/><polygon class="cls-32" points="650.95 662.68 634.14 652.99 634.14 654.58 650.95 664.28 650.95 662.68"/><polygon class="cls-32" points="641.8 660.37 641.8 661.97 650.95 667.25 650.95 665.66 641.8 660.37"/><polygon class="cls-32" points="617.12 646.1 613.82 644.23 613.82 645.82 617.12 647.75 617.12 646.1"/><polygon class="cls-32" points="623.29 649.68 623.29 651.28 640.42 661.2 640.42 659.54 623.29 649.68"/><polygon class="cls-32" points="621.91 648.85 618.5 646.93 618.5 648.52 621.91 650.51 621.91 648.85"/><polygon class="cls-32" points="637.23 660.7 618.5 649.9 618.5 651.5 637.23 662.3 637.23 660.7"/><polygon class="cls-32" points="604.45 662.3 604.45 663.95 611.28 667.86 611.28 666.26 604.45 662.3"/><polygon class="cls-32" points="604.45 665.27 604.45 666.92 611.28 670.84 611.28 669.24 604.45 665.27"/><polygon class="cls-32" points="604.45 668.25 604.45 669.9 611.28 673.81 611.28 672.21 604.45 668.25"/><polygon class="cls-32" points="655.96 702.57 655.96 700.91 613.82 676.62 613.82 678.27 655.96 702.57"/><polygon class="cls-32" points="604.45 671.22 604.45 672.87 611.28 676.78 611.28 675.19 604.45 671.22"/><polygon class="cls-32" points="604.45 674.2 604.45 675.79 611.28 679.76 611.28 678.11 604.45 674.2"/><polygon class="cls-32" points="655.96 705.54 655.96 703.89 613.82 679.6 613.82 681.25 655.96 705.54"/><polygon class="cls-32" points="604.45 683.12 604.45 684.72 611.28 688.63 611.28 687.03 604.45 683.12"/><polygon class="cls-32" points="604.45 686.04 604.45 687.69 611.28 691.6 611.28 690.01 604.45 686.04"/><polygon class="cls-32" points="604.45 697.94 604.45 699.54 611.28 703.5 611.28 701.85 604.45 697.94"/><polygon class="cls-32" points="604.45 700.91 604.45 702.51 611.28 706.48 611.28 704.83 604.45 700.91"/><polygon class="cls-32" points="640.42 721.63 613.82 706.31 613.82 707.97 640.42 723.28 640.42 721.63"/><polygon class="cls-32" points="641.8 722.46 641.8 724.11 655.96 732.26 655.96 730.61 641.8 722.46"/><polygon class="cls-32" points="627.2 711.05 613.82 703.34 613.82 704.99 627.2 712.7 627.2 711.05"/><polygon class="cls-32" points="628.58 711.88 628.58 713.48 655.96 729.29 655.96 727.63 628.58 711.88"/><polygon class="cls-32" points="652.38 716.67 652.38 718.27 655.96 720.36 655.96 718.76 652.38 716.67"/><polygon class="cls-32" points="632.77 702.4 613.82 691.49 613.82 693.09 632.77 704 632.77 702.4"/><polygon class="cls-32" points="625 674.2 613.82 667.75 613.82 669.35 625 675.79 625 674.2"/><polygon class="cls-32" points="643.35 684.72 626.38 674.97 626.38 676.62 643.35 686.37 643.35 684.72"/><polygon class="cls-32" points="633.43 682.02 621.53 675.13 621.53 676.78 633.43 683.62 633.43 682.02"/><polygon class="cls-32" points="645.93 689.24 634.86 682.85 634.86 684.44 645.93 690.83 645.93 689.24"/><polygon class="cls-32" points="647.37 690.01 647.37 691.66 655.96 696.62 655.96 695.02 647.37 690.01"/><polygon class="cls-32" points="616.02 674.91 616.02 676.57 625 681.74 625 680.09 616.02 674.91"/><polygon class="cls-32" points="652.43 695.96 626.38 680.92 626.38 682.51 652.43 697.55 652.43 695.96"/><polygon class="cls-32" points="637.51 696.23 620.54 686.43 620.54 688.02 637.51 697.88 637.51 696.23"/><polygon class="cls-32" points="652.43 704.83 638.94 697.06 638.94 698.66 652.43 706.48 652.43 704.83"/><polygon class="cls-32" points="650.95 712.87 634.14 703.17 634.14 704.83 650.95 714.52 650.95 712.87"/><polygon class="cls-32" points="641.8 710.61 641.8 712.21 650.95 717.5 650.95 715.84 641.8 710.61"/><polygon class="cls-32" points="617.12 696.34 613.82 694.47 613.82 696.07 617.12 697.94 617.12 696.34"/><polygon class="cls-32" points="623.29 699.92 623.29 701.52 640.42 711.38 640.42 709.78 623.29 699.92"/><polygon class="cls-32" points="621.91 699.1 618.5 697.17 618.5 698.77 621.91 700.69 621.91 699.1"/><polygon class="cls-32" points="637.23 710.94 618.5 700.14 618.5 701.74 637.23 712.54 637.23 710.94"/><polygon class="cls-32" points="604.45 712.54 604.45 714.19 611.28 718.1 611.28 716.5 604.45 712.54"/><polygon class="cls-32" points="604.45 715.51 604.45 717.11 611.28 721.08 611.28 719.42 604.45 715.51"/><polygon class="cls-32" points="604.45 718.49 604.45 720.09 611.28 724.05 611.28 722.4 604.45 718.49"/><polygon class="cls-32" points="655.96 752.81 655.96 751.16 613.82 726.86 613.82 728.51 655.96 752.81"/><polygon class="cls-32" points="604.45 721.46 604.45 723.06 611.28 727.03 611.28 725.38 604.45 721.46"/><polygon class="cls-32" points="604.45 724.44 604.45 726.04 611.28 729.95 611.28 728.35 604.45 724.44"/><polygon class="cls-32" points="655.96 755.73 655.96 754.13 613.82 729.84 613.82 731.43 655.96 755.73"/><polygon class="cls-32" points="604.45 733.31 604.45 734.96 611.28 738.87 611.28 737.27 604.45 733.31"/><polygon class="cls-32" points="604.45 736.28 604.45 737.93 611.28 741.85 611.28 740.25 604.45 736.28"/><polygon class="cls-32" points="652.38 766.91 652.38 768.51 655.96 770.6 655.96 768.95 652.38 766.91"/><polygon class="cls-32" points="632.77 752.64 613.82 741.68 613.82 743.33 632.77 754.24 632.77 752.64"/><polygon class="cls-32" points="625 724.38 613.82 717.94 613.82 719.59 625 726.04 625 724.38"/><polygon class="cls-32" points="643.35 734.96 626.38 725.21 626.38 726.86 643.35 736.61 643.35 734.96"/><polygon class="cls-32" points="633.43 732.26 621.53 725.38 621.53 727.03 633.43 733.86 633.43 732.26"/><polygon class="cls-32" points="645.93 739.48 634.86 733.03 634.86 734.68 645.93 741.08 645.93 739.48"/><polygon class="cls-32" points="647.37 740.25 647.37 741.9 655.96 746.86 655.96 745.21 647.37 740.25"/><polygon class="cls-32" points="616.02 725.15 616.02 726.81 625 731.99 625 730.33 616.02 725.15"/><polygon class="cls-32" points="652.43 746.14 626.38 731.16 626.38 732.76 652.43 747.8 652.43 746.14"/><polygon class="cls-32" points="637.51 746.47 620.54 736.67 620.54 738.27 637.51 748.07 637.51 746.47"/><polygon class="cls-32" points="652.43 755.07 638.94 747.3 638.94 748.9 652.43 756.72 652.43 755.07"/><polygon class="cls-32" points="650.95 763.11 634.14 753.42 634.14 755.07 650.95 764.76 650.95 763.11"/><polygon class="cls-32" points="641.8 760.8 641.8 762.45 650.95 767.68 650.95 766.09 641.8 760.8"/><polygon class="cls-32" points="617.12 746.59 613.82 744.66 613.82 746.31 617.12 748.18 617.12 746.59"/><polygon class="cls-32" points="623.29 750.11 623.29 751.76 640.42 761.62 640.42 760.03 623.29 750.11"/><polygon class="cls-32" points="621.91 749.34 618.5 747.36 618.5 749.01 621.91 750.94 621.91 749.34"/><polygon class="cls-32" points="637.23 761.13 618.5 750.33 618.5 751.98 637.23 762.78 637.23 761.13"/><path class="cls-22" d="M602.58,652.83l-8.15-4.74a.61.61,0,0,0-.84.17.66.66,0,0,0-.1.38v9.75a1.3,1.3,0,0,0,.72,1.16l8.15,4.74a.61.61,0,0,0,.82-.27.57.57,0,0,0,.06-.28V654A1.21,1.21,0,0,0,602.58,652.83Z" transform="translate(-211.72 -214.2)"/><path class="cls-22" d="M602.58,667.43l-8.15-4.69a.61.61,0,0,0-.84.18.75.75,0,0,0-.1.32V673a1.3,1.3,0,0,0,.72,1.16l8.15,4.73a.6.6,0,0,0,.82-.26.58.58,0,0,0,.06-.29v-9.69A1.35,1.35,0,0,0,602.58,667.43Z" transform="translate(-211.72 -214.2)"/><path class="cls-22" d="M602.58,682l-8.15-4.69a.61.61,0,0,0-.84.18.67.67,0,0,0-.1.32v9.8a1.43,1.43,0,0,0,.72,1.16l8.15,4.68a.54.54,0,0,0,.77-.1.5.5,0,0,0,.11-.39v-9.75A1.35,1.35,0,0,0,602.58,682Z" transform="translate(-211.72 -214.2)"/><path class="cls-22" d="M602.58,696.68l-8.15-4.74a.61.61,0,0,0-.94.55v9.75a1.28,1.28,0,0,0,.72,1.16l8.15,4.74a.61.61,0,0,0,.82-.27.52.52,0,0,0,.06-.28v-9.75A1.21,1.21,0,0,0,602.58,696.68Z" transform="translate(-211.72 -214.2)"/><path class="cls-22" d="M602.58,711.28l-8.15-4.68a.6.6,0,0,0-.84.17.75.75,0,0,0-.1.32v9.75a1.29,1.29,0,0,0,.72,1.16l8.15,4.74a.61.61,0,0,0,.82-.27.55.55,0,0,0,.06-.28v-9.92A1.29,1.29,0,0,0,602.58,711.28Z" transform="translate(-211.72 -214.2)"/><path class="cls-22" d="M602.58,725.88l-8.15-4.69a.61.61,0,0,0-.84.18.75.75,0,0,0-.1.32v9.81a1.43,1.43,0,0,0,.72,1.15l8.15,4.69a.61.61,0,0,0,.82-.27.46.46,0,0,0,.06-.23v-9.75A1.36,1.36,0,0,0,602.58,725.88Z" transform="translate(-211.72 -214.2)"/><path class="cls-22" d="M602.58,740.53l-8.15-4.74a.61.61,0,0,0-.94.55v9.76a1.27,1.27,0,0,0,.72,1.15l8.15,4.74a.62.62,0,0,0,.82-.26.58.58,0,0,0,.06-.29v-9.75A1.22,1.22,0,0,0,602.58,740.53Z" transform="translate(-211.72 -214.2)"/><path class="cls-22" d="M602.58,755.13l-8.15-4.74a.67.67,0,0,0-.88.32,1,1,0,0,0-.06.23v9.75a1.28,1.28,0,0,0,.72,1.16l8.15,4.74a.61.61,0,0,0,.82-.27.52.52,0,0,0,.06-.28v-9.7A1.32,1.32,0,0,0,602.58,755.13Z" transform="translate(-211.72 -214.2)"/><path class="cls-22" d="M602.58,769.73l-8.15-4.68a.6.6,0,0,0-.84.17.75.75,0,0,0-.1.32v9.81a1.28,1.28,0,0,0,.72,1.1l8.15,4.74a.62.62,0,0,0,.82-.26.53.53,0,0,0,.06-.24v-9.75A1.37,1.37,0,0,0,602.58,769.73Z" transform="translate(-211.72 -214.2)"/><path class="cls-22" d="M602.58,784.38l-8.15-4.73a.6.6,0,0,0-.84.17.62.62,0,0,0-.1.38V790a1.32,1.32,0,0,0,.72,1.15l8.15,4.69a.55.55,0,0,0,.77-.11.5.5,0,0,0,.11-.39v-9.75A1.22,1.22,0,0,0,602.58,784.38Z" transform="translate(-211.72 -214.2)"/><path class="cls-22" d="M602.58,799l-8.15-4.74a.61.61,0,0,0-.84.18.62.62,0,0,0-.1.38v9.75a1.27,1.27,0,0,0,.72,1.15l8.15,4.74a.62.62,0,0,0,.82-.26.58.58,0,0,0,.06-.29v-9.48A1.31,1.31,0,0,0,602.58,799Z" transform="translate(-211.72 -214.2)"/><path class="cls-22" d="M602.58,813.58l-8.15-4.68a.6.6,0,0,0-.84.18.67.67,0,0,0-.1.31v9.81a1.27,1.27,0,0,0,.72,1.1l8.15,4.74a.62.62,0,0,0,.82-.26.58.58,0,0,0,.06-.29v-9.7A1.37,1.37,0,0,0,602.58,813.58Z" transform="translate(-211.72 -214.2)"/><g class="cls-33"><polygon class="cls-34" points="204.88 216.45 204.88 222.34 229.67 236.67 229.67 230.77 204.88 216.45"/><polygon class="cls-34" points="204.88 227.25 204.88 233.14 229.67 247.41 229.67 241.52 204.88 227.25"/><polygon class="cls-34" points="204.88 237.99 204.88 243.88 229.67 258.21 229.67 252.31 204.88 237.99"/><polygon class="cls-34" points="391.86 362.5 391.86 356.6 238.98 268.45 238.98 274.35 391.86 362.5"/><polygon class="cls-34" points="204.88 248.79 204.88 254.68 229.67 268.95 229.67 263.06 204.88 248.79"/><polygon class="cls-34" points="204.88 259.53 204.88 265.48 229.67 279.75 229.67 273.85 204.88 259.53"/><polygon class="cls-34" points="391.86 373.29 391.86 367.4 238.98 279.2 238.98 285.09 391.86 373.29"/><polygon class="cls-34" points="204.88 291.87 204.88 297.76 229.67 312.09 229.67 306.19 204.88 291.87"/><polygon class="cls-34" points="204.88 302.67 204.88 308.56 229.67 322.83 229.67 316.94 204.88 302.67"/><polygon class="cls-34" points="204.88 345.75 204.88 351.64 229.67 365.91 229.67 360.02 204.88 345.75"/><polygon class="cls-34" points="204.88 356.49 204.88 362.38 229.67 376.71 229.67 370.81 204.88 356.49"/><polygon class="cls-34" points="335.39 431.8 238.98 376.16 238.98 382.05 335.39 437.69 335.39 431.8"/><polygon class="cls-34" points="340.51 434.72 340.51 440.61 391.86 470.25 391.86 464.36 340.51 434.72"/><polygon class="cls-34" points="287.41 393.35 238.98 365.41 238.98 371.31 287.41 399.24 287.41 393.35"/><polygon class="cls-34" points="292.48 396.26 292.48 402.16 391.86 459.45 391.86 453.56 292.48 396.26"/><polygon class="cls-34" points="378.8 413.73 378.8 419.62 391.86 427.17 391.86 421.28 378.8 413.73"/><polygon class="cls-34" points="307.63 361.94 238.98 322.28 238.98 328.17 307.63 367.84 307.63 361.94"/><polygon class="cls-34" points="279.53 259.48 238.98 236.12 238.98 242.01 279.53 265.37 279.53 259.48"/><polygon class="cls-34" points="345.97 297.82 284.6 262.45 284.6 268.35 345.97 303.71 345.97 297.82"/><polygon class="cls-34" points="310.21 287.96 266.97 263.06 266.97 268.95 310.21 293.85 310.21 287.96"/><polygon class="cls-34" points="355.55 314.13 315.28 290.93 315.28 296.83 355.55 320.02 355.55 314.13"/><polygon class="cls-34" points="360.62 317.05 360.62 322.94 391.86 340.95 391.86 335.06 360.62 317.05"/><polygon class="cls-34" points="246.97 262.29 246.97 268.18 279.53 286.97 279.53 281.07 246.97 262.29"/><polygon class="cls-34" points="379.13 338.48 284.6 283.99 284.6 289.88 379.13 344.43 379.13 338.48"/><polygon class="cls-34" points="324.98 339.63 263.22 303.99 263.22 309.88 324.98 345.53 324.98 339.63"/><polygon class="cls-34" points="379.13 370.81 330.1 342.55 330.1 348.45 379.13 376.71 379.13 370.81"/><polygon class="cls-34" points="373.68 400.01 312.75 364.86 312.75 370.76 373.68 405.91 373.68 400.01"/><polygon class="cls-34" points="340.51 391.64 340.51 397.53 373.68 416.7 373.68 410.81 340.51 391.64"/><polygon class="cls-34" points="250.94 339.96 238.98 333.08 238.98 338.97 250.94 345.86 250.94 339.96"/><polygon class="cls-34" points="273.3 352.91 273.3 358.8 335.39 394.61 335.39 388.72 273.3 352.91"/><polygon class="cls-34" points="268.24 349.93 256 342.88 256 348.78 268.24 355.83 268.24 349.93"/><polygon class="cls-34" points="323.93 392.85 256 353.68 256 359.57 323.93 398.74 323.93 392.85"/></g><g class="cls-33"><polygon class="cls-34" points="774.24 490.41 774.24 496.31 799.03 510.58 799.03 504.68 774.24 490.41"/><polygon class="cls-34" points="774.24 501.16 774.24 507.05 799.03 521.38 799.03 515.42 774.24 501.16"/><polygon class="cls-34" points="774.24 511.95 774.24 517.85 799.03 532.12 799.03 526.22 774.24 511.95"/><polygon class="cls-34" points="961.22 636.46 961.22 630.56 808.34 542.37 808.34 548.26 961.22 636.46"/><polygon class="cls-34" points="774.24 522.7 774.24 528.59 799.03 542.92 799.03 537.02 774.24 522.7"/><polygon class="cls-34" points="774.24 533.5 774.24 539.39 799.03 553.66 799.03 547.76 774.24 533.5"/><polygon class="cls-34" points="961.22 647.2 961.22 641.31 808.34 553.16 808.34 559 961.22 647.2"/><polygon class="cls-34" points="774.24 565.78 774.24 571.73 799.03 586 799.03 580.1 774.24 565.78"/><polygon class="cls-34" points="774.24 576.58 774.24 582.47 799.03 596.74 799.03 590.84 774.24 576.58"/><polygon class="cls-34" points="774.24 619.66 774.24 625.55 799.03 639.88 799.03 633.98 774.24 619.66"/><polygon class="cls-34" points="774.24 630.45 774.24 636.35 799.03 650.62 799.03 644.72 774.24 630.45"/><polygon class="cls-34" points="904.8 705.71 808.34 650.07 808.34 656.02 904.8 711.6 904.8 705.71"/><polygon class="cls-34" points="909.87 708.63 909.87 714.58 961.22 744.16 961.22 738.27 909.87 708.63"/><polygon class="cls-34" points="856.82 667.25 808.34 639.32 808.34 645.22 856.82 673.15 856.82 667.25"/><polygon class="cls-34" points="861.89 670.23 861.89 676.07 961.22 733.42 961.22 727.52 861.89 670.23"/><polygon class="cls-34" points="948.16 687.64 948.16 693.53 961.22 701.08 961.22 695.18 948.16 687.64"/><polygon class="cls-34" points="877.04 635.85 808.34 596.24 808.34 602.14 877.04 641.75 877.04 635.85"/><polygon class="cls-34" points="848.89 533.44 808.34 510.03 808.34 515.92 848.89 539.34 848.89 533.44"/><polygon class="cls-34" points="915.38 571.78 853.96 536.36 853.96 542.25 915.38 577.68 915.38 571.78"/><polygon class="cls-34" points="879.57 561.92 836.38 536.97 836.38 542.86 879.57 567.82 879.57 561.92"/><polygon class="cls-34" points="924.91 588.09 884.64 564.84 884.64 570.74 924.91 593.93 924.91 588.09"/><polygon class="cls-34" points="929.98 591.01 929.98 596.9 961.22 614.92 961.22 609.02 929.98 591.01"/><polygon class="cls-34" points="816.33 536.2 816.33 542.09 848.89 560.88 848.89 554.98 816.33 536.2"/><polygon class="cls-34" points="948.49 612.44 853.96 557.9 853.96 563.79 948.49 618.33 948.49 612.44"/><polygon class="cls-34" points="894.39 613.54 832.58 577.9 832.58 583.79 894.39 619.44 894.39 613.54"/><polygon class="cls-34" points="948.49 644.72 899.46 616.46 899.46 622.36 948.49 650.67 948.49 644.72"/><polygon class="cls-34" points="943.09 673.92 882.11 638.77 882.11 644.67 943.09 679.82 943.09 673.92"/><polygon class="cls-34" points="909.87 665.55 909.87 671.44 943.09 690.61 943.09 684.72 909.87 665.55"/><polygon class="cls-34" points="820.29 613.87 808.34 606.99 808.34 612.88 820.29 619.77 820.29 613.87"/><polygon class="cls-34" points="842.66 626.82 842.66 632.71 904.8 668.52 904.8 662.63 842.66 626.82"/><polygon class="cls-34" points="837.59 623.9 825.36 616.85 825.36 622.74 837.59 629.79 837.59 623.9"/><polygon class="cls-34" points="893.29 666.76 825.36 627.59 825.36 633.48 893.29 672.65 893.29 666.76"/></g><g class="cls-33"><polygon class="cls-34" points="621.59 157.06 621.59 162.96 646.38 177.23 646.38 171.33 621.59 157.06"/><polygon class="cls-34" points="621.59 167.81 621.59 173.75 646.38 188.02 646.38 182.13 621.59 167.81"/><polygon class="cls-34" points="621.59 178.6 621.59 184.5 646.38 198.82 646.38 192.87 621.59 178.6"/><polygon class="cls-34" points="808.56 303.11 808.56 297.21 655.69 209.01 655.69 214.91 808.56 303.11"/><polygon class="cls-34" points="621.59 189.4 621.59 195.29 646.38 209.56 646.38 203.67 621.59 189.4"/><polygon class="cls-34" points="621.59 200.14 621.59 206.04 646.38 220.36 646.38 214.41 621.59 200.14"/><polygon class="cls-34" points="808.56 313.9 808.56 308.01 655.69 219.81 655.69 225.71 808.56 313.9"/><polygon class="cls-34" points="621.59 232.48 621.59 238.38 646.38 252.64 646.38 246.75 621.59 232.48"/><polygon class="cls-34" points="621.59 243.22 621.59 249.12 646.38 263.44 646.38 257.55 621.59 243.22"/><polygon class="cls-34" points="621.59 286.36 621.59 292.25 646.38 306.52 646.38 300.63 621.59 286.36"/><polygon class="cls-34" points="621.59 297.1 621.59 303 646.38 317.26 646.38 311.37 621.59 297.1"/><polygon class="cls-34" points="752.09 372.41 655.69 316.77 655.69 322.66 752.09 378.31 752.09 372.41"/><polygon class="cls-34" points="757.22 375.33 757.22 381.23 808.56 410.86 808.56 404.97 757.22 375.33"/><polygon class="cls-34" points="704.11 333.96 655.69 305.97 655.69 311.87 704.11 339.85 704.11 333.96"/><polygon class="cls-34" points="709.23 336.88 709.23 342.77 808.56 400.07 808.56 394.17 709.23 336.88"/><polygon class="cls-34" points="795.5 354.34 795.5 360.24 808.56 367.73 808.56 361.83 795.5 354.34"/><polygon class="cls-34" points="724.38 302.5 655.69 262.89 655.69 268.79 724.38 308.4 724.38 302.5"/><polygon class="cls-34" points="696.23 200.09 655.69 176.73 655.69 182.63 696.23 205.98 696.23 200.09"/><polygon class="cls-34" points="762.67 238.43 701.3 203.01 701.3 208.9 762.67 244.33 762.67 238.43"/><polygon class="cls-34" points="726.92 228.57 683.67 203.67 683.67 209.56 726.92 234.47 726.92 228.57"/><polygon class="cls-34" points="772.26 254.74 731.99 231.49 731.99 237.38 772.26 260.63 772.26 254.74"/><polygon class="cls-34" points="777.33 257.66 777.33 263.55 808.56 281.57 808.56 275.67 777.33 257.66"/><polygon class="cls-34" points="663.67 202.84 663.67 208.74 696.23 227.52 696.23 221.63 663.67 202.84"/><polygon class="cls-34" points="795.84 279.09 701.3 224.6 701.3 230.5 795.84 284.98 795.84 279.09"/><polygon class="cls-34" points="741.68 280.19 679.92 244.6 679.92 250.5 741.68 286.08 741.68 280.19"/><polygon class="cls-34" points="795.84 311.43 746.8 283.16 746.8 289.06 795.84 317.32 795.84 311.43"/><polygon class="cls-34" points="790.38 340.62 729.45 305.48 729.45 311.37 790.38 346.52 790.38 340.62"/><polygon class="cls-34" points="757.22 332.25 757.22 338.14 790.38 357.26 790.38 351.37 757.22 332.25"/><polygon class="cls-34" points="667.64 280.57 655.69 273.69 655.69 279.58 667.64 286.47 667.64 280.57"/><polygon class="cls-34" points="690.01 293.47 690.01 299.36 752.09 335.17 752.09 329.27 690.01 293.47"/><polygon class="cls-34" points="684.94 290.55 672.71 283.5 672.71 289.39 684.94 296.44 684.94 290.55"/><polygon class="cls-34" points="740.63 333.46 672.71 294.29 672.71 300.19 740.63 339.36 740.63 333.46"/></g><g class="cls-33"><polygon class="cls-34" points="753.69 59.5 650.95 0 650.95 5.23 753.69 64.73 753.69 59.5"/><polygon class="cls-34" points="650.95 15.48 808.56 106.66 808.56 101.42 650.95 10.25 650.95 15.48"/><polygon class="cls-34" points="760.58 63.35 760.58 68.59 808.56 96.41 808.56 91.17 760.58 63.35"/><polygon class="cls-34" points="753.69 79.5 650.95 20 650.95 25.23 753.69 84.73 753.69 79.5"/><polygon class="cls-34" points="650.95 35.53 808.56 126.65 808.56 121.42 650.95 30.3 650.95 35.53"/><polygon class="cls-34" points="760.58 88.58 808.56 116.41 808.56 111.17 760.58 83.41 760.58 88.58"/><polygon class="cls-34" points="753.69 112.55 650.95 53.05 650.95 58.29 753.69 117.78 753.69 112.55"/><polygon class="cls-34" points="650.95 68.59 808.56 159.71 808.56 154.47 650.95 63.35 650.95 68.59"/><polygon class="cls-34" points="760.58 121.64 808.56 149.46 808.56 144.23 760.58 116.46 760.58 121.64"/><polygon class="cls-34" points="753.69 132.6 650.95 73.11 650.95 78.34 753.69 137.84 753.69 132.6"/><polygon class="cls-34" points="650.95 88.58 808.56 179.76 808.56 174.53 650.95 83.35 650.95 88.58"/><polygon class="cls-34" points="760.58 141.69 808.56 169.46 808.56 164.28 760.58 136.46 760.58 141.69"/><polygon class="cls-34" points="753.69 165.66 650.95 106.16 650.95 111.39 753.69 170.89 753.69 165.66"/><polygon class="cls-34" points="650.95 121.64 808.56 212.81 808.56 207.58 650.95 116.41 650.95 121.64"/><polygon class="cls-34" points="760.58 174.75 808.56 202.51 808.56 197.28 760.58 169.51 760.58 174.75"/><polygon class="cls-34" points="753.69 185.66 650.95 126.16 650.95 131.39 753.69 190.89 753.69 185.66"/><polygon class="cls-34" points="650.95 141.64 808.56 232.81 808.56 227.58 650.95 136.4 650.95 141.64"/><polygon class="cls-34" points="760.58 194.74 808.56 222.56 808.56 217.33 760.58 189.51 760.58 194.74"/></g><path class="cls-35" d="M688.25,348.67,611.51,304.6a5.51,5.51,0,0,0-8.43,4.85v91.83a12.38,12.38,0,0,0,6.28,11l76.74,44.41a5.5,5.5,0,0,0,8.59-5v-92A13,13,0,0,0,688.25,348.67Z" transform="translate(-211.72 -214.2)"/><path class="cls-35" d="M1155.36,507.33l-76.74-44.07A5.51,5.51,0,0,0,1071,465a5.4,5.4,0,0,0-.84,3.15V560a12.52,12.52,0,0,0,6.23,11l76.74,44.35a5.51,5.51,0,0,0,8.65-5V518.52A13,13,0,0,0,1155.36,507.33Z" transform="translate(-211.72 -214.2)"/><path class="cls-35" d="M1497.09,810.11,1420.34,766a5.5,5.5,0,0,0-8.42,4.85v91.89a12.31,12.31,0,0,0,6.28,11l76.68,44.41a5.51,5.51,0,0,0,8.65-5V821.73A12.79,12.79,0,0,0,1497.09,810.11Z" transform="translate(-211.72 -214.2)"/><path class="cls-35" d="M829.12,584.07,752.37,540a5.51,5.51,0,0,0-8.37,4.91v91.83a12.56,12.56,0,0,0,6.23,11L827,692.11a5.51,5.51,0,0,0,8.65-5V595.26A13,13,0,0,0,829.12,584.07Z" transform="translate(-211.72 -214.2)"/><path class="cls-35" d="M1260.14,329.83l-76.74-44.07a5.51,5.51,0,0,0-8.43,4.85v91.67a12.36,12.36,0,0,0,6.28,11L1258,437.7a5.51,5.51,0,0,0,8.6-5V341.24A12.8,12.8,0,0,0,1260.14,329.83Z" transform="translate(-211.72 -214.2)"/><g class="cls-33"><polygon class="cls-34" points="1001.98 121.2 1001.98 127.09 1026.77 141.36 1026.77 135.47 1001.98 121.2"/><polygon class="cls-34" points="1001.98 131.94 1001.98 137.84 1026.77 152.16 1026.77 146.26 1001.98 131.94"/><polygon class="cls-34" points="1001.98 142.74 1001.98 148.63 1026.77 162.9 1026.77 157.01 1001.98 142.74"/><polygon class="cls-34" points="1188.96 267.24 1188.96 261.35 1036.09 173.15 1036.09 179.04 1188.96 267.24"/><polygon class="cls-34" points="1001.98 153.54 1001.98 159.43 1026.77 173.7 1026.77 167.81 1001.98 153.54"/><polygon class="cls-34" points="1001.98 164.28 1001.98 170.17 1026.77 184.5 1026.77 178.55 1001.98 164.28"/><polygon class="cls-34" points="1188.96 278.04 1188.96 272.15 1036.09 183.95 1036.09 189.84 1188.96 278.04"/><polygon class="cls-34" points="1001.98 196.62 1001.98 202.51 1026.77 216.78 1026.77 210.89 1001.98 196.62"/><polygon class="cls-34" points="1001.98 207.36 1001.98 213.25 1026.77 227.58 1026.77 221.68 1001.98 207.36"/><polygon class="cls-34" points="1001.98 250.5 1001.98 256.39 1026.77 270.66 1026.77 264.76 1001.98 250.5"/><polygon class="cls-34" points="1001.98 261.24 1001.98 267.13 1026.77 281.46 1026.77 275.51 1001.98 261.24"/><polygon class="cls-34" points="1132.49 336.55 1036.09 280.91 1036.09 286.8 1132.49 342.44 1132.49 336.55"/><polygon class="cls-34" points="1137.62 339.47 1137.62 345.36 1188.96 375 1188.96 369.11 1137.62 339.47"/><polygon class="cls-34" points="1084.51 298.09 1036.09 270.11 1036.09 276 1084.51 303.99 1084.51 298.09"/><polygon class="cls-34" points="1089.58 301.01 1089.58 306.91 1188.96 364.2 1188.96 358.31 1089.58 301.01"/><polygon class="cls-34" points="1175.9 318.42 1175.9 324.37 1188.96 331.86 1188.96 325.97 1175.9 318.42"/><polygon class="cls-34" points="1104.78 266.64 1036.09 227.03 1036.09 232.92 1104.78 272.53 1104.78 266.64"/><polygon class="cls-34" points="1076.63 164.22 1036.09 140.87 1036.09 146.76 1076.63 170.12 1076.63 164.22"/><polygon class="cls-34" points="1143.07 202.57 1081.7 167.14 1081.7 173.04 1143.07 208.46 1143.07 202.57"/><polygon class="cls-34" points="1107.32 192.71 1064.07 167.81 1064.07 173.7 1107.32 198.6 1107.32 192.71"/><polygon class="cls-34" points="1152.66 218.87 1112.38 195.63 1112.38 201.52 1152.66 224.77 1152.66 218.87"/><polygon class="cls-34" points="1157.72 221.79 1157.72 227.69 1188.96 245.7 1188.96 239.81 1157.72 221.79"/><polygon class="cls-34" points="1044.02 166.98 1044.02 172.87 1076.63 191.66 1076.63 185.76 1044.02 166.98"/><polygon class="cls-34" points="1176.23 243.22 1081.7 188.74 1081.7 194.63 1176.23 249.12 1176.23 243.22"/><polygon class="cls-34" points="1122.08 244.33 1060.32 208.68 1060.32 214.58 1122.08 250.22 1122.08 244.33"/><polygon class="cls-34" points="1176.23 275.56 1127.2 247.25 1127.2 253.14 1176.23 281.46 1176.23 275.56"/><polygon class="cls-34" points="1170.78 304.76 1109.85 269.61 1109.85 275.51 1170.78 310.65 1170.78 304.76"/><polygon class="cls-34" points="1137.62 296.39 1137.62 302.28 1170.78 321.4 1170.78 315.5 1137.62 296.39"/><polygon class="cls-34" points="1048.04 244.71 1036.09 237.82 1036.09 243.72 1048.04 250.61 1048.04 244.71"/><polygon class="cls-34" points="1070.41 257.6 1070.41 263.5 1132.49 299.36 1132.49 293.41 1070.41 257.6"/><polygon class="cls-34" points="1065.34 254.68 1053.11 247.63 1053.11 253.53 1065.34 260.58 1065.34 254.68"/><polygon class="cls-34" points="1121.03 297.6 1053.11 258.43 1053.11 264.32 1121.03 303.49 1121.03 297.6"/></g><path class="cls-12" d="M765.87,1092.39a33.07,33.07,0,0,0-30.35,4.63c-16.53,11-27.55,26.06-20.83,31.68s19.67,11.62,28.1,8.59S792.87,1109.8,765.87,1092.39Z" transform="translate(-211.72 -214.2)"/><polygon class="cls-2" points="900.73 813.9 770.93 887.45 688.19 839.58 817.98 766.09 900.73 813.9"/><polygon class="cls-36" points="796.33 885.69 796.33 888.55 926.12 814.24 926.12 812.14 796.33 885.69"/><polygon class="cls-37" points="926.12 812.14 796.33 885.69 713.64 837.81 843.38 764.32 926.12 812.14"/><polygon class="cls-38" points="796.33 885.69 796.33 888.55 713.64 840.68 713.64 837.81 796.33 885.69"/><polygon class="cls-39" points="842.5 772.15 892.46 800.96 890.32 802.23 840.29 773.41 842.5 772.15"/><polygon class="cls-39" points="837.32 775.12 887.28 803.93 885.08 805.15 835.12 776.33 837.32 775.12"/><polygon class="cls-39" points="825.25 781.95 894.06 821.67 891.86 822.88 823.05 783.16 825.25 781.95"/><polygon class="cls-39" points="820.46 784.65 889.27 824.37 887.12 825.58 818.26 785.86 820.46 784.65"/><polygon class="cls-39" points="815.72 787.35 884.53 827.07 882.33 828.28 813.52 788.56 815.72 787.35"/><polygon class="cls-39" points="810.93 790.05 879.74 829.77 877.59 830.98 808.78 791.26 810.93 790.05"/><polygon class="cls-39" points="806.19 792.75 875 832.47 872.8 833.74 803.99 794.02 806.19 792.75"/><polygon class="cls-39" points="801.4 795.45 870.26 835.17 868.06 836.44 799.25 796.72 801.4 795.45"/><polygon class="cls-39" points="796.66 798.15 865.47 837.87 863.27 839.14 794.46 799.42 796.66 798.15"/><polygon class="cls-39" points="791.87 800.85 860.73 840.57 858.53 841.84 789.72 802.12 791.87 800.85"/><polygon class="cls-39" points="787.13 803.55 855.94 843.27 853.74 844.53 784.93 804.82 787.13 803.55"/><polygon class="cls-39" points="782.34 806.25 851.2 845.97 849 847.24 780.19 807.51 782.34 806.25"/><polygon class="cls-39" points="777.6 808.95 846.41 848.72 844.21 849.93 775.4 810.21 777.6 808.95"/><polygon class="cls-39" points="772.86 811.7 841.67 851.37 839.47 852.63 770.66 812.91 772.86 811.7"/><polygon class="cls-39" points="768.07 814.4 836.88 854.12 834.67 855.33 765.87 815.61 768.07 814.4"/><polygon class="cls-39" points="763.33 817.1 832.14 856.82 829.94 858.03 761.13 818.31 763.33 817.1"/><polygon class="cls-39" points="758.54 819.8 827.35 859.52 825.2 860.73 756.34 821.01 758.54 819.8"/><path class="cls-9" d="M914.17,1070.91H902.05V1084h12.12a8.2,8.2,0,0,1,8.21,8.21v21.26a8.21,8.21,0,0,1-8.21,8.16H896.38v13.11h17.79a21.32,21.32,0,0,0,21.32-21.27v-21.1a21.36,21.36,0,0,0-21.26-21.48Z" transform="translate(-211.72 -214.2)"/><path class="cls-3" d="M909.6,1063.69v73.71c0,11.46-17,20.72-38,20.72s-38.07-9.26-38.07-20.72v-73.71Z" transform="translate(-211.72 -214.2)"/><path class="cls-8" d="M833.52,1063.69c0,11.4,17,20.72,38.07,20.72s38-9.32,38-20.72-17-20.88-38-20.88S833.52,1052.29,833.52,1063.69Z" transform="translate(-211.72 -214.2)"/><path class="cls-9" d="M841.12,1063.42c0,9,13.61,16.19,30.47,16.19s30.46-7.21,30.46-16.19-13.66-16.15-30.46-16.15S841.12,1054.49,841.12,1063.42Z" transform="translate(-211.72 -214.2)"/><path class="cls-7" d="M871.59,1057.85c-13.33,0-24.63,4.57-28.81,11,4.18,6.34,15.48,11,28.81,11s24.63-4.57,28.76-11C896.22,1062.42,884.92,1057.85,871.59,1057.85Z" transform="translate(-211.72 -214.2)"/><path class="cls-9" d="M886,1082.86v73.71a40.65,40.65,0,0,0,17.9-8.26V1074.6A40.65,40.65,0,0,1,886,1082.86Z" transform="translate(-211.72 -214.2)"/><path class="cls-8" d="M544,476V439.59l7.2,4.56A24.87,24.87,0,0,1,557,449a15.14,15.14,0,0,1,3,5.62,26.06,26.06,0,0,1,.87,7V475a16.38,16.38,0,0,1-.87,6.1,2.87,2.87,0,0,1-2.92,2q-2.06-.06-5.73-2.39Zm6-1.37,1.27.81c1.12.71,1.91,1,2.38.86s.77-.59.89-1.37a20.86,20.86,0,0,0,.18-3.05v-15a19.08,19.08,0,0,0-.23-3.19,5.61,5.61,0,0,0-1-2.28,8.3,8.3,0,0,0-2.3-2l-1.24-.78Z" transform="translate(-211.72 -214.2)"/><path class="cls-8" d="M573,494.93a18.27,18.27,0,0,1-5.13-4.69,17.21,17.21,0,0,1-2.7-5.84,27.53,27.53,0,0,1-.82-6.92V463.9a16.81,16.81,0,0,1,.82-5.87,3.19,3.19,0,0,1,2.7-2.33q1.89-.19,5.13,1.86a18.69,18.69,0,0,1,5.18,4.7A17,17,0,0,1,580.9,468a27.1,27.1,0,0,1,.82,6.88V488.5a17,17,0,0,1-.82,5.89,3.26,3.26,0,0,1-2.72,2.38C576.9,496.93,575.18,496.31,573,494.93Zm0-5.35c.77.49,1.34.63,1.71.43a1.77,1.77,0,0,0,.72-1.3,12.47,12.47,0,0,0,.18-2.24V469.25a16.56,16.56,0,0,0-.18-2.46,6.72,6.72,0,0,0-.72-2.19,5,5,0,0,0-1.71-1.73c-.73-.47-1.27-.59-1.64-.39a1.72,1.72,0,0,0-.72,1.27,11.27,11.27,0,0,0-.19,2.22v17.22a18.18,18.18,0,0,0,.17,2.47,6.19,6.19,0,0,0,.71,2.2A4.72,4.72,0,0,0,573,489.58Z" transform="translate(-211.72 -214.2)"/><path class="cls-8" d="M585.61,502.43l.51-36.1,6.36,4,3.63,25.28L600,475.14l6.14,3.9.51,36.74L602.29,513l-.47-25-3.75,22.31L594.33,508l-3.93-27.36-.4,24.61Z" transform="translate(-211.72 -214.2)"/><path class="cls-16" d="M786.86,376.06v-8a16.3,16.3,0,0,0,2.73,1.29,2.21,2.21,0,0,0,1.72.08,2,2,0,0,0,.89-1.39,12.88,12.88,0,0,0,.28-3.08V322l9.18,5.17v43.45a22.85,22.85,0,0,1-.89,7.17,3.68,3.68,0,0,1-3.14,2.81q-2.25.25-6.32-2Z" transform="translate(-211.72 -214.2)"/><path class="cls-16" d="M820.13,394.1A23.14,23.14,0,0,1,809,380.21a41.16,41.16,0,0,1-1.64-10.67l7.9,2.8a41.44,41.44,0,0,0,.58,6.07,13.36,13.36,0,0,0,1.45,4.26,6.48,6.48,0,0,0,2.42,2.5c1.19.67,2,.66,2.42,0a5.18,5.18,0,0,0,.64-2.8,16.57,16.57,0,0,0-1.36-6.66,57.74,57.74,0,0,0-3.59-6.8l-4.68-7.66A47,47,0,0,1,809,353a25.5,25.5,0,0,1-1.58-9q0-6.89,3.25-8.74t8.93,1.34a19.91,19.91,0,0,1,5.57,4.51,20.78,20.78,0,0,1,3.37,5.58,27.76,27.76,0,0,1,1.66,6,49.76,49.76,0,0,1,.59,5.73l-7.85-3q-.11-2.61-.36-4.68a11.22,11.22,0,0,0-1-3.59,5.37,5.37,0,0,0-2.25-2.37c-1.08-.61-1.88-.56-2.4.13a4.65,4.65,0,0,0-.78,2.84,13.65,13.65,0,0,0,1.09,5.46,46.56,46.56,0,0,0,3,5.64l4.56,7.52a66.2,66.2,0,0,1,4.87,9.66,28.55,28.55,0,0,1,2,10.75,11.84,11.84,0,0,1-1.45,6.28,5.34,5.34,0,0,1-4,2.68A10.11,10.11,0,0,1,820.13,394.1Z" transform="translate(-211.72 -214.2)"/><path class="cls-40" d="M1282.15,1118.1a8.19,8.19,0,0,1-3.4-2.79,2.18,2.18,0,0,1,.17-2.53,9.13,9.13,0,0,1,2.89-2.33l7.28-4.14a16.43,16.43,0,0,1,4.25-1.72,11.61,11.61,0,0,1,4.53-.14,16.3,16.3,0,0,1,5.09,1.83,9,9,0,0,1,3.34,2.62,2,2,0,0,1,0,2.3,7.15,7.15,0,0,1-2.46,2.08l-1.71,1-4.78-2.58,1.91-1.08a13.68,13.68,0,0,0,1.22-.79,1.06,1.06,0,0,0,.51-.84c0-.29-.34-.62-1-1a4,4,0,0,0-1.83-.55,4.14,4.14,0,0,0-1.61.28,11.9,11.9,0,0,0-1.53.74l-9.22,5.23a7.21,7.21,0,0,0-1.32.94.87.87,0,0,0-.35.89c.08.3.41.6,1,.91a3.68,3.68,0,0,0,1.75.52,4,4,0,0,0,1.54-.32,13.47,13.47,0,0,0,1.48-.72l2-1.13,4.78,2.59-1.68,1a13.78,13.78,0,0,1-3.74,1.46,11.14,11.14,0,0,1-4.21.11A15.33,15.33,0,0,1,1282.15,1118.1Z" transform="translate(-211.72 -214.2)"/><path class="cls-40" d="M1291,1122.59l25-9,5.47,3-15.62,14-4.57-2.47,3.59-3-3.82-2.06-5.39,2Zm13-.72,2.9,1.57,6.72-5.44Z" transform="translate(-211.72 -214.2)"/><path class="cls-40" d="M1308.11,1131.83l20.27-11.51,3.44,1.85-5.19,8.91,10.57-6,4.06,2.2L1321,1138.79l-3.29-1.77,5.84-9.28-11.21,6.37Z" transform="translate(-211.72 -214.2)"/><path class="cls-40" d="M1328.08,1142.64l15.68-14,4.27,2.31-11.15,9.52,16.71-6.51,4.45,2.4-24.88,9Z" transform="translate(-211.72 -214.2)"/><path class="cls-40" d="M1338.21,1148.11l25-9,5.47,2.95-15.62,14-4.57-2.47,3.59-3-3.82-2.07-5.38,2Zm13-.72,2.9,1.57,6.72-5.44Z" transform="translate(-211.72 -214.2)"/><path class="cls-40" d="M1361.28,1160.9a8.55,8.55,0,0,1-3-2.41,2.2,2.2,0,0,1-.18-2.4,7.43,7.43,0,0,1,2.66-2.49l4.85,2a9.31,9.31,0,0,0-1.78,1.36,1.31,1.31,0,0,0-.48,1.13,1.58,1.58,0,0,0,.89.94,3,3,0,0,0,1.8.41,3.89,3.89,0,0,0,1.49-.46c.85-.49,1.33-1,1.41-1.62a4.86,4.86,0,0,0-.18-2l-.68-2.4a4,4,0,0,1,0-2.41,4.2,4.2,0,0,1,2.11-2.14,9.8,9.8,0,0,1,5.59-1.23,14.6,14.6,0,0,1,6.13,1.83,7.37,7.37,0,0,1,2.48,1.9,2.06,2.06,0,0,1,.47,1.73,3.12,3.12,0,0,1-.93,1.53,11.3,11.3,0,0,1-1.65,1.28l-4.74-2a13.73,13.73,0,0,0,1.44-1,1.28,1.28,0,0,0,.56-.91c0-.3-.27-.59-.81-.88a3.08,3.08,0,0,0-1.82-.39,3.77,3.77,0,0,0-1.61.45c-.72.4-1.11.84-1.18,1.31a4.17,4.17,0,0,0,.16,1.69l.64,2.34a5.53,5.53,0,0,1,.1,2.85,4.49,4.49,0,0,1-2.4,2.57,8.79,8.79,0,0,1-3.36,1,12.92,12.92,0,0,1-4-.14A13.6,13.6,0,0,1,1361.28,1160.9Z" transform="translate(-211.72 -214.2)"/></svg>